<svg xmlns="http://www.w3.org/2000/svg" xmlns:xlink="http://www.w3.org/1999/xlink" width="168.216" height="234.38" viewBox="0 0 168.216 234.38"><defs><style>.a,.b{fill:#e6fffe;}.ag,.b,.x{opacity:0.5;}.c{fill:#e8393f;}.d{fill:url(#a);}.e{fill:url(#b);}.al,.ap,.f,.m,.x{fill:url(#c);}.g{opacity:0.595;}.ai,.aj,.al,.an,.ap,.g,.i,.k,.m,.v,.x{mix-blend-mode:multiply;}.ag,.ah,.ai,.aj,.al,.am,.an,.ap,.as,.au,.av,.ax,.g,.i,.k,.m,.v,.x{isolation:isolate;}.an,.g,.i,.k{fill:url(#e);}.h{fill:#fff;}.i{opacity:0.601;}.j{fill:url(#g);}.k{opacity:0.498;}.l{fill:url(#j);}.m{opacity:0.798;}.n{fill:url(#m);}.o{fill:url(#n);}.p,.v{fill:url(#p);}.q{fill:url(#r);}.r{fill:url(#s);}.s{fill:url(#t);}.t{fill:#dfe3fb;}.u{fill:url(#u);}.v{opacity:0.493;}.w{fill:url(#w);}.y{fill:url(#y);}.z{fill:url(#z);}.aa{fill:url(#aa);}.ab{fill:url(#ab);}.ac{fill:url(#af);}.ad{fill:#2f95cd;}.ae{fill:url(#ag);}.af{fill:url(#ah);}.ag,.ah,.am,.as,.au,.av,.ax{mix-blend-mode:screen;}.ag,.ah{fill:url(#ai);}.ah{opacity:0.601;}.ai,.aj{opacity:0.3;}.ai{fill:url(#ak);}.aj{fill:url(#al);}.ak{fill:url(#an);}.al{opacity:0.802;}.am{opacity:0.72;fill:url(#ap);}.an{opacity:0.502;}.ao{fill:url(#ar);}.ap{opacity:0.8;}.aq{fill:url(#au);}.ar{fill:url(#aw);}.as{opacity:0.397;fill:url(#ax);}.at{fill:#f77777;}.au,.ax{fill:url(#ay);}.av{fill:url(#az);}.aw{fill:url(#ba);}.ax{opacity:0.599;}.ay{fill:#39bfb8;}.az{fill:#5f5f5f;}</style><linearGradient id="a" x1="0.346" y1="0.984" x2="0.532" y2="0.038" gradientUnits="objectBoundingBox"><stop offset="0" stop-color="#39bfb8"/><stop offset="1" stop-color="#5deae2"/></linearGradient><linearGradient id="b" x1="0.321" y1="0.985" x2="0.557" y2="-0.029" xlink:href="#a"/><linearGradient id="c" x1="0.5" y1="1" x2="0.5" gradientUnits="objectBoundingBox"><stop offset="0" stop-color="#39bfb8"/><stop offset="1" stop-color="#3da4ab"/></linearGradient><linearGradient id="e" x1="0.5" y1="1" x2="0.5" gradientUnits="objectBoundingBox"><stop offset="0" stop-color="#39bfb8"/><stop offset="1" stop-color="#ccedff"/></linearGradient><linearGradient id="g" x1="0.399" y1="1.015" x2="0.646" y2="-0.022" xlink:href="#a"/><linearGradient id="j" x1="0.347" y1="1" x2="0.597" y2="0.003" xlink:href="#a"/><linearGradient id="m" x1="0.403" y1="0.986" x2="0.689" y2="0.002" xlink:href="#a"/><linearGradient id="n" x1="-0.932" y1="1" x2="-0.932" y2="0" xlink:href="#a"/><linearGradient id="p" x1="0.5" y1="1" x2="0.5" y2="0" xlink:href="#a"/><linearGradient id="r" x1="0.5" y1="1" x2="0.5" gradientUnits="objectBoundingBox"><stop offset="0" stop-color="#45ffcd"/><stop offset="1" stop-color="#22e0ff"/></linearGradient><linearGradient id="s" x1="-0.437" y1="1" x2="-0.437" y2="0" xlink:href="#r"/><linearGradient id="t" x1="0.459" y1="1.009" x2="0.574" y2="0.009" xlink:href="#a"/><linearGradient id="u" x1="0.5" y1="1" x2="0.5" gradientUnits="objectBoundingBox"><stop offset="0" stop-color="#0665bd"/><stop offset="1" stop-color="#1a1f77"/></linearGradient><linearGradient id="w" y1="0.5" x2="1" y2="0.5" gradientUnits="objectBoundingBox"><stop offset="0" stop-color="#3f979d"/><stop offset="1" stop-color="#39bfb8"/></linearGradient><linearGradient id="y" x1="0.485" y1="1.11" x2="0.508" y2="-0.231" gradientUnits="objectBoundingBox"><stop offset="0" stop-color="#32767b"/><stop offset="1" stop-color="#28787e"/></linearGradient><linearGradient id="z" x1="0.429" y1="0.998" x2="0.603" y2="0.007" xlink:href="#a"/><linearGradient id="aa" y1="0.5" x2="1" y2="0.5" gradientUnits="objectBoundingBox"><stop offset="0" stop-color="#3da4ab"/><stop offset="1" stop-color="#39bfb8"/></linearGradient><linearGradient id="ab" x1="0.424" y1="1.025" x2="0.561" y2="-0.03" xlink:href="#a"/><linearGradient id="af" x1="2.891" y1="1" x2="2.891" y2="0" xlink:href="#r"/><linearGradient id="ag" x1="0.479" y1="1.014" x2="0.646" y2="0.002" gradientUnits="objectBoundingBox"><stop offset="0" stop-color="#646464"/><stop offset="1" stop-color="#2b2b2b"/></linearGradient><linearGradient id="ah" y1="1.67" x2="0" y2="0.567" gradientUnits="objectBoundingBox"><stop offset="0" stop-color="#030303"/><stop offset="1" stop-color="#4b4b4b"/></linearGradient><linearGradient id="ai" y1="0.5" x2="1" y2="0.5" gradientUnits="objectBoundingBox"><stop offset="0"/><stop offset="1" stop-color="#6a9bff"/></linearGradient><linearGradient id="ak" x1="0.5" y1="1" x2="0.5" gradientUnits="objectBoundingBox"><stop offset="0" stop-color="#9d68c2"/><stop offset="1" stop-color="#ccedff"/></linearGradient><linearGradient id="al" x1="0.5" y1="1" x2="0.5" y2="0" xlink:href="#ak"/><radialGradient id="an" cx="0.517" cy="0.845" r="0.763" gradientTransform="translate(0.017) scale(0.966 1)" xlink:href="#r"/><linearGradient id="ap" x1="0.5" y1="1" x2="0.5" gradientUnits="objectBoundingBox"><stop offset="0" stop-color="#d4e2ff"/><stop offset="1"/></linearGradient><linearGradient id="ar" x1="0.387" y1="1.009" x2="0.615" y2="-0.008" xlink:href="#a"/><linearGradient id="au" x1="0.304" y1="1.005" x2="0.639" y2="0.009" xlink:href="#a"/><linearGradient id="aw" x1="0.5" y1="1" x2="0.5" gradientUnits="objectBoundingBox"><stop offset="0" stop-color="#3e3e3e"/><stop offset="1" stop-color="#838383"/></linearGradient><linearGradient id="ax" x1="-0.076" y1="1.068" x2="-0.076" y2="0.069" gradientUnits="objectBoundingBox"><stop offset="0"/><stop offset="1" stop-color="#00e3ff"/></linearGradient><linearGradient id="ay" y1="0.5" x2="1" y2="0.5" gradientUnits="objectBoundingBox"><stop offset="0"/><stop offset="1" stop-color="#d4e2ff"/></linearGradient><linearGradient id="az" x1="0" y1="0.5" x2="1" y2="0.5" xlink:href="#ap"/><linearGradient id="ba" x1="0.381" y1="1.004" x2="0.381" y2="-0.009" gradientUnits="objectBoundingBox"><stop offset="0" stop-color="#fff"/><stop offset="1" stop-color="#d0d0d0"/></linearGradient></defs><g transform="translate(2385.585 2517.38)"><g transform="translate(278)"><g transform="translate(-2663.585 -2442.235)"><path class="a" d="M207.679,192.007a39.345,39.345,0,0,1-8.241,11.443,21.386,21.386,0,0,1-2.826,2.2,17.6,17.6,0,0,1-2.833,1.5c-14.127,5.839-28.591-7.448-44.75-5.878-13.546,1.318-23.294,8.844-31.934,15.163a85.167,85.167,0,0,1-8.877,5.925c-.817.456-1.641.872-2.456,1.24-.879.393-1.814.762-2.809,1.1,0,.007-.008.007-.008.007l-.008-.007c-12.518,4.292-33.66,4.136-43.031-5.1-9.81-9.676-21.724-41.038,5.259-81.432,29.979-44.9,111.891-51.107,133.78-36.259C221.594,117.253,220.684,166.21,207.679,192.007Z" transform="translate(-48.629 -68.178)"/><g transform="translate(68.41 109.12)"><path class="a" d="M160.641,203.2a12.827,12.827,0,0,0-5.26-2.489,2.238,2.238,0,0,0-.937-.055,1.829,1.829,0,0,0-1.219,1.258,3.758,3.758,0,0,0,1.22,4.024,4.657,4.657,0,0,0,4.238.748,3.134,3.134,0,0,0,1.926-1.425,1.766,1.766,0,0,0-.409-2.214.382.382,0,0,0-.145.624Z" transform="translate(-127.601 -192.052)"/><path class="a" d="M154.5,204.631a2.377,2.377,0,0,0-1.582-1.671,2.5,2.5,0,0,0-.835,2.147,1.512,1.512,0,0,0,1.727,1.254,1.087,1.087,0,0,0,.392-1.85Z" transform="translate(-127.414 -192.493)"/><path class="a" d="M147.014,200.8a1.22,1.22,0,0,0-.1-1.072,1.248,1.248,0,0,0-.407.285.427.427,0,0,0-.076.465c.11.2.385.219.613.212l-.129.138Z" transform="translate(-126.342 -191.882)"/><path class="a" d="M148.716,201.257a.552.552,0,0,1,.27.2.938.938,0,0,1-.829-.117c-.144-.074-.307-.19-.29-.35.012-.112.109-.194.16-.294.1-.2.048-.52.262-.593a.277.277,0,0,1,.313.158.8.8,0,0,1,.058.374l0,.835Z" transform="translate(-126.621 -191.95)"/><path class="b" d="M127.006,193.406c-.1-.212-.466-.081-.508.149a.851.851,0,0,0,.254.632.82.82,0,0,0,.391-.823Z" transform="translate(-122.578 -190.666)"/><path class="a" d="M122.294,202.522a.211.211,0,0,1-.156.25.4.4,0,0,1-.312-.07.383.383,0,0,1-.134-.138.277.277,0,0,1,.146-.369.3.3,0,0,1,.367.17.32.32,0,0,1-.15.382Z" transform="translate(-121.666 -192.346)"/><path class="a" d="M143.3,202.946a.327.327,0,0,0,.27-.492.566.566,0,0,0-.346.092.276.276,0,0,0-.1.321.185.185,0,0,0,.3.048Z" transform="translate(-125.72 -192.397)"/><path class="a" d="M149.618,202.435a.935.935,0,0,0,.188-.791l-.657.212a.614.614,0,0,0-.284.151.369.369,0,0,0,.12.54.518.518,0,0,0,.585-.1Z" transform="translate(-126.797 -192.244)"/><path class="b" d="M126.252,201.742l-.227.057a.283.283,0,0,0,.159.315.234.234,0,0,0,.306-.146.2.2,0,0,0-.214-.242Z" transform="translate(-122.489 -192.259)"/><path class="a" d="M145.261,202.53c-.051.143.131.272.282.259a4.474,4.474,0,0,0,.435-.135.549.549,0,0,1,.443.107.262.262,0,0,1,.116.233.328.328,0,0,1-.092.156,1.642,1.642,0,0,1-.726.512.768.768,0,0,1-.818-.218.59.59,0,0,1,.409-.945Z" transform="translate(-126.038 -192.406)"/><path class="a" d="M148.015,198.271a.367.367,0,0,0-.111-.5.527.527,0,0,0-.54,0c-.073.041-.146.119-.118.2a.209.209,0,0,0,.131.1l.649.264Z" transform="translate(-126.503 -191.499)"/><path class="a" d="M137.344,195.536a.619.619,0,0,1-.869.456,1.543,1.543,0,0,1,.378-.8.535.535,0,0,1,.785.029l-.08.517Z" transform="translate(-124.467 -190.995)"/><path class="a" d="M171.654,209.681a.16.16,0,0,1,.115.2.376.376,0,0,1-.164.2.457.457,0,0,1-.193.087.312.312,0,0,1-.323-.215.4.4,0,0,1,.1-.388.255.255,0,0,1,.18-.086.137.137,0,0,1,.139.123Z" transform="translate(-131.011 -193.726)"/><path class="a" d="M141.739,200.84c-.02-.079-.04-.157-.06-.236a.512.512,0,0,0-.342.133c-.081.1-.043.286.083.292a.267.267,0,0,0,.132-.045l.392-.223Z" transform="translate(-125.378 -192.048)"/><path class="a" d="M136.319,199.814a1.453,1.453,0,0,0-.348-.481.5.5,0,0,0-.556-.074.45.45,0,0,0-.179.229.553.553,0,1,0,1.057.318Z" transform="translate(-124.227 -191.783)"/><path class="a" d="M135.17,197.66l-.357-.194a.715.715,0,0,0-.156.267.382.382,0,0,0,.534.033Z" transform="translate(-124.123 -191.454)"/><path class="a" d="M148.663,190.2a5.134,5.134,0,0,0-2.329-.021.888.888,0,0,0-.35.138.734.734,0,0,0-.232.662,1.5,1.5,0,0,0,1.119,1.257,1.865,1.865,0,0,0,1.666-.44,1.257,1.257,0,0,0,.461-.842.708.708,0,0,0-.521-.735.153.153,0,0,0,.053.251Z" transform="translate(-126.221 -190.052)"/><path class="a" d="M149.631,210a1.225,1.225,0,0,0-.724-.8,1.264,1.264,0,0,0-.156.473.43.43,0,0,0,.217.418c.208.093.439-.056.619-.2l-.021.187Z" transform="translate(-126.789 -193.674)"/><path class="a" d="M146.211,210.232a.485.485,0,0,0-.25-.178.508.508,0,0,0-.289.07,4.586,4.586,0,0,1-.78.273l1.238.6a.279.279,0,0,1,.091.061c.084.1,0,.245.019.371.026.184.249.263.435.275C148,211.793,146.591,210.657,146.211,210.232Z" transform="translate(-126.059 -193.834)"/><path class="a" d="M152.7,209.683a.935.935,0,0,0-.323-.747l-.4.564a.624.624,0,0,0-.137.29.37.37,0,0,0,.42.361.521.521,0,0,0,.407-.435Z" transform="translate(-127.373 -193.623)"/><path class="a" d="M169.1,214.716l-.226.058a.283.283,0,0,0,.158.315.236.236,0,0,0,.307-.146.2.2,0,0,0-.214-.242Z" transform="translate(-130.595 -194.713)"/><path class="a" d="M148.884,207.371a.368.368,0,0,0-.387-.331.529.529,0,0,0-.431.326c-.034.076-.045.182.025.228a.207.207,0,0,0,.166,0l.678-.178Z" transform="translate(-126.654 -193.265)"/><path class="a" d="M151.391,204.164a1.48,1.48,0,0,0-.348-.482.5.5,0,0,0-.557-.074.443.443,0,0,0-.178.23.552.552,0,1,0,1.056.317Z" transform="translate(-127.078 -192.605)"/><path class="a" d="M142.111,195.979c-.2.013-.31.24-.364.435s-.126.425-.319.484a.177.177,0,0,1-.159-.019c-.112-.087-.011-.259.019-.4a1.446,1.446,0,0,0-.011-.34.68.68,0,0,1,.426-.632.373.373,0,0,1,.2.656Z" transform="translate(-125.364 -191.084)"/><path class="a" d="M136.294,198.052c-.2.014-.31.241-.365.435s-.126.424-.319.484a.177.177,0,0,1-.159-.019c-.112-.088-.011-.259.019-.4a1.487,1.487,0,0,0-.011-.339.679.679,0,0,1,.425-.632.374.374,0,0,1,.2.656Z" transform="translate(-124.264 -191.476)"/><path class="a" d="M132.335,195.859a1.077,1.077,0,0,0-.449-.195.184.184,0,0,0-.079,0,.155.155,0,0,0-.1.109.315.315,0,0,0,.114.335.393.393,0,0,0,.358.052.269.269,0,0,0,.159-.126.149.149,0,0,0-.041-.185.032.032,0,0,0-.011.053Z" transform="translate(-123.563 -191.112)"/><path class="a" d="M159.31,207.213a1.225,1.225,0,0,0-.724-.8,1.265,1.265,0,0,0-.156.473.43.43,0,0,0,.217.418c.208.093.439-.056.619-.2l-.021.187Z" transform="translate(-128.619 -193.147)"/><path class="a" d="M157.593,211.164a.327.327,0,0,0-.079-.555.564.564,0,0,0-.222.281.277.277,0,0,0,.111.319.185.185,0,0,0,.268-.141Z" transform="translate(-128.402 -193.94)"/><path class="a" d="M152.358,205.567a.327.327,0,0,0-.079-.556.564.564,0,0,0-.222.281.277.277,0,0,0,.111.319.186.186,0,0,0,.268-.141Z" transform="translate(-127.412 -192.881)"/><path class="a" d="M158.935,209.541c.045.146.268.14.381.038a4.348,4.348,0,0,0,.267-.369.547.547,0,0,1,.418-.179.263.263,0,0,1,.233.118.322.322,0,0,1,.019.18,1.644,1.644,0,0,1-.274.846.767.767,0,0,1-.786.315.59.59,0,0,1-.239-1Z" transform="translate(-128.683 -193.641)"/><path class="a" d="M140.526,197.806c.045.145.268.139.381.037a4.218,4.218,0,0,0,.266-.369.55.55,0,0,1,.419-.179.265.265,0,0,1,.233.118.33.33,0,0,1,.019.18,1.643,1.643,0,0,1-.273.846.771.771,0,0,1-.787.315.59.59,0,0,1-.239-1Z" transform="translate(-125.201 -191.422)"/><path class="a" d="M141.5,195.576c.045.146.268.14.381.038s.165-.255.267-.369a.547.547,0,0,1,.418-.179.263.263,0,0,1,.233.118.33.33,0,0,1,.019.18,1.643,1.643,0,0,1-.273.846.77.77,0,0,1-.787.315.589.589,0,0,1-.238-1Z" transform="translate(-125.385 -191)"/><path class="a" d="M144.55,197.755c.045.146.268.14.381.038a4.063,4.063,0,0,0,.267-.369.547.547,0,0,1,.418-.179.265.265,0,0,1,.234.118.331.331,0,0,1,.019.18,1.644,1.644,0,0,1-.274.846.769.769,0,0,1-.786.315.59.59,0,0,1-.239-1Z" transform="translate(-125.962 -191.412)"/><path class="a" d="M125.22,215.519c.045.145.268.139.38.038a4.315,4.315,0,0,0,.267-.369.547.547,0,0,1,.418-.179.261.261,0,0,1,.233.118.323.323,0,0,1,.019.18,1.644,1.644,0,0,1-.274.845.769.769,0,0,1-.786.315.59.59,0,0,1-.239-1Z" transform="translate(-122.306 -194.772)"/><path class="a" d="M155.075,210.416l-.19-.152a.513.513,0,0,0-.194.311c-.008.126.136.255.24.184a.253.253,0,0,0,.079-.116l.182-.414Z" transform="translate(-127.912 -193.868)"/><path class="a" d="M135.229,208.86a1.48,1.48,0,0,0-.348-.482.5.5,0,0,0-.557-.074.449.449,0,0,0-.179.23.552.552,0,1,0,1.057.317Z" transform="translate(-124.021 -193.494)"/><path class="a" d="M155.083,202.876a.4.4,0,0,1,.054.686,1.125,1.125,0,0,1-.449-.139.712.712,0,0,1,.293-.42Z" transform="translate(-127.912 -192.477)"/><path class="b" d="M133.433,206.391a.838.838,0,0,0-.248-.233.286.286,0,0,0-.321.019c-.139.127-.056.363-.122.54s-.281.292-.283.481.229.306.41.259a.821.821,0,0,0,.421-.353.915.915,0,0,0,.2-.45.361.361,0,0,0-.248-.385Z" transform="translate(-123.707 -193.091)"/><path class="a" d="M144.463,200.28a2.378,2.378,0,0,0-.265-2.286,2.5,2.5,0,0,0-1.956,1.219,1.512,1.512,0,0,0,.632,2.039c.742.3,1.717-.5,1.422-1.246Z" transform="translate(-125.527 -191.554)"/><path class="a" d="M156.068,200.709a.213.213,0,0,1-.275.106.4.4,0,0,1-.208-.243.384.384,0,0,1-.025-.191.278.278,0,0,1,.338-.208.3.3,0,0,1,.191.356.32.32,0,0,1-.349.216Z" transform="translate(-128.076 -191.964)"/><path class="a" d="M150.58,200.807c-.186.08-.212.329-.2.531s.022.443-.141.563a.174.174,0,0,1-.156.035c-.135-.045-.1-.241-.114-.383a1.512,1.512,0,0,0-.123-.316.677.677,0,0,1,.191-.737.373.373,0,0,1,.407.552Z" transform="translate(-126.988 -192.026)"/><path class="a" d="M143.341,203.89l-.216-.09a.283.283,0,0,0-.062.348.236.236,0,0,0,.332.067.2.2,0,0,0-.027-.322Z" transform="translate(-125.706 -192.652)"/><path class="a" d="M148.738,203.562a.16.16,0,0,1-.028.229.369.369,0,0,1-.249.06.462.462,0,0,1-.207-.045.313.313,0,0,1-.13-.366.4.4,0,0,1,.314-.25.253.253,0,0,1,.2.039.138.138,0,0,1,.037.182Z" transform="translate(-126.667 -192.536)"/><path class="a" d="M147.051,211.243a2.377,2.377,0,0,0,1.294-1.9,2.5,2.5,0,0,0-2.276-.357,1.512,1.512,0,0,0-.855,1.955,1.087,1.087,0,0,0,1.891-.013Z" transform="translate(-126.096 -193.606)"/><path class="a" d="M154.617,208.995c-.1-.212-.465-.081-.508.149a.851.851,0,0,0,.253.632.818.818,0,0,0,.391-.822Z" transform="translate(-127.801 -193.614)"/><path class="a" d="M153.826,198.53l-.215-.09a.284.284,0,0,0-.062.348.235.235,0,0,0,.332.066.2.2,0,0,0-.027-.322Z" transform="translate(-127.69 -191.638)"/><path class="a" d="M150.335,202.709a5.557,5.557,0,0,0-2.249-1.146.974.974,0,0,0-.406-.036.793.793,0,0,0-.544.53,1.63,1.63,0,0,0,.478,1.76,2.021,2.021,0,0,0,1.828.378,1.362,1.362,0,0,0,.853-.594.766.766,0,0,0-.15-.966.166.166,0,0,0-.071.269Z" transform="translate(-126.466 -192.221)"/><path class="a" d="M138.673,215.145a2.377,2.377,0,0,0-1.581-1.671,2.5,2.5,0,0,0-.836,2.148,1.511,1.511,0,0,0,1.728,1.253,1.087,1.087,0,0,0,.392-1.85Z" transform="translate(-124.42 -194.482)"/><path class="a" d="M133.026,197.68a1.22,1.22,0,0,0-.724-.8,1.262,1.262,0,0,0-.156.472.431.431,0,0,0,.217.418c.208.093.439-.056.619-.2l-.021.187Z" transform="translate(-123.648 -191.344)"/><path class="a" d="M129.606,197.912a.482.482,0,0,0-.25-.179.508.508,0,0,0-.29.07,4.586,4.586,0,0,1-.78.273l1.238.6a.265.265,0,0,1,.091.06c.084.1,0,.245.019.371.026.184.249.263.435.275C131.392,199.472,129.986,198.336,129.606,197.912Z" transform="translate(-122.918 -191.504)"/><path class="a" d="M149.79,200.121l-.354-.195a.646.646,0,0,0,.1.745c.2.178.6.076.624-.191.015-.166-.03-.432.135-.414Z" transform="translate(-126.904 -191.919)"/><path class="a" d="M135.655,202.518a.559.559,0,0,1,.27.2.941.941,0,0,1-.829-.117c-.144-.074-.307-.19-.29-.35.012-.112.109-.194.16-.294.1-.2.048-.52.262-.593a.277.277,0,0,1,.313.158.819.819,0,0,1,.058.374c0,.278,0,.557,0,.835Z" transform="translate(-124.151 -192.189)"/><path class="a" d="M133.873,207.865c-.1-.212-.466-.081-.508.149a.853.853,0,0,0,.253.632.822.822,0,0,0,.392-.823Z" transform="translate(-123.877 -193.401)"/><path class="b" d="M129.98,203.008a.212.212,0,0,1-.157.25.393.393,0,0,1-.312-.071.368.368,0,0,1-.134-.137.277.277,0,0,1,.147-.369.3.3,0,0,1,.366.171.32.32,0,0,1-.15.381Z" transform="translate(-123.12 -192.438)"/><path class="a" d="M131.309,201.632a.328.328,0,0,0-.079-.556.564.564,0,0,0-.222.281.277.277,0,0,0,.111.319.185.185,0,0,0,.268-.141Z" transform="translate(-123.431 -192.137)"/><path class="a" d="M136.093,197.362a.936.936,0,0,0-.324-.747l-.4.564a.624.624,0,0,0-.137.29.37.37,0,0,0,.42.361.519.519,0,0,0,.406-.434Z" transform="translate(-124.232 -191.293)"/><path class="b" d="M130.326,207.1a.416.416,0,0,1-.6.482c-.1-.052-.175-.183-.108-.272a.249.249,0,0,1,.118-.071l.576-.216.021.1Z" transform="translate(-123.166 -193.262)"/><path class="b" d="M127.333,209.625c-.2.014-.31.24-.364.435s-.126.425-.32.484a.171.171,0,0,1-.158-.019c-.113-.087-.011-.259.019-.4a1.543,1.543,0,0,0-.011-.34.678.678,0,0,1,.425-.632.374.374,0,0,1,.2.656Z" transform="translate(-122.569 -193.665)"/><path class="b" d="M143.74,194.007c-.2.013-.311.24-.365.435s-.126.425-.319.484a.177.177,0,0,1-.159-.019c-.112-.087-.011-.259.019-.4a1.489,1.489,0,0,0-.011-.339.68.68,0,0,1,.425-.632.374.374,0,0,1,.2.656Z" transform="translate(-125.672 -190.711)"/><path class="b" d="M125.841,207.8l-.174-.157a.284.284,0,0,0-.174.308.235.235,0,0,0,.292.173.2.2,0,0,0,.081-.313Z" transform="translate(-122.389 -193.379)"/><path class="a" d="M132.651,200.009c.045.145.268.139.381.037a4.079,4.079,0,0,0,.267-.369.55.55,0,0,1,.418-.179.262.262,0,0,1,.233.118.319.319,0,0,1,.019.179,1.644,1.644,0,0,1-.274.846.769.769,0,0,1-.786.315.59.59,0,0,1-.239-1Z" transform="translate(-123.712 -191.838)"/><path class="a" d="M132.279,195.051a.368.368,0,0,0-.387-.332.529.529,0,0,0-.431.326c-.033.076-.045.182.025.229a.21.21,0,0,0,.166,0l.678-.178Z" transform="translate(-123.514 -190.934)"/><path class="a" d="M137.718,206.723a.62.62,0,0,1-.87.456,1.543,1.543,0,0,1,.378-.8.535.535,0,0,1,.785.028l-.08.518Z" transform="translate(-124.538 -193.11)"/><path class="b" d="M128.791,200.884l-.19-.153a.515.515,0,0,0-.194.311c-.008.126.137.255.24.184a.255.255,0,0,0,.079-.115l.182-.414Z" transform="translate(-122.941 -192.065)"/><path class="a" d="M154.714,205.04a1.468,1.468,0,0,0-.349-.481.5.5,0,0,0-.556-.074.447.447,0,0,0-.179.229.552.552,0,1,0,1.057.317Z" transform="translate(-127.706 -192.771)"/><path class="a" d="M142.037,212.119l-.358-.194a.714.714,0,0,0-.156.267.383.383,0,0,0,.535.033Z" transform="translate(-125.422 -194.189)"/><path class="a" d="M166.575,210.586a.213.213,0,0,1-.157.251.4.4,0,0,1-.312-.071.386.386,0,0,1-.134-.137.276.276,0,0,1,.147-.369.3.3,0,0,1,.366.17.32.32,0,0,1-.15.381Z" transform="translate(-130.041 -193.871)"/><path class="a" d="M140.305,208.36l-.357-.194a.715.715,0,0,0-.156.267.383.383,0,0,0,.534.032Z" transform="translate(-125.094 -193.478)"/><path class="a" d="M146.233,195.878c0-.152-.215-.212-.353-.148a4.205,4.205,0,0,0-.364.275.55.55,0,0,1-.452.048.263.263,0,0,1-.188-.181.333.333,0,0,1,.035-.178,1.634,1.634,0,0,1,.511-.727.767.767,0,0,1,.843-.071.59.59,0,0,1-.066,1.028Z" transform="translate(-126.055 -190.95)"/><path class="a" d="M150.29,205.17a.834.834,0,0,0,.169.3.289.289,0,0,0,.313.076c.17-.081.16-.332.274-.481s.355-.2.413-.376-.13-.36-.316-.368a.82.82,0,0,0-.506.213.907.907,0,0,0-.325.371.359.359,0,0,0,.124.44Z" transform="translate(-127.079 -192.75)"/><path class="a" d="M140.743,199.852a4.532,4.532,0,0,0,2.028.336.8.8,0,0,0,.324-.071.649.649,0,0,0,.293-.546,1.329,1.329,0,0,0-.8-1.249,1.646,1.646,0,0,0-1.512.156,1.111,1.111,0,0,0-.516.671.623.623,0,0,0,.354.713.135.135,0,0,0-.011-.226Z" transform="translate(-125.236 -191.594)"/><path class="a" d="M144.577,195.313a.477.477,0,0,0,.031-.306.509.509,0,0,0-.2-.216,4.61,4.61,0,0,1-.624-.541l.092,1.374a.273.273,0,0,1-.007.109c-.042.12-.212.122-.312.2-.148.114-.1.346-.023.513C144.112,197.639,144.4,195.853,144.577,195.313Z" transform="translate(-125.787 -190.846)"/><path class="a" d="M140.723,199.987l-.162-.168a.284.284,0,0,0-.2.294.236.236,0,0,0,.28.193.2.2,0,0,0,.1-.306Z" transform="translate(-125.202 -191.899)"/><path class="a" d="M142.007,195.458a.368.368,0,0,0,.095-.5.529.529,0,0,0-.5-.212c-.083.009-.181.052-.186.135a.209.209,0,0,0,.079.146l.491.5Z" transform="translate(-125.402 -190.939)"/><path class="a" d="M140.487,198.061a1.223,1.223,0,0,0,.332-1.025,1.253,1.253,0,0,0-.487.1.428.428,0,0,0-.255.4c.022.227.267.354.478.439l-.173.075Z" transform="translate(-125.148 -191.373)"/><path class="a" d="M138.706,199.116a.549.549,0,0,1-.036.332.942.942,0,0,1-.311-.777c-.007-.162.012-.361.16-.427.1-.045.222,0,.335-.007.225-.012.474-.217.644-.068a.278.278,0,0,1,.019.35.81.81,0,0,1-.3.237l-.726.412Z" transform="translate(-124.823 -191.577)"/><path class="a" d="M143.4,196.949a.933.933,0,0,0,.487-.652l-.688-.066a.625.625,0,0,0-.32.026.37.37,0,0,0-.1.544.519.519,0,0,0,.579.136Z" transform="translate(-125.645 -191.219)"/><path class="a" d="M139.36,195.273c-.1.111.012.3.157.349a4.423,4.423,0,0,0,.452.048.549.549,0,0,1,.364.274.263.263,0,0,1,.014.26.33.33,0,0,1-.147.106,1.638,1.638,0,0,1-.87.182.768.768,0,0,1-.664-.525.589.589,0,0,1,.75-.705Z" transform="translate(-124.878 -191.032)"/><path class="a" d="M145.3,205.584a1.476,1.476,0,0,0,.244-.541.5.5,0,0,0-.213-.52.446.446,0,0,0-.288-.04.552.552,0,1,0,.25,1.074Z" transform="translate(-126.001 -192.78)"/><path class="a" d="M148.893,201.4a1.22,1.22,0,0,0,.332-1.024,1.259,1.259,0,0,0-.487.1.43.43,0,0,0-.255.4c.023.227.268.354.479.438l-.174.075Z" transform="translate(-126.738 -192.004)"/><path class="a" d="M137.7,199.312c-.2,0-.326.218-.394.409s-.155.414-.352.46a.174.174,0,0,1-.157-.029c-.105-.095.008-.259.046-.4a1.44,1.44,0,0,0,.013-.34.679.679,0,0,1,.469-.6.374.374,0,0,1,.154.669Z" transform="translate(-124.519 -191.709)"/><path class="a" d="M152.675,211.647l-.23-.037a.281.281,0,0,0,.02.352.235.235,0,0,0,.339-.012.2.2,0,0,0-.1-.307Z" transform="translate(-127.478 -194.129)"/><path class="a" d="M144.068,199.318l.038-.24a.51.51,0,0,0-.367-.014c-.112.055-.152.245-.04.3a.254.254,0,0,0,.139.011l.449-.049Z" transform="translate(-125.821 -191.751)"/></g></g><path class="c" d="M231.74,46.111l2.364,1.013L231.74,73.593l-2.026.906-11.145,1.116-.844,4.654-8.109-6.675Z" transform="translate(-2733.476 -2495.942)"/><path class="d" d="M129.548,217.464c-.963,5.628-5.241,18.63-9.078,17.259-.83-.294-1.7-1.344-2.561-2.887-2.62-4.692-5.2-13.924-6.477-20.167-.695-3.4-1.009-5.923-.728-6.33,1.711-2.533,17.961,8.449,18.93,9.673A4.927,4.927,0,0,1,129.548,217.464Z" transform="translate(-2714.749 -2525.987)"/><path class="e" d="M161.312,209.385c-.06.521-.133,1.063-.207,1.624-1.15,8.55-3.522,21.1-6.076,25.669-.609,1.1-1.23,1.731-1.846,1.744a1.418,1.418,0,0,1-.495-.073,4.241,4.241,0,0,1-1.8-1.331v-.007c-3.87-4.345-8.242-17.54-8.4-21.477a1.793,1.793,0,0,1,.148-1c2.206-2.995,18.188-13.215,19.077-12C161.948,202.861,161.774,205.583,161.312,209.385Z" transform="translate(-2720.78 -2525.509)"/><path class="f" d="M110.692,205.318c-1.8,2.351,12.859,12.989,19.04,10.21C129.731,215.528,113.081,202.194,110.692,205.318Z" transform="translate(-2714.738 -2525.965)"/><path class="f" d="M142.488,215.556c-.486,1.2,16.439-1.55,19.223-13C161.711,202.56,147.076,204.272,142.488,215.556Z" transform="translate(-2720.778 -2525.533)"/><path class="g" d="M117.114,215.217c-.822,1.016.195,14.184,3.356,19.505-.83-.294-1.7-1.344-2.561-2.887-.514-2.306-1.276-5.729-2-9.144a41.644,41.644,0,0,0-4.479-11.023c-.695-3.4-1.009-5.923-.728-6.33,1.711-2.533,17.961,8.449,18.93,9.673a4.927,4.927,0,0,1-.087,2.453S117.936,214.208,117.114,215.217Z" transform="translate(-2714.749 -2525.987)"/><path class="h" d="M153.816,223.5c-.691.213-.851,5.727.3,6.032S155.414,223,153.816,223.5Z" transform="translate(-2722.82 -2529.488)"/><path class="i" d="M161.312,209.385s-9.258,2.741-11.4,7.132-1.337,14.813.969,20.495c-3.87-4.345-8.242-17.54-8.4-21.477a1.793,1.793,0,0,1,.148-1c2.206-2.995,18.188-13.215,19.077-12C161.948,202.861,161.774,205.583,161.312,209.385Z" transform="translate(-2720.78 -2525.509)"/><path class="j" d="M110.577,156.422c-.019,4.886-.7,11.952-2.921,17.661-3.67,9.451-9.185,21.35-9.352,21.725l-.006.006c-3.369,2.052-7.4,1.945-9.966,1.571a17.433,17.433,0,0,1-2.574-.555,77.487,77.487,0,0,1,7.092-23.095,94.294,94.294,0,0,1,10.081-16.122.362.362,0,0,0,.046-.06c.034-.054.08-.107.121-.161.027-.034.046-.06.067-.088a.28.28,0,0,0,.06-.08c.034-.04.061-.073.088-.106.006-.007.013-.014.013-.02l.014-.014c3.335-4.231,6.043-6.8,6.611-6.484C110.29,150.787,110.591,153.1,110.577,156.422Z" transform="translate(-2710.051 -2515.7)"/><path class="f" d="M85.82,205.625s4.339-7.157,8.814-6.228,3.672,5.635,3.672,5.635A12.347,12.347,0,0,1,85.82,205.625Z" transform="translate(-2710.062 -2524.918)"/><path class="k" d="M110.577,157.786c-.019,4.886-.7,11.952-2.921,17.661-3.67,9.451-9.185,21.35-9.352,21.725l-.006.007-9.966,1.571a17.426,17.426,0,0,1-2.574-.555,77.488,77.488,0,0,1,7.092-23.1,94.293,94.293,0,0,1,10.081-16.122c-1.879,2.48-9.739,13.275-11.852,22.446-2.407,10.434,7.3,6.417,11.269,0s8.109-23.637,8.109-23.637Z" transform="translate(-2710.051 -2517.064)"/><path class="h" d="M102.966,176.11c-.791-.3,3.293-9.541,4.559-9.625S103.642,176.364,102.966,176.11Z" transform="translate(-2713.286 -2518.709)"/><path class="h" d="M102.276,179.562c-.624-.331-1.212,1.4-.642,1.652S102.982,179.936,102.276,179.562Z" transform="translate(-2713.01 -2521.175)"/><path class="l" d="M93.135,202.067c-2.316-.378-5.682,1.79-6.733,3.736s-1.6,13.154,1.051,22.416c0,0,3.736,1.012,6.538,0s4.748-9.184,4.9-15.333S96.949,202.69,93.135,202.067Z" transform="translate(-2710.008 -2525.431)"/><path class="f" d="M94.308,229.171s-3.412-19.726,4.343-23.756c0,0,2.307,3.909,1.451,11.536S97.931,228.47,94.308,229.171Z" transform="translate(-2711.526 -2526.073)"/><path class="m" d="M93.788,219.908s1.994,2.913,3.355,3.389a3.429,3.429,0,0,0,2.425-.026l-5.032-8.955A22.879,22.879,0,0,0,93.788,219.908Z" transform="translate(-2711.565 -2527.756)"/><path class="n" d="M94.716,212.729s1.105-5.464,4.405-6.8c0,0,3.066,3.025,2.288,14.777,0,0-1.713,2.257-4.126,0A29.555,29.555,0,0,1,94.716,212.729Z" transform="translate(-2711.745 -2526.17)"/><path class="h" d="M96.956,211.94c-1.121,0,.584,4.962,1.168,4.845S97.89,211.94,96.956,211.94Z" transform="translate(-2712.098 -2527.307)"/><path class="o" d="M109.025,70.927s-5.072-4.376-11.278-5.136c0,0-1.9.928-4.1,7.768s1.857,20.349,1.857,20.349Z" transform="translate(-2711.42 -2499.665)"/><path class="f" d="M95.886,69.2a10.223,10.223,0,0,1,2.407-3.41s5.105,4.713,4.9,15.972l-1.473,1.524Z" transform="translate(-2711.966 -2499.665)"/><path class="p" d="M164.522,70.927s5.071-4.376,11.278-5.136c0,0,1.9.928,4.1,7.768s-1.858,20.349-1.858,20.349Z" transform="translate(-2724.948 -2499.665)"/><path class="f" d="M177.259,65.791a21.924,21.924,0,0,0-5.023,14.059l1.942,1.224,5.657-11.71S177.958,65.688,177.259,65.791Z" transform="translate(-2726.407 -2499.664)"/><path class="q" d="M174.365,80.911s-1.335-7.41,3.54-12.855c0,0,5.51,2.6,7.789,12.222a16.679,16.679,0,0,1-3.655,15.4Z" transform="translate(-2726.778 -2500.093)"/><path class="r" d="M100.117,80.911s1.336-7.41-3.54-12.855c0,0-5.51,2.6-7.79,12.222a16.682,16.682,0,0,0,3.655,15.4Z" transform="translate(-2710.525 -2500.093)"/><path class="s" d="M165.351,120.55c-11.316,15.869-64.5,14.692-71.43,1.858-4.519-8.382-4.024-20.982.328-32.58C99.958,74.607,112.317,61.1,128.708,61.1c19.291,0,34.111,19.218,38.576,36.771C169.543,106.76,169.155,115.216,165.351,120.55Z" transform="translate(-2710.995 -2498.778)"/><path class="t" d="M99.36,106.717c2.533,10.807,49.284,11.985,60.767,2.19s-5.052-44.59-30.382-43.071C106.576,67.227,95.211,89.014,99.36,106.717Z" transform="translate(-2712.464 -2499.664)"/><path class="u" d="M99.06,105.1c2.533,10.808,49.284,11.985,60.768,2.19s-5.052-44.59-30.383-43.071C106.276,65.608,94.911,87.4,99.06,105.1Z" transform="translate(-2712.407 -2499.358)"/><path class="v" d="M165.351,127.248c-11.316,15.869-64.5,14.692-71.43,1.858-4.519-8.382-4.024-20.982.328-32.58a.006.006,0,0,1,.006-.007c-.187.682-4.645,16.938-.093,24.091,4.652,7.312,23.061,6.3,42.82,5.455s26.3-3.717,29.613-9.292c2.613-4.385-.014-14.064-1.25-17.981l1.939,5.781C169.543,113.458,169.155,121.914,165.351,127.248Z" transform="translate(-2710.995 -2505.477)"/><path class="w" d="M131.186,146.257c-11.056-.013-19.024-1.256-23.483-3.041H107.7c-2.928-1.17-4.345-2.567-4.138-4,.127-.876,2.3-1.644,5.715-2.273,10.04-1.818,30.823-2.366,42.019-.668.963.147,1.859.307,2.667.487.174.041.341.08.5.121l.094.019c1.931.475,3.3,1.057,3.91,1.765a1.479,1.479,0,0,1,.315.548C159.823,142.795,141.173,146.264,131.186,146.257Z" transform="translate(-2713.414 -2512.802)"/><path class="x" d="M158.653,138.33a1.32,1.32,0,0,1-.187.334c-1.083,1.531-5.474,3.5-5.474,3.5s-16.878-6.9-30.561-3.836-14.726,4.886-14.726,4.886H107.7c-2.928-1.17-4.345-2.567-4.138-4,.127-.876,2.3-1.644,5.715-2.273,10.04-1.818,30.823-2.366,42.019-.668,1.169.207,2.232.414,3.168.608l.094.019C157.209,137.474,158.78,137.982,158.653,138.33Z" transform="translate(-2713.414 -2512.802)"/><path class="y" d="M155.3,136.759c-2.613,2.5-15.147,4.659-22.292,4.653-12.808-.02-20.589-2.038-22.394-4.472C121.515,134.967,145.1,134.487,155.3,136.759Z" transform="translate(-2714.751 -2512.801)"/><path class="z" d="M154.518,187.862c-1.545,9.117-9.706,15.193-21.411,15.193-10.187,0-18.816-3.8-21.1-12.159s-1.4-23.81,1.644-33.435a31.2,31.2,0,0,1,1.638-4.138l.006-.014a28.288,28.288,0,0,1,1.926-3.389.021.021,0,0,0,.007-.014c3.716-5.595,9.158-9.251,15.307-9.251a18.659,18.659,0,0,1,14.639,6.531,21.389,21.389,0,0,1,3.637,6.116,60.836,60.836,0,0,1,2.513,8.054.519.519,0,0,0,.014.08A68.166,68.166,0,0,1,154.518,187.862Z" transform="translate(-2714.773 -2513.824)"/><path class="aa" d="M154.874,147.815s1,10.829,7.357,17.417C162.231,165.231,160.47,155.136,154.874,147.815Z" transform="translate(-2723.123 -2515.178)"/><path class="ab" d="M190.974,129.172a57.256,57.256,0,0,1-27.547,26.511c-4.834-3.128-9.044-13.343-7.38-15.334l.006-.007a.853.853,0,0,1,.3-.234c21.443-10.261,27.86-20.9,27.86-20.9a6.353,6.353,0,0,1,5.494,3.837A14.583,14.583,0,0,1,190.974,129.172Z" transform="translate(-2723.275 -2509.767)"/><path class="x" d="M94.036,134.1a21.677,21.677,0,0,1,6.652-4.731c4.407-2.111,8.458-3.764,9.084-5.46s-12.088-.7-12.088-.7l-6.329,2.746A34.273,34.273,0,0,0,94.036,134.1Z" transform="translate(-2711.109 -2510.469)"/><path class="f" d="M190.594,119.171c-1.785.476-1.6,12.328.675,13.51s6.08-3.547,6.08-3.547S196.927,117.482,190.594,119.171Z" transform="translate(-2729.651 -2509.729)"/><path class="q" d="M149.038,90.6c1.689,2.975,12.879.331,13.51-1.435.844-2.364-2.281-9.794-8.191-9.119S148.219,89.159,149.038,90.6Z" transform="translate(-2721.954 -2502.353)"/><path class="ac" d="M124.373,90.6c-1.689,2.975-12.879.331-13.51-1.435-.844-2.364,2.281-9.794,8.191-9.119S125.192,89.159,124.373,90.6Z" transform="translate(-2714.773 -2502.353)"/><path class="ad" d="M123.712,99.724s3.19,3.293,12.234,3.293,13.687-3.8,13.687-3.8-3.986,5.4-13.687,5.4S123.712,99.724,123.712,99.724Z" transform="translate(-2717.229 -2505.987)"/><path class="ae" d="M84.709,87.367s3.28,2.111,1.129,7c0,0-15.323,8.345-14.436,17.439.74,7.589,21.911,3.915,21.911,3.915l.76,2.533s-17.985,3.518-24.191-.711c0,0-2.111-5.012,3.124-14.047A105.234,105.234,0,0,1,84.709,87.367Z" transform="translate(-2706.968 -2503.745)"/><path class="af" d="M95.456,120.687c-1.929,2.182,2.165,4.57,5.531,4.937,3.777.411,10.485-1.083,10.08-4.887S99.979,115.571,95.456,120.687Z" transform="translate(-2711.791 -2509.416)"/><path class="ag" d="M108.71,78.074c-.584,3.5,7.206,3.349,17.815,3,12.75-.422,25.561,10.554,33.015,2.677,1.228-1.3-10.978-18.344-25.712-17.962S109.217,75.034,108.71,78.074Z" transform="translate(-2714.386 -2499.662)"/><path class="ah" d="M117.618,118.028c-.673,2.537,4.635,5.075,17.688,4.436,15.781-.773,19.132-4.079,18.356-4.995-.465-.55-5.193,2.428-18.154-.414C126.949,115.179,118.327,115.358,117.618,118.028Z" transform="translate(-2716.066 -2509.125)"/><path class="ai" d="M182.523,98.642l-.381-1.149C182.216,97.714,182.356,98.108,182.523,98.642Z" transform="translate(-2728.28 -2505.66)"/><path class="aj" d="M154.518,190.814c-1.545,9.117-9.706,15.193-21.411,15.193-10.187,0-18.816-3.8-21.1-12.159s-1.4-23.81,1.644-33.435a31.2,31.2,0,0,1,1.638-4.138l.006-.014s-6.163,20.435-1.237,33.449,27.881,12.741,35.649,4.091c7.393-8.229,3.976-27.56,3.629-29.412A68.166,68.166,0,0,1,154.518,190.814Z" transform="translate(-2714.773 -2516.776)"/><path class="f" d="M112.808,187.632c1.743-12.236,11.558-20.53,22.46-19.5,11.752,1.109,18.069,12.328,17.9,21.953s-7.2,17.14-19.814,17.14S111.179,199.075,112.808,187.632Z" transform="translate(-2715.132 -2519.004)"/><path class="ak" d="M112.944,188.881c1.743-12.236,11.558-20.53,22.46-19.5,11.752,1.109,18.068,12.328,17.9,21.953s-7.2,17.14-19.813,17.14S111.315,200.325,112.944,188.881Z" transform="translate(-2715.158 -2519.241)"/><path class="al" d="M148.673,147.187c-2.493,3.911-16.217,6.187-24.149,5.463-6.905-.631-5.857-2.5-5.8-2.729a.021.021,0,0,0,.006-.014c3.716-5.595,9.158-9.251,15.307-9.251A18.659,18.659,0,0,1,148.673,147.187Z" transform="translate(-2716.269 -2513.824)"/><path class="h" d="M149.55,157.065c-.637.211-.668,5.355,0,6.184s1.74.574,2.1-.637S150.516,156.747,149.55,157.065Z" transform="translate(-2722.023 -2516.925)"/><path class="h" d="M151,166.384c-.532.126-.594,1.4-.348,1.849a.785.785,0,0,0,1.321-.191C152.128,167.5,151.541,166.256,151,166.384Z" transform="translate(-2722.299 -2518.689)"/><path class="am" d="M121.5,208.389s2.817,4.9,13.306,4.945,14.755-6.206,14.755-6.206a15.3,15.3,0,0,1-11.76,1.26C130.878,206.5,124.034,205.43,121.5,208.389Z" transform="translate(-2716.81 -2526.287)"/><path class="h" d="M148.671,63.848c-1.121.26,8.282,5.235,8.662,4.644S151.772,63.126,148.671,63.848Z" transform="translate(-2721.932 -2499.283)"/><path class="h" d="M170.773,68.243c-.937.506-.863,1.517,1.078,1.263s3-1.773,2.784-2.069S171.824,67.675,170.773,68.243Z" transform="translate(-2726.019 -2499.96)"/><path class="an" d="M190.974,129.389A57.256,57.256,0,0,1,163.427,155.9c-4.834-3.128-9.044-13.343-7.38-15.334l.006-.007a2.513,2.513,0,0,1,.3-.234s3.137,11.521,12.328,8.324c10.9-3.792,15.366-22.742,15.366-22.742v-5.555l5.661,2.908A14.583,14.583,0,0,1,190.974,129.389Z" transform="translate(-2723.275 -2509.984)"/><path class="ao" d="M190.09,118.447s-.084,6.249,3.462,7.262,7.979-5.612,9.626-8.358,4.137-15.115,1.773-18.071-6.924-2.2-9.964,1.942C194.987,101.223,190.259,113.128,190.09,118.447Z" transform="translate(-2729.783 -2505.661)"/><path class="f" d="M190.326,116.593a14.687,14.687,0,0,0,5.044-7.941c.928-4.812,5.913-11.157,5.913-11.157s-2.62-.242-6.251,3.727S190.326,116.593,190.326,116.593Z" transform="translate(-2729.828 -2505.66)"/><path class="ap" d="M194.975,103.107l3.144,1.186a20.539,20.539,0,0,0-1.96,4.585,21.279,21.279,0,0,1-2.7,5.293Z" transform="translate(-2730.421 -2506.722)"/><path class="aq" d="M190.037,115.829a19.679,19.679,0,0,1-1.226-6.924c-.148-4.559.933-8.148,1.44-8.781s2.279-.549,3.124.465,1.451,6.026,1.451,6.026S193.691,114.731,190.037,115.829Z" transform="translate(-2729.539 -2506.082)"/><path class="f" d="M196.546,111.06s2.112,6.964,7.2,9.751l.654-1.053a18.236,18.236,0,0,1-7.655-9.535Z" transform="translate(-2731.005 -2508.068)"/><path class="h" d="M191.9,104.423c-.51-.06-.338,4.43.3,4.242S192.617,104.507,191.9,104.423Z" transform="translate(-2730.069 -2506.971)"/><path class="ar" d="M95.887,121.142c-.115.622,13.367.772,13.684-1.611S96.773,116.329,95.887,121.142Z" transform="translate(-2711.966 -2509.469)"/><path class="as" d="M99.924,106.442a34.339,34.339,0,0,1,.1-8.616c.647-4.939,1.974-8.129,2.763-7.681s.668,5.284,1.134,10.051c.363,3.708,1.076,7.189,1.076,7.189S101.585,110.647,99.924,106.442Z" transform="translate(-2712.689 -2504.263)"/><path class="at" d="M199.7,45.882s-.079,19.089,1.369,28.333l14.78,5.825L213.484,75.9l14.355-1.628s1.52-21.465,2.026-28.389C229.865,45.882,218.55,43.687,199.7,45.882Z" transform="translate(-2731.601 -2495.715)"/><path class="au" d="M182.485,73.028s-1.787-2.214-4.221-1.625-2.6,8.26-1.14,8.45,2.074-4.243,3.19-4.94a5.573,5.573,0,0,1,3.067-.426Z" transform="translate(-2727.155 -2500.707)"/><path class="av" d="M91.16,75.318a3.335,3.335,0,0,1,3.05-.72c2.111.345,3.327,4.677,4.408,4.242s.288-7.453-2.566-9.517C96.052,69.323,92.372,72.464,91.16,75.318Z" transform="translate(-2711.072 -2500.333)"/><path class="aw" d="M85.985,89.319s-7.466,8.388-7.012,8.986S86.432,90.186,85.985,89.319Z" transform="translate(-2708.763 -2504.115)"/><path class="h" d="M.456,0V-10.308H2.508v3.684H3.48v-3.684H5.532V0H3.48V-4.68H2.508V0ZM8.9.1a2.35,2.35,0,0,1-1.9-.762A3.209,3.209,0,0,1,6.36-2.808V-7.716a2.8,2.8,0,0,1,.648-2.01A2.5,2.5,0,0,1,8.9-10.4a2.5,2.5,0,0,1,1.9.678,2.8,2.8,0,0,1,.648,2.01v4.908A3.2,3.2,0,0,1,10.8-.66,2.36,2.36,0,0,1,8.9.1Zm0-1.9a.365.365,0,0,0,.372-.24,1.87,1.87,0,0,0,.1-.672v-5.04a1.4,1.4,0,0,0-.09-.546.357.357,0,0,0-.366-.21q-.516,0-.516.78V-2.7a1.628,1.628,0,0,0,.108.672A.4.4,0,0,0,8.9-1.8ZM12.276,0V-10.308H14.34v8.556h2.124V0Zm4.488,0,1-10.308h3.492L22.236,0H20.28l-.144-1.668H18.888L18.768,0Zm2.28-3.312h.936l-.456-5.244h-.1Zm4.092.5-.408-7.5h2.1l-.42,7.5ZM22.728,0V-1.752h2.1V0Z" transform="translate(-2529.108 -2434.989)"/><path class="ax" d="M118.116,181.488c2.072,3.306,10.6,1.546,20.2,2.483s11.246,4.062,13.272,3.429-1.175-15.1-15.528-16.076S117.6,180.666,118.116,181.488Z" transform="translate(-2716.163 -2519.612)"/></g><g transform="translate(-2355 -2517.38)"><g transform="translate(0 0)"><path class="ay" d="M31.675,5.722C31.675,1.5,27.34.058,23.583.058c-2.6,0-8.728.636-9.075,6.416a.822.822,0,0,0,.116.347c.058.116.173.116.289.116h4.451a.4.4,0,0,0,.4-.4c.173-2.023,2.023-2.485,3.584-2.485,2.2,0,3.295.694,3.295,2.023,0,1.387-1.1,1.618-3.295,1.907-.578.058-1.156.173-1.734.231-2.717.289-7.745.867-7.745,6.069C13.872,18.034,17.4,20,20.924,20a9.791,9.791,0,0,0,6.358-2.2,6.633,6.633,0,0,1,4.046-1.676c.116,0,.173-.058.289-.116.058-.058.116-.173.058-.231a1.611,1.611,0,0,1-.058-.578ZM22.427,16.011c-1.965,0-3.063-.636-3.237-1.907-.231-1.676,1.445-2.312,2.89-2.543a11.37,11.37,0,0,1,1.387-.173h.058a11.143,11.143,0,0,0,2.89-.578v2.254C26.473,15.2,24.045,16.011,22.427,16.011ZM12.6.636V10.693c0,4.219-.983,9.075-8.67,9.075H.347A.333.333,0,0,1,0,19.421V15.259a.31.31,0,0,1,.289-.289H4.277c2.543,0,3.063-1.561,3.063-4.393V.636A.412.412,0,0,1,7.8.231H12.2A.4.4,0,0,1,12.6.636ZM61.962,6.185V19.248a.412.412,0,0,1-.462.4H57.107a.4.4,0,0,1-.4-.4V7.4c0-.925-.231-3.41-3.121-3.352-2.659,0-2.948,2.2-2.948,3.41V19.305a.49.49,0,0,1-.4.462H45.836a.4.4,0,0,1-.4-.4V7.514c0-1.214-.289-3.41-2.948-3.41-2.89,0-3.121,2.485-3.121,3.41V19.363a.412.412,0,0,1-.462.4H34.507a.434.434,0,0,1-.4-.4V6.3C34.1,2.312,37.57.173,42.483.173a8.432,8.432,0,0,1,4.393,1.04,2.776,2.776,0,0,0,1.156.4,2.776,2.776,0,0,0,1.156-.4A8.786,8.786,0,0,1,53.581.173C58.494.058,61.962,2.2,61.962,6.185Zm19.248-.52C81.21,1.445,76.875,0,73.176,0c-2.6,0-8.728.636-9.075,6.416a.425.425,0,0,0,.116.347c.058.116.173.116.289.116H68.9a.49.49,0,0,0,.462-.4c.173-2.023,2.023-2.485,3.526-2.485,2.2,0,3.295.694,3.295,2.023,0,1.387-1.04,1.561-3.295,1.85-.578.058-1.156.116-1.734.231-2.717.289-7.8.925-7.745,6.069,0,3.757,3.526,5.722,7.052,5.722a9.94,9.94,0,0,0,6.416-2.2,6.325,6.325,0,0,1,4.1-1.676.3.3,0,0,0,.231-.116.433.433,0,0,0,.058-.289,1.611,1.611,0,0,1-.058-.578ZM71.962,15.9c-1.965,0-3.063-.636-3.237-1.907-.231-1.676,1.445-2.312,2.89-2.543.462-.116.925-.116,1.445-.231h.058a10.672,10.672,0,0,0,2.89-.578V12.89C76.008,15.086,73.58,15.9,71.962,15.9ZM96.065.4V4.566a.324.324,0,0,1-.347.289h-3.93c-2.543,0-3.063,1.561-3.063,4.393V19.19a.412.412,0,0,1-.462.4H83.869a.4.4,0,0,1-.4-.4V9.132c0-4.219.983-9.075,8.612-9.075H95.66C95.891.116,96.065.231,96.065.4Z" transform="translate(0 16.069)"/><path class="ay" d="M22.716.347v2.89a.212.212,0,0,1-.231.231H19.71c-1.85,0-2.2,1.1-2.2,3.121v6.994a.273.273,0,0,1-.289.289H14.1a.273.273,0,0,1-.289-.289V6.531c0-2.948.694-6.358,6.069-6.358h2.543C22.658.116,22.716.173,22.716.347ZM8.959,9.479c.058-.173.173-.289.289-.289h3.121a.231.231,0,0,1,.231.116.438.438,0,0,1,.116.231c-.231,4.1-4.566,4.508-6.358,4.508a6.671,6.671,0,0,1-4.74-1.618A6.658,6.658,0,0,1,0,7.456V6.589C0,4.8.231,2.89,1.561,1.618A6.671,6.671,0,0,1,6.3,0c1.85,0,6.127.4,6.416,4.508a.231.231,0,0,1-.116.231c-.058.058-.116.058-.231.058H9.248a.31.31,0,0,1-.289-.289C8.786,3.063,7.514,2.774,6.474,2.774a2.585,2.585,0,0,0-2.2.751,6.7,6.7,0,0,0-.636,3.063v.751a6.277,6.277,0,0,0,.636,3.006c.4.578,1.04.809,2.2.809C7.514,11.213,8.786,10.924,8.959,9.479ZM54.622.347a.273.273,0,0,0-.289-.289H51.211a.324.324,0,0,0-.347.289V13.468a.273.273,0,0,0,.289.289h3.121a.273.273,0,0,0,.289-.289Zm-5.2,6.069V7.4c0,2.948-.694,6.358-6.069,6.416H37.8a.366.366,0,0,1-.347-.289V.4c0-.173.116-.289.347-.289H43.35C48.726.058,49.42,3.468,49.42,6.416Zm-3.7.116c0-2.023-.347-3.641-2.139-3.641H41.154v8.092h2.428c1.792,0,2.139-1.618,2.139-3.584ZM36.01,5.78V8.034a.348.348,0,0,1-.058.231.438.438,0,0,1-.231.116H26.993a3.618,3.618,0,0,0,.4,2.081c.4.578,1.272.751,2.428.751.925,0,2.37-.231,2.485-1.445a.31.31,0,0,1,.289-.289h3.121a.438.438,0,0,1,.231.116c.058.058.058.116.058.231-.231,3.815-4.624,4.219-6.3,4.219a6.911,6.911,0,0,1-4.8-1.618c-1.329-1.272-1.561-3.179-1.561-4.971V6.589c0-1.792.231-3.7,1.561-4.971A6.764,6.764,0,0,1,29.652,0c1.85,0,6.127.4,6.358,4.508Zm-8.67-2.2a3.745,3.745,0,0,0-.347,1.965h5.26V4.624c0-1.445-1.445-1.792-2.485-1.792A3.135,3.135,0,0,0,27.34,3.584Z" transform="translate(7.341)"/></g><g transform="translate(97.51 16.3)"><path class="ay" d="M0,2.312H0A2.282,2.282,0,0,1,2.312,0,2.257,2.257,0,0,1,4.566,2.254h0A2.257,2.257,0,0,1,2.312,4.508,2.189,2.189,0,0,1,0,2.312Zm4.335,0h0a2.024,2.024,0,1,0-4.046,0h0A1.975,1.975,0,0,0,2.312,4.335,2.048,2.048,0,0,0,4.335,2.312ZM1.329,1.04h1.1a1.1,1.1,0,0,1,.694.231.733.733,0,0,1,.231.52h0a.687.687,0,0,1-.578.694l.636.925H2.89L2.312,2.6H1.85V3.41H1.387ZM2.37,2.2a.412.412,0,0,0,.462-.4h0c0-.231-.173-.347-.462-.347H1.792V2.2Z" transform="translate(0 0)"/></g></g><path class="az" d="M-52.354-2.988h-4.841L-58.293,0h-.945L-55.2-10.664h.857L-50.31,0h-.937Zm-4.563-.769h4.277l-2.139-5.808Zm14.209,1.135a1.726,1.726,0,0,0-.623-1.4,6.574,6.574,0,0,0-2.278-.981,7.983,7.983,0,0,1-2.417-1.014,2.394,2.394,0,0,1-1.084-2.036A2.386,2.386,0,0,1-48.1-10.045a4.136,4.136,0,0,1,2.574-.765,4.27,4.27,0,0,1,1.9.41,3.11,3.11,0,0,1,1.3,1.143,3,3,0,0,1,.461,1.633h-.908a2.231,2.231,0,0,0-.747-1.754,2.914,2.914,0,0,0-2.007-.663,3.165,3.165,0,0,0-1.948.546A1.7,1.7,0,0,0-48.2-8.071a1.611,1.611,0,0,0,.652,1.326,6.047,6.047,0,0,0,2.087.9,9.794,9.794,0,0,1,2.175.813,3.1,3.1,0,0,1,1.113,1.007A2.52,2.52,0,0,1-41.8-2.637,2.41,2.41,0,0,1-42.806-.615a4.289,4.289,0,0,1-2.655.762,5.2,5.2,0,0,1-2.069-.4,3.16,3.16,0,0,1-1.428-1.128,2.912,2.912,0,0,1-.487-1.663h.9a2.129,2.129,0,0,0,.842,1.78,3.565,3.565,0,0,0,2.241.652,3.322,3.322,0,0,0,2-.549A1.717,1.717,0,0,0-42.708-2.622Zm8.738-2.49h-4.988V-.762h5.735V0h-6.636V-10.664h6.6V-9.9h-5.7v4.021h4.988Zm8.679,2.49a1.726,1.726,0,0,0-.623-1.4,6.574,6.574,0,0,0-2.278-.981,7.983,7.983,0,0,1-2.417-1.014,2.394,2.394,0,0,1-1.084-2.036,2.386,2.386,0,0,1,1.007-1.989,4.136,4.136,0,0,1,2.574-.765,4.27,4.27,0,0,1,1.9.41,3.11,3.11,0,0,1,1.3,1.143,3,3,0,0,1,.461,1.633h-.908A2.231,2.231,0,0,0-26.1-9.379a2.914,2.914,0,0,0-2.007-.663,3.165,3.165,0,0,0-1.948.546,1.7,1.7,0,0,0-.725,1.425,1.611,1.611,0,0,0,.652,1.326,6.047,6.047,0,0,0,2.087.9,9.794,9.794,0,0,1,2.175.813,3.1,3.1,0,0,1,1.113,1.007,2.52,2.52,0,0,1,.374,1.384A2.41,2.41,0,0,1-25.389-.615a4.289,4.289,0,0,1-2.655.762,5.2,5.2,0,0,1-2.069-.4,3.16,3.16,0,0,1-1.428-1.128,2.912,2.912,0,0,1-.487-1.663h.9a2.129,2.129,0,0,0,.842,1.78,3.565,3.565,0,0,0,2.241.652,3.322,3.322,0,0,0,2-.549A1.717,1.717,0,0,0-25.291-2.622Zm10.73-2.131a6.161,6.161,0,0,1-.509,2.585A3.884,3.884,0,0,1-16.523-.454a3.981,3.981,0,0,1-2.183.6A3.788,3.788,0,0,1-21.724-1.19,5.344,5.344,0,0,1-22.874-4.8V-5.9a6.124,6.124,0,0,1,.516-2.582A3.944,3.944,0,0,1-20.9-10.206a3.949,3.949,0,0,1,2.175-.6,3.986,3.986,0,0,1,2.172.593A3.9,3.9,0,0,1-15.1-8.54a6.036,6.036,0,0,1,.535,2.512Zm-.9-1.157a4.713,4.713,0,0,0-.872-3.018,2.89,2.89,0,0,0-2.388-1.091A2.886,2.886,0,0,0-21.09-8.925a4.751,4.751,0,0,0-.883,3.058v1.113a4.713,4.713,0,0,0,.879,3.007,2.884,2.884,0,0,0,2.388,1.11,2.861,2.861,0,0,0,2.388-1.095,4.838,4.838,0,0,0,.857-3.051Zm7.156,1.472h-3.1V0h-.908V-10.664h3.464a3.952,3.952,0,0,1,2.666.828,2.893,2.893,0,0,1,.959,2.314,2.892,2.892,0,0,1-.6,1.809A3.071,3.071,0,0,1-7.434-4.629L-4.768-.1V0h-.959Zm-3.1-.769h2.761a2.561,2.561,0,0,0,1.824-.645,2.184,2.184,0,0,0,.688-1.67,2.193,2.193,0,0,0-.718-1.75A2.977,2.977,0,0,0-8.862-9.9H-11.4Zm15.7,2.314.073.388h.044l.073-.359,2.117-7.8H9.192L5.735,0H3.062L-.381-10.664H2.2ZM12.664,0H10.2V-10.664h2.468Zm4.329-4.087V0H14.517V-10.664H18.23a4.61,4.61,0,0,1,2.937.857,2.826,2.826,0,0,1,1.084,2.344,2.334,2.334,0,0,1-.436,1.421,3.09,3.09,0,0,1-1.285.967,2.386,2.386,0,0,1,1.41.927,2.868,2.868,0,0,1,.428,1.615v.674a4.252,4.252,0,0,0,.125.952,1.26,1.26,0,0,0,.432.762V0H20.369a1.2,1.2,0,0,1-.381-.8A7.1,7.1,0,0,1,19.9-1.875V-2.52a1.577,1.577,0,0,0-.4-1.165,1.6,1.6,0,0,0-1.179-.4Zm0-1.9h1.252a1.7,1.7,0,0,0,1.143-.341,1.22,1.22,0,0,0,.4-.978,1.407,1.407,0,0,0-.406-1.051,1.567,1.567,0,0,0-1.146-.4H16.992ZM31.135-8.76h-2.82V0H25.84V-8.76H23.071v-1.9h8.064Zm9.741-1.9V-3.75A3.566,3.566,0,0,1,39.661-.883,4.719,4.719,0,0,1,36.489.154,4.771,4.771,0,0,1,33.3-.883,3.556,3.556,0,0,1,32.073-3.75v-6.914h2.483V-3.75a2.009,2.009,0,0,0,.513,1.494,1.937,1.937,0,0,0,1.421.505,1.9,1.9,0,0,0,1.4-.5,2.033,2.033,0,0,0,.5-1.5v-6.914Zm7.061,8.591H44.766L44.15,0H41.543l3.479-10.664h1.326v.007l.007-.007h1.326L51.167,0H48.56Zm-2.6-1.9h2.029l-1-3.311h-.044ZM54.4-1.9h4.578V0H51.929V-10.664H54.4Z" transform="translate(-2304 -2464)"/></g></svg>