<svg xmlns="http://www.w3.org/2000/svg" xmlns:xlink="http://www.w3.org/1999/xlink" width="175.367" height="172.087" viewBox="0 0 175.367 172.087"><defs><style>.a{fill:#e6fffe;}.b{fill:url(#a);}.c{fill:url(#b);}.d{opacity:0.497;}.ah,.ak,.an,.d,.g,.l,.m,.r{mix-blend-mode:multiply;}.ad,.ae,.af,.ag,.ah,.ak,.an,.d,.g,.l,.m,.r{isolation:isolate;}.ah,.an,.d,.g,.i,.l{fill:url(#c);}.e{fill:url(#d);}.f{fill:url(#e);}.g{opacity:0.501;}.h{fill:url(#g);}.j{fill:url(#i);}.k{fill:url(#j);}.l{opacity:0.494;}.ad,.ae,.ak,.m{opacity:0.5;}.m,.s{fill:url(#l);}.n{fill:url(#m);}.o{fill:#dfe3fb;}.p{fill:url(#n);}.q{fill:url(#o);}.r{opacity:0.498;fill:url(#q);}.t{fill:url(#u);}.u{fill:#30858b;}.v{fill:url(#w);}.w{fill:url(#x);}.x{fill:url(#z);}.y{fill:url(#aa);}.z{fill:url(#ab);}.aa{fill:url(#ac);}.ab{fill:url(#ad);}.ac{fill:#2f95cd;}.ad,.ae,.af,.ag{mix-blend-mode:screen;}.ad{fill:url(#ag);}.ae{fill:url(#ai);}.af,.ag{opacity:0.72;}.af{fill:url(#aj);}.ag{fill:url(#ak);}.ah{opacity:0.499;}.ai{fill:url(#an);}.aj{fill:url(#ao);}.ak{fill:url(#ap);}.al{fill:url(#aq);}.am{fill:#fff;}.an{opacity:0.501;}.ao{fill:url(#au);}.ap{fill:url(#av);}</style><linearGradient id="a" x1="0.332" y1="1.003" x2="0.541" y2="0.035" gradientUnits="objectBoundingBox"><stop offset="0" stop-color="#5deae2"/><stop offset="1" stop-color="#39bfb8"/></linearGradient><linearGradient id="b" y1="0.5" x2="1" y2="0.5" gradientUnits="objectBoundingBox"><stop offset="0" stop-color="#39bfb8"/><stop offset="1" stop-color="#3da4ab"/></linearGradient><linearGradient id="c" x1="0.5" y1="1" x2="0.5" gradientUnits="objectBoundingBox"><stop offset="0" stop-color="#39bfb8"/><stop offset="1" stop-color="#5deae2"/></linearGradient><linearGradient id="d" x1="0.418" y1="1.039" x2="0.565" y2="-0.049" xlink:href="#c"/><linearGradient id="e" x1="0.58" y1="0.99" x2="0.434" y2="-0.003" gradientUnits="objectBoundingBox"><stop offset="0" stop-color="#3da4ab"/><stop offset="1" stop-color="#39bfb8"/></linearGradient><linearGradient id="g" x1="0.5" y1="1" x2="0.5" gradientUnits="objectBoundingBox"><stop offset="0" stop-color="#45ffcd"/><stop offset="1" stop-color="#22e0ff"/></linearGradient><linearGradient id="i" x1="0.457" y1="1.023" x2="0.569" y2="0.004" xlink:href="#c"/><linearGradient id="j" x1="0" y1="0.5" x2="1" y2="0.5" xlink:href="#e"/><linearGradient id="l" x1="0.5" y1="1" x2="0.5" y2="0" xlink:href="#b"/><linearGradient id="m" x1="0.603" y1="0.427" x2="0.627" y2="-0.538" gradientUnits="objectBoundingBox"><stop offset="0" stop-color="#358f95"/><stop offset="1" stop-color="#2b6e72"/></linearGradient><linearGradient id="n" x1="0.5" y1="1" x2="0.5" gradientUnits="objectBoundingBox"><stop offset="0" stop-color="#0665bd"/><stop offset="1" stop-color="#1a1f77"/></linearGradient><linearGradient id="o" x1="0.428" y1="1.002" x2="0.615" y2="0" xlink:href="#c"/><linearGradient id="q" x1="0.5" y1="1" x2="0.5" gradientUnits="objectBoundingBox"><stop offset="0" stop-color="#3da4ab"/><stop offset="1" stop-color="#5deae2"/></linearGradient><radialGradient id="u" cx="0.517" cy="0.845" r="0.623" gradientTransform="translate(-0.106) scale(1.212 1)" xlink:href="#g"/><linearGradient id="w" x1="0.377" y1="0.979" x2="0.613" y2="0.034" xlink:href="#c"/><linearGradient id="x" x1="0.41" y1="0.971" x2="0.643" y2="-0.017" xlink:href="#c"/><linearGradient id="z" x1="0.448" y1="1.044" x2="0.537" y2="-0.037" xlink:href="#c"/><linearGradient id="aa" x1="0.527" y1="1.093" x2="0.466" y2="-0.05" xlink:href="#b"/><linearGradient id="ab" x1="0.404" y1="1.021" x2="0.579" y2="-0.04" gradientUnits="objectBoundingBox"><stop offset="0" stop-color="#646464"/><stop offset="1" stop-color="#2b2b2b"/></linearGradient><linearGradient id="ac" x1="0.114" y1="-4.191" x2="0.114" y2="-5.252" gradientUnits="objectBoundingBox"><stop offset="0" stop-color="#535353"/><stop offset="1" stop-color="#5a5a5a"/></linearGradient><linearGradient id="ad" x1="0.933" y1="0.172" x2="0.933" y2="-0.633" gradientUnits="objectBoundingBox"><stop offset="0" stop-color="#6b646c"/><stop offset="1" stop-color="#5f5d5e"/></linearGradient><linearGradient id="ag" y1="0.5" x2="1" y2="0.5" gradientUnits="objectBoundingBox"><stop offset="0"/><stop offset="1" stop-color="#6a9bff"/></linearGradient><linearGradient id="ai" x1="0.5" y1="1" x2="0.5" y2="0" xlink:href="#ag"/><linearGradient id="aj" x1="0.5" y1="1" x2="0.5" gradientUnits="objectBoundingBox"><stop offset="0" stop-color="#d4e2ff"/><stop offset="1"/></linearGradient><linearGradient id="ak" y1="0.5" x2="1" y2="0.5" gradientUnits="objectBoundingBox"><stop offset="0"/><stop offset="1" stop-color="#d4e2ff"/></linearGradient><linearGradient id="an" x1="10.54" y1="0.847" x2="10.796" y2="-0.15" xlink:href="#c"/><linearGradient id="ao" x1="20.828" y1="0.837" x2="20.828" y2="-0.187" xlink:href="#b"/><linearGradient id="ap" x1="26.201" y1="0.556" x2="26.201" y2="-0.406" xlink:href="#b"/><linearGradient id="aq" x1="22.079" y1="0.711" x2="22.376" y2="-0.275" xlink:href="#c"/><linearGradient id="au" x1="0.488" y1="1.097" x2="0.547" y2="-0.015" xlink:href="#c"/><linearGradient id="av" x1="0.532" y1="0.934" x2="0.458" y2="0.052" xlink:href="#b"/></defs><g transform="translate(-295.852 -63.815)"><g transform="translate(295.852 52.994)"><path class="a" d="M296.875,143.84c-7.315,24.276,25.337,71.692,74.184,71.019,54.459-.751,97.733-47.406,100.061-86.644s-36.827-66.833-68.833-59.831-43.629,28.591-58.748,42.429C334.695,118.908,306.526,111.816,296.875,143.84Z" transform="translate(-295.852 -53.749)"/></g><g transform="translate(314.884 63.815)"><path class="b" d="M380.3,217.465c-.335,4.138-6.895,17.389-12.032,20.989-.008.008-.008.008-.008.015a3.746,3.746,0,0,1-2.756.859c-3.694-.71-5.474-18.4-5.646-28.368-.062-3.849.117-6.536.516-6.646C363.734,203.425,380.694,212.537,380.3,217.465Z" transform="translate(-318.263 -71.802)"/><path class="c" d="M380.324,218.809s-4.537,2.466-11.624-1.085c-5.539-2.774-9.237-11.812-8.3-13.414S382.886,212.388,380.324,218.809Z" transform="translate(-318.285 -71.796)"/><path class="d" d="M380.3,217.465c-.335,4.138-6.895,17.389-12.032,20.989,3.857-4.436,3.99-13.478,1.531-17.616-1.851-3.139-7.363-7.8-9.941-9.877-.062-3.849.117-6.536.516-6.646C363.734,203.425,380.694,212.537,380.3,217.465Z" transform="translate(-318.263 -71.802)"/><path class="e" d="M364.833,176.852s-19.482,11.057-24.065,10.611-2.545-10.862-2.545-10.862c.609-.718,1.288-1.46,2.015-2.225l.008-.009c7.324-7.73,19.825-17.584,27.008-22.277l.009-.008c3.022-1.975,5.106-3.037,5.458-2.639C375.382,152.4,364.833,176.852,364.833,176.852Z" transform="translate(-317.098 -68.904)"/><path class="f" d="M338.19,178.075s2.545-2.141,5.7.736-.1,9.781-3.156,10.126S335.842,182.551,338.19,178.075Z" transform="translate(-317.063 -70.379)"/><path class="g" d="M364.833,176.852s-19.482,11.057-24.065,10.611-2.545-10.862-2.545-10.862c.609-.718,1.288-1.46,2.015-2.225l.008-.009s4.763,2.811,13.539,1.468,13.469-23.745,13.469-23.745l.009-.008c3.022-1.975,5.106-3.037,5.458-2.639C375.382,152.4,364.833,176.852,364.833,176.852Z" transform="translate(-317.098 -68.904)"/><path class="h" d="M351.617,75.888s-6.575,6.942-7.307,19.763,14.123-5.7,14.123-5.7Z" transform="translate(-317.441 -65.024)"/><path class="i" d="M347.533,89.579s2.98-15.8,7.884-19.154,13.738-.318,13.738-.318Z" transform="translate(-317.613 -64.652)"/><path class="j" d="M422.784,126.388c-11.134,17.506-66.276,20.285-75.748,11.541a25.5,25.5,0,0,1-7.379-13.251v-.015c-5.091-22.161,12.134-55.1,40.712-58.328,19.365-2.179,35.551,13.837,42.306,30.929C426.908,107.944,427.454,119.048,422.784,126.388Z" transform="translate(-317.15 -64.509)"/><path class="k" d="M412.88,138.189a102.5,102.5,0,0,1-23.948,6.723c-12.805,1.7-22.222,1.5-27.657.125h-.008c-3.577-.906-5.427-2.3-5.411-4,.008-1.031,2.4-2.256,6.262-3.514,11.346-3.662,35.317-7.519,48.545-7.292,1.14.024,2.2.07,3.163.156.21.015.405.039.6.063a.532.532,0,0,1,.11.008c2.311.25,3.99.71,4.8,1.437a1.666,1.666,0,0,1,.453.585C420.5,134.089,417.487,136.174,412.88,138.189Z" transform="translate(-318.052 -67.893)"/><path class="l" d="M422.834,127.819C411.7,145.325,356.558,148.1,347.086,139.36a25.5,25.5,0,0,1-7.379-13.251v-.015s4.6,6.639,15.856,6.506,43.318-6.074,49.221-11.8.419-27.566.419-27.566l17.522,5.458C426.957,109.375,427.5,120.479,422.834,127.819Z" transform="translate(-317.2 -65.94)"/><path class="m" d="M412.88,138.189c-5.84-1.663-22.792-5.723-35.317-1.093-15.366,5.669-16.288,7.941-16.288,7.941h-.008c-3.577-.906-5.427-2.3-5.411-4,.008-1.031,2.4-2.256,6.262-3.514,11.346-3.662,35.317-7.519,48.545-7.292,1.39.063,2.647.133,3.763.219a.532.532,0,0,1,.11.008c2.311.25,3.99.71,4.8,1.437a1.666,1.666,0,0,1,.453.585C420.5,134.089,417.487,136.174,412.88,138.189Z" transform="translate(-318.052 -67.893)"/><path class="n" d="M414.176,130.387c-2.638,3.3-16.815,7.742-25.089,8.842-14.831,1.963-24.153.831-26.619-1.706C374.784,133.55,402.014,129.336,414.176,130.387Z" transform="translate(-318.402 -67.893)"/><path class="o" d="M339.632,125.908c3.22,6.45,50.577,2.628,61.032-10.786s-6.115-51.288-30.516-44.384C346.886,77.322,333.8,114.221,339.632,125.908Z" transform="translate(-317.123 -64.708)"/><path class="p" d="M339.632,124.8c3.22,6.45,50.577,2.628,61.032-10.785s-6.115-51.288-30.516-44.384C346.886,76.216,333.8,113.115,339.632,124.8Z" transform="translate(-317.123 -64.65)"/><path class="q" d="M407.889,194.016c-3.334,15.195-12.032,21.714-27.618,21.5-15.273-.211-24.658-16.764-19.731-36.2,3.147-12.407,6.8-23.417,13.305-30.265l.008-.008.008-.016a22.571,22.571,0,0,1,14.2-7.1c4.677-.555,8.558,1.96,11.651,6.231C407.756,159.284,410.45,182.3,407.889,194.016Z" transform="translate(-318.23 -68.507)"/><path class="i" d="M406.632,72.755s-2.564,23.34,11.836,31.594c0,0,7.068.761,11.178-3.53,0,0-6.4,6.014-13.147-.249s-5.124-23.524,0-29.146,12.522-4.142,12.522-4.142l-2.958-2.664S415.164,62.4,406.632,72.755Z" transform="translate(-320.724 -64.418)"/><path class="r" d="M401.722,166.8a184.191,184.191,0,0,1,1.626,19.754c0,9.373-5.758,17.61-5.758,17.61l11.69-6.28a33.36,33.36,0,0,0,1.628-12.4c-.552-6.272-1.063-9.139-1.063-9.139Z" transform="translate(-320.256 -69.824)"/><path class="s" d="M426.241,64.628s-8.012-.739-13.611,8.558c-5.947,9.874-1.624,26.942,5.6,29.535S432.75,77.7,432.75,77.7l-4.2-10.987A4.966,4.966,0,0,0,426.241,64.628Z" transform="translate(-320.903 -64.429)"/><path class="h" d="M436.673,88.251c-1.031,5.334-3.2,9.691-6.106,12.447l-.024.015-.812.719h-.009a10.539,10.539,0,0,1-8.135,2.42c-9.753-1.242-11.065-15.366-9.917-23.37,1.336-9.245,9.246-14.8,15.539-13.984C434.7,67.466,438.7,77.812,436.673,88.251Z" transform="translate(-320.981 -64.524)"/><path class="k" d="M359.763,183.42s3.548-11.482,14.527-11.482c13.155,0,22.02,14.541,21.231,24.4s-3.8,19.1-16.232,19.494C379.29,215.837,356.017,215.317,359.763,183.42Z" transform="translate(-318.237 -70.096)"/><path class="t" d="M359.763,184.768s3.548-11.483,14.527-11.483c13.155,0,22.02,14.542,21.231,24.405s-3.8,19.1-16.232,19.494C379.29,217.185,356.017,216.664,359.763,184.768Z" transform="translate(-318.237 -70.167)"/><path class="c" d="M408.1,178.842c-.569,0-1.178-.476-1.8-1.3-2.756-3.669-5.653-14.266-5.622-20.154.015-2.28.469-3.857,1.546-4.045,1.757-.3,5.325,5.622,7.059,13.953C410.29,172.15,410.539,178.842,408.1,178.842Z" transform="translate(-320.42 -69.113)"/><path class="u" d="M406.307,177.772c-2.756-3.669-5.653-14.266-5.622-20.154,1.726,2.233,3.748,6.778,4.927,12.447A31.786,31.786,0,0,1,406.307,177.772Z" transform="translate(-320.42 -69.34)"/><path class="v" d="M434.365,200.4c-1.781,5.723-8.488,6.317-10.448,4.935-1.711-1.2-6.434-6.747-10.948-16.9-.008-.008-.008-.015-.015-.023q-1-2.238-1.968-4.779c-5.036-13.22-8.823-37.566-3.615-36.621a.059.059,0,0,1,.023.008C422.512,149.788,436.137,194.685,434.365,200.4Z" transform="translate(-320.641 -68.778)"/><path class="w" d="M408.977,243.448c-1.031.5-2.467-.024-4.1-1.226a35.268,35.268,0,0,1-5.809-5.919l-.016-.015-.023-.024c-5.591-6.887-11.042-16.437-10.768-18.576.96-7.4,11.018-13.828,16.991-16.662,2.335-1.109,4.045-1.663,4.341-1.523C410.664,200.018,414.3,240.864,408.977,243.448Z" transform="translate(-319.763 -71.55)"/><path class="s" d="M421.5,204.422s.085-5.27,4.744-7.122,9.153,4.363,9.153,4.363a5.984,5.984,0,0,1-6.269,6.017C422.813,207.778,421.5,204.422,421.5,204.422Z" transform="translate(-321.519 -71.417)"/><path class="x" d="M341.983,184.853s-3.847,6.066-7.989,9.025-12.28,4.231-12.28,4.231-5.769-2.664-5.769-6.628c0,0,6.214-3.152,8.581-8.145,0,0,8.073-2.876,11.582-1.937A13.853,13.853,0,0,1,341.983,184.853Z" transform="translate(-315.945 -70.585)"/><path class="y" d="M331.1,183.057l6.593,4.355-8.372-3.6Z" transform="translate(-316.651 -70.683)"/><path class="z" d="M337.289,121.385a35.805,35.805,0,0,0-11.723,9.219c-5.326,6.41-5.769,13.068,1.924,11l3.206-2.82s-4.538,1.552-4.835-3.311,11.428-13.18,11.428-13.18Z" transform="translate(-316.245 -67.426)"/><path class="aa" d="M325.551,138.6c-1.887,2.832,3.1,4.116,7.055,4.006,4.437-.123,12.092-2.086,11.019-6.424S329.974,131.966,325.551,138.6Z" transform="translate(-316.431 -68.051)"/><path class="ab" d="M325.953,139.045c-.034.738,15.593-1.227,15.581-4.035S326.215,133.335,325.953,139.045Z" transform="translate(-316.473 -68.068)"/><path class="h" d="M345.6,110.927c1.117,3.644,8.647,2.654,10.641-3.055s-.144-12.959-3.991-13.254S343.387,103.713,345.6,110.927Z" transform="translate(-317.482 -66.013)"/><path class="h" d="M377.8,98.614c-.245.52,5.38-4.859,16.373-2.861C395.255,95.951,382.63,88.357,377.8,98.614Z" transform="translate(-319.211 -65.94)"/><path class="ac" d="M366.135,119.362s10.554-2.762,15.189-11.146C381.324,108.216,379.549,119.559,366.135,119.362Z" transform="translate(-318.595 -66.731)"/><path class="ad" d="M347.527,93.9c1.362,1.39,9.266-4.87,19.122-5.758S388.917,94.707,396.611,92c6.107-2.15-6.548-23.163-22.951-22.094S346.175,92.525,347.527,93.9Z" transform="translate(-317.607 -64.706)"/><path class="ad" d="M350.725,127.7a69.04,69.04,0,0,1,22.244-5.619c12.693-1.009,14.952-.078,14.952,1.135s-8.582,5.355-20.22,6.341S350.725,127.7,350.725,127.7Z" transform="translate(-317.781 -67.441)"/><path class="ae" d="M339.663,124.589s-2.962-8.512,2.554-22.432c0,0,1.322-2.271,2.235-1.72S339.189,111.5,339.663,124.589Z" transform="translate(-317.155 -66.316)"/><path class="af" d="M413.367,93.167s1.035,8.664,7.4,10.537,11.54-2.727,13.167-9.229c0,0-2,5.607-10.283,4.172S413.367,93.167,413.367,93.167Z" transform="translate(-321.089 -65.936)"/><path class="ag" d="M414.606,75.447c.074,1.615,11.756-1.738,15.471-1.245s5.293,5.05,5.885,4.942-.986-10.761-7.89-11.55S414.554,74.326,414.606,75.447Z" transform="translate(-321.155 -64.583)"/><path class="m" d="M400.492,148.157s-16.085,6.059-22.254,5.364c-5.989-.672-3.74-4.263-3.607-4.466l.008-.008.008-.016a22.571,22.571,0,0,1,14.2-7.1C393.519,141.372,397.4,143.886,400.492,148.157Z" transform="translate(-319.016 -68.507)"/><path class="ah" d="M434.505,200.4c-1.781,5.723-8.488,6.317-10.448,4.935-1.711-1.2-6.434-6.747-10.948-16.9.445.859,3.756,7.036,6.723,7.036,3.194-.008,9.347-8.878,3.123-27.477-6.019-18.03-14.875-20.817-15.421-20.974C422.652,149.79,436.278,194.687,434.505,200.4Z" transform="translate(-320.781 -68.78)"/><path class="ai" d="M427.27,200.154c2.646-.713,6.814,1.408,8.266,3.544s5.074,11.145,3,22.783c0,0-3.945,5.228-8.382,4.08-3.369-.871-4.173-10.9-5.082-18.024S422.912,201.33,427.27,200.154Z" transform="translate(-321.66 -71.578)"/><path class="aj" d="M430.735,231.076s1.63-23.329-7.859-27.093c0,0-.048,3.787,1.849,12.549S428.556,230.534,430.735,231.076Z" transform="translate(-321.591 -71.788)"/><path class="ak" d="M430.138,218.729s-1.972,3.621-3.5,4.334a4,4,0,0,1-2.822.258l4.788-11A26.756,26.756,0,0,1,430.138,218.729Z" transform="translate(-321.641 -72.228)"/><path class="al" d="M428.446,211.907s-1.931-6.22-5.924-7.38c0,0-3.206,3.878-.91,17.443,0,0,2.257,2.42,4.794-.488A34.494,34.494,0,0,0,428.446,211.907Z" transform="translate(-321.481 -71.816)"/><path class="am" d="M426.254,210.19c1.3-.133-.091,5.836-.783,5.769S425.169,210.3,426.254,210.19Z" transform="translate(-321.71 -72.115)"/><path class="ag" d="M361.4,183.915c1.656,3.155,7.826-.888,15.526,0s11.844,4.962,14.063,3.847-4.755-12.633-16.589-13.094C364.945,174.3,360.831,182.841,361.4,183.915Z" transform="translate(-318.342 -70.239)"/><path class="af" d="M370.36,214.549a13.5,13.5,0,0,0,8.576,3.46c5.349.19,7.124-2.4,7.124-2.4a11.1,11.1,0,0,0-6.14-.3A16.7,16.7,0,0,1,370.36,214.549Z" transform="translate(-318.818 -72.346)"/><path class="an" d="M409.58,243.448c-1.031.5-2.467-.024-4.1-1.226l-5.809-5.919c.562.515,7.051,6.145,8.277-5.606,1.288-12.29-2.655-28.89-2.655-28.89l.563-.781c2.335-1.109,4.045-1.663,4.341-1.523C411.267,200.018,414.9,240.864,409.58,243.448Z" transform="translate(-320.366 -71.55)"/><path class="am" d="M410.495,169.478c-2.288,1.348,2.433,10.87,3.543,11.11S412.056,168.559,410.495,169.478Z" transform="translate(-320.905 -69.963)"/><path class="am" d="M414.973,182.87c-.482.052.049,2.277.408,2.577a1.279,1.279,0,0,0,1.318.15C416.91,185.387,415.523,182.81,414.973,182.87Z" transform="translate(-321.164 -70.673)"/><path class="am" d="M390.94,158.442c-.933.025-2.568,9.117-1.817,9.42s1.764-1.625,2.5-4.606S391.84,158.418,390.94,158.442Z" transform="translate(-319.799 -69.383)"/><path class="am" d="M347.729,170.156c.206.668,4.795-1.4,4.809-3.384S347.434,169.195,347.729,170.156Z" transform="translate(-317.623 -69.796)"/><path class="am" d="M394.93,218.3c-2.032.452.909,5.424,1.374,5.61s.84-1.906.485-3.4C396.472,219.173,395.645,218.142,394.93,218.3Z" transform="translate(-320.078 -72.543)"/><path class="am" d="M365.458,222.433c-1.13-.258-.837,2.946-.647,3.151s.877-.759,1.056-1.6C366.025,223.24,365.856,222.523,365.458,222.433Z" transform="translate(-318.516 -72.761)"/><path class="am" d="M396.914,224.84c-.385.308.528,1.852.859,1.524a1.289,1.289,0,0,0,.037-1.389A.77.77,0,0,0,396.914,224.84Z" transform="translate(-320.215 -72.884)"/><path class="ao" d="M339.634,179.3s-4.145-4.353-7.621-4.62-12.3,3.543-14.975,8.523c0,0,.4,1.193,3.432,1.906s9.983-2.5,9.983-2.5l11.588,1.961A8.659,8.659,0,0,0,339.634,179.3Z" transform="translate(-316.003 -70.24)"/><path class="ap" d="M331.2,182.731s5.593-1.694,6.223-5.856l.889.676S337.515,181.873,331.2,182.731Z" transform="translate(-316.751 -70.356)"/><path class="am" d="M320.787,181.029c.059.872,6.214-1.98,6.214-3.015S320.688,179.556,320.787,181.029Z" transform="translate(-316.201 -70.404)"/></g></g></svg>