<svg xmlns="http://www.w3.org/2000/svg" xmlns:xlink="http://www.w3.org/1999/xlink" width="165.641" height="189.255" viewBox="0 0 165.641 189.255"><defs><style>.a{fill:#e6fffe;}.b{fill:url(#a);}.au,.c,.j{fill:url(#b);}.d{fill:url(#c);}.e{opacity:0.502;}.ab,.ap,.as,.at,.au,.e,.f,.h,.j,.m{mix-blend-mode:multiply;}.aa,.ab,.af,.ap,.as,.at,.au,.av,.aw,.e,.f,.h,.j,.m,.p,.q,.z{isolation:isolate;}.as,.e,.f,.h,.s{fill:url(#e);}.f{opacity:0.502;}.g{fill:url(#g);}.h{opacity:0.495;}.i{fill:url(#j);}.ab,.ap,.av,.aw,.j,.z{opacity:0.5;}.k{fill:url(#m);}.l{fill:url(#n);}.at,.au,.m{opacity:0.3;}.m{fill:url(#o);}.n{fill:url(#q);}.o{fill:#fff;}.af,.p,.q{opacity:0.72;}.aa,.af,.av,.aw,.p,.q,.z{mix-blend-mode:screen;}.p{fill:url(#s);}.q{fill:url(#t);}.r{fill:url(#u);}.t{fill:url(#x);}.u{fill:url(#y);}.v{fill:url(#z);}.w{fill:url(#aa);}.x{fill:url(#ab);}.y{fill:url(#ac);}.z{fill:url(#ad);}.aa{opacity:0.2;fill:url(#af);}.ab{fill:url(#ag);}.ac{fill:url(#ah);}.ad{fill:url(#ai);}.ae{fill:url(#aj);}.af{fill:url(#am);}.ag{fill:url(#an);}.ah{fill:url(#ao);}.ai{fill:#2f95cd;}.aj{fill:url(#aq);}.ak{fill:url(#ar);}.al{fill:url(#as);}.am{fill:url(#at);}.an{fill:url(#au);}.ao{fill:url(#aw);}.ap{fill:url(#ax);}.aq{fill:url(#ay);}.ar{fill:url(#az);}.as{opacity:0.498;}.at{fill:url(#bb);}.av{fill:url(#bd);}.aw{fill:url(#be);}</style><linearGradient id="a" x1="0.375" y1="0.965" x2="0.535" y2="0.041" gradientUnits="objectBoundingBox"><stop offset="0" stop-color="#39bfb8"/><stop offset="1" stop-color="#5deae2"/></linearGradient><linearGradient id="b" x1="0.5" y1="1" x2="0.5" gradientUnits="objectBoundingBox"><stop offset="0" stop-color="#39bfb8"/><stop offset="1" stop-color="#3da4ab"/></linearGradient><linearGradient id="c" x1="0.355" y1="1.011" x2="0.537" y2="-0.04" xlink:href="#a"/><linearGradient id="e" x1="0.5" y1="1" x2="0.5" y2="0" xlink:href="#a"/><linearGradient id="g" x1="0.426" y1="1.037" x2="0.57" y2="-0.051" xlink:href="#a"/><linearGradient id="j" x1="0.432" y1="1.03" x2="0.588" y2="-0.027" xlink:href="#a"/><linearGradient id="m" x1="0.337" y1="1.005" x2="0.596" y2="-0.003" xlink:href="#a"/><linearGradient id="n" x1="0.429" y1="0.998" x2="0.603" y2="0.007" xlink:href="#a"/><linearGradient id="o" x1="0.5" y1="1" x2="0.5" gradientUnits="objectBoundingBox"><stop offset="0" stop-color="#9d68c2"/><stop offset="1" stop-color="#ccedff"/></linearGradient><radialGradient id="q" cx="0.517" cy="0.845" r="0.763" gradientTransform="translate(0.017) scale(0.966 1)" gradientUnits="objectBoundingBox"><stop offset="0" stop-color="#45ffcd"/><stop offset="1" stop-color="#22e0ff"/></radialGradient><linearGradient id="s" x1="0.5" y1="1" x2="0.5" gradientUnits="objectBoundingBox"><stop offset="0" stop-color="#d4e2ff"/><stop offset="1"/></linearGradient><linearGradient id="t" y1="0.5" x2="1" y2="0.5" gradientUnits="objectBoundingBox"><stop offset="0"/><stop offset="1" stop-color="#d4e2ff"/></linearGradient><linearGradient id="u" y1="0.5" x2="1" y2="0.5" gradientUnits="objectBoundingBox"><stop offset="0" stop-color="#3da4ab"/><stop offset="1" stop-color="#39bfb8"/></linearGradient><linearGradient id="x" x1="0.5" y1="1" x2="0.5" y2="0" gradientTransform="matrix(1, 0, 0, 1, 0, 0)" xlink:href="#q"/><linearGradient id="y" x1="43.775" y1="1" x2="43.775" y2="0" xlink:href="#a"/><linearGradient id="z" x1="92.297" y1="1" x2="92.297" y2="0" xlink:href="#b"/><linearGradient id="aa" x1="59.375" y1="1" x2="59.375" y2="0" gradientTransform="matrix(1, 0, 0, 1, 0, 0)" xlink:href="#q"/><linearGradient id="ab" x1="0.46" y1="1.014" x2="0.571" y2="0.005" xlink:href="#a"/><linearGradient id="ac" x1="0.5" y1="1" x2="0.5" gradientUnits="objectBoundingBox"><stop offset="0" stop-color="#0665bd"/><stop offset="1" stop-color="#1a1f77"/></linearGradient><linearGradient id="ad" y1="0.5" x2="1" y2="0.5" gradientUnits="objectBoundingBox"><stop offset="0"/><stop offset="1" stop-color="#6a9bff"/></linearGradient><linearGradient id="af" x1="0.137" y1="1.055" x2="0.137" y2="0.056" gradientUnits="objectBoundingBox"><stop offset="0"/><stop offset="1" stop-color="#00e3ff"/></linearGradient><linearGradient id="ag" x1="0.5" y1="1" x2="0.5" gradientUnits="objectBoundingBox"><stop offset="0" stop-color="#8da4e5"/><stop offset="1" stop-color="#755cbb"/></linearGradient><linearGradient id="ah" x1="0.479" y1="1.014" x2="0.646" y2="0.002" gradientUnits="objectBoundingBox"><stop offset="0" stop-color="#646464"/><stop offset="1" stop-color="#2b2b2b"/></linearGradient><linearGradient id="ai" x1="0.125" y1="1.536" x2="0.125" y2="0.434" gradientUnits="objectBoundingBox"><stop offset="0" stop-color="#030303"/><stop offset="1" stop-color="#4a4a4a"/></linearGradient><linearGradient id="aj" x1="0.5" y1="1" x2="0.5" gradientUnits="objectBoundingBox"><stop offset="0" stop-color="#2c2c2c"/><stop offset="1" stop-color="#535353"/></linearGradient><linearGradient id="am" x1="0" y1="0.5" x2="1" y2="0.5" xlink:href="#s"/><linearGradient id="an" x1="0.5" y1="1" x2="0.5" gradientUnits="objectBoundingBox"><stop offset="0" stop-color="#d8d8d8"/><stop offset="1" stop-color="#fff"/></linearGradient><radialGradient id="ao" cx="0.517" cy="0.845" r="2.374" gradientTransform="translate(0.351) scale(0.298 1)" xlink:href="#q"/><linearGradient id="aq" x1="0.324" y1="0.98" x2="0.57" y2="0.034" gradientUnits="objectBoundingBox"><stop offset="0" stop-color="#cbc1f7"/><stop offset="1" stop-color="#e8dcf7"/></linearGradient><radialGradient id="ar" cx="0.517" cy="0.845" r="0.738" gradientTransform="translate(-0.001)" xlink:href="#q"/><linearGradient id="as" x1="0.385" y1="0.987" x2="0.615" y2="0.013" gradientUnits="objectBoundingBox"><stop offset="0" stop-color="#be3c40"/><stop offset="1" stop-color="#b94e4e"/></linearGradient><linearGradient id="at" x1="0.385" y1="0.987" x2="0.615" y2="0.013" gradientUnits="objectBoundingBox"><stop offset="0" stop-color="#f77777"/><stop offset="1" stop-color="#fa676c"/></linearGradient><linearGradient id="au" x1="0.444" y1="0.992" x2="0.522" y2="-0.069" xlink:href="#a"/><linearGradient id="aw" x1="0.469" y1="0.978" x2="0.536" y2="0.015" xlink:href="#at"/><linearGradient id="ax" x1="0.5" y1="1" x2="0.5" gradientUnits="objectBoundingBox"><stop offset="0" stop-color="#fa676c"/><stop offset="1" stop-color="#dd2929"/></linearGradient><linearGradient id="ay" x1="0.455" y1="0.997" x2="0.572" y2="0.044" xlink:href="#a"/><linearGradient id="az" x1="0.432" y1="0.952" x2="0.606" y2="0.01" xlink:href="#a"/><linearGradient id="bb" x1="0.5" y1="1" x2="0.5" y2="0" xlink:href="#o"/><radialGradient id="bd" cx="0.5" cy="0.5" r="0.518" gradientTransform="translate(0.011 0.018) scale(0.965 0.965)" gradientUnits="objectBoundingBox"><stop offset="0"/><stop offset="0.229" stop-color="#010202"/><stop offset="0.365" stop-color="#040a0a"/><stop offset="0.477" stop-color="#0a1919"/><stop offset="0.576" stop-color="#132d2d"/><stop offset="0.667" stop-color="#1e4747"/><stop offset="0.751" stop-color="#2c6767"/><stop offset="0.83" stop-color="#3c8e8e"/><stop offset="0.905" stop-color="#4fbaba"/><stop offset="0.975" stop-color="#64ebeb"/><stop offset="1" stop-color="#6dffff"/></radialGradient><linearGradient id="be" y1="0.5" x2="1" y2="0.5" gradientUnits="objectBoundingBox"><stop offset="0" stop-color="#6a9bff"/><stop offset="1"/></linearGradient></defs><g transform="translate(-59.11 -44.775)"><g transform="translate(59.11 44.775)"><path class="a" d="M71.642,203.224c9.842,20.654,104.814,17.65,128.742,1.609S171.165,53.968,106.85,56.782C59.9,58.835,46.383,150.214,71.642,203.224Z" transform="translate(-59.11 -45.636)"/><path class="a" d="M223.338,202.2c-4.067-.664-6.6-22.257-1.787-26.428s14.7,5.354,14.7,12.593S230.4,203.348,223.338,202.2Z" transform="translate(-70.607 -54.126)"/><path class="a" d="M98.494,50.045c1.007,3.036-8.859,9.524-12.306,7.015S84.761,46.817,87.873,45.3,97.037,45.648,98.494,50.045Z" transform="translate(-60.928 -44.775)"/></g><g transform="translate(62.095 66.19)"><path class="b" d="M140.516,223.043v.029c-.009.732-.213,14.923-3.053,20.649-.733,1.493-1.652,2.413-2.793,2.366-4.028-.167-13.169-17.159-16.779-26.8a23.819,23.819,0,0,1-1.476-5.169c-.084-.836.046-1.309.455-1.318a19.007,19.007,0,0,1,2.515.11c.111.019.223.029.334.047,10.014,1.206,19.721,9.179,20.714,10.023C140.488,223.025,140.516,223.043,140.516,223.043Z" transform="translate(-66.215 -78.277)"/><path class="c" d="M140.488,223.041c-13.336,1.16-22.208-5.893-24.1-8.927-.492-.77-.51-1.282-.028-1.318a14.361,14.361,0,0,1,3,.11c.111.019.223.029.334.047,8.835,1.335,19.628,9.224,20.714,10.023C140.46,223.023,140.488,223.041,140.488,223.041Z" transform="translate(-66.188 -78.274)"/><path class="d" d="M166.5,214.136a26.348,26.348,0,0,1-1.791,6.005c-3.8,9.745-12.547,25.809-16.473,25.976a2.842,2.842,0,0,1-2.422-1.689c-3.267-5.309-3.425-21.355-3.425-21.355s.028-.019.084-.065c1-.845,10.738-8.855,20.77-10.033.084-.009.176-.018.278-.036a19.222,19.222,0,0,1,2.524-.112C166.441,212.837,166.581,213.311,166.5,214.136Z" transform="translate(-68.086 -78.279)"/><path class="c" d="M166.5,214.134c-1.856,3.016-10.747,10.107-24.111,8.938,0,0,.028-.019.084-.065,1.086-.807,11.926-8.715,20.77-10.033.084-.009.176-.018.278-.036a14.28,14.28,0,0,1,3-.112C167,212.863,166.98,213.364,166.5,214.134Z" transform="translate(-68.086 -78.277)"/><path class="e" d="M140.488,223.041v.029c-.009.732-.213,14.923-3.053,20.649,0,0-.789-15-4.779-18.394s-14.793-6.042-14.793-6.042a23.818,23.818,0,0,1-1.476-5.169c-.492-.77-.51-1.282-.028-1.318a14.361,14.361,0,0,1,3,.11c.111.019.223.029.334.047,10.014,1.206,19.721,9.178,20.714,10.023C140.46,223.023,140.488,223.041,140.488,223.041Z" transform="translate(-66.188 -78.274)"/><path class="f" d="M166.5,214.134a26.348,26.348,0,0,1-1.791,6.005c-1.884.4-11.851,2.71-15.378,8.817-2.951,5.1-3.452,12.24-3.517,15.471-3.267-5.309-3.425-21.355-3.425-21.355s.028-.019.084-.065c1-.845,10.738-8.855,20.77-10.033.084-.009.176-.018.278-.036a14.28,14.28,0,0,1,3-.112C167,212.863,166.98,213.364,166.5,214.134Z" transform="translate(-68.086 -78.277)"/><path class="g" d="M118.918,166.858a52.352,52.352,0,0,1-1.791,9.29,37.6,37.6,0,0,1-2.645,3.3A65.424,65.424,0,0,1,85.276,198.44c-.362.13-.724.232-1.1.342-2.432.705-6.9-6.588-4.585-12.8a9.117,9.117,0,0,1,.845-1.735,35.126,35.126,0,0,1,5.383-6.032,127.8,127.8,0,0,1,27.007-19.191h.009a53.768,53.768,0,0,1,6.3-2.756A60.781,60.781,0,0,1,118.918,166.858Z" transform="translate(-63.522 -74.21)"/><path class="c" d="M85.167,200.532a5.348,5.348,0,0,1-.882.835c-3.619,2.69-8.928,1.131-6-10.088a10.013,10.013,0,0,1,1.2-3.2,5.185,5.185,0,0,1,4.028-2.71C88.471,184.922,89.028,196.132,85.167,200.532Z" transform="translate(-63.413 -76.303)"/><path class="h" d="M118.809,166.858l-4.436,12.593A65.424,65.424,0,0,1,85.167,198.44a5.35,5.35,0,0,1-.882.835c-3.619,2.69-8.928,1.131-6-10.088a10.013,10.013,0,0,1,1.2-3.2,9.117,9.117,0,0,1,.845-1.735,35.126,35.126,0,0,1,5.383-6.032c-.186.335-1.476,2.9,1.262,3.889,2.933,1.049,18.4-2.636,25.206-9.922s6.58-14.069.548-13.159a53.768,53.768,0,0,1,6.3-2.756A60.781,60.781,0,0,1,118.809,166.858Z" transform="translate(-63.413 -74.21)"/><path class="i" d="M81.451,190.239c-3.825-.694-15.428,7.712-19.125,24.647,0,0,.255,1.36,3.7,1.483s9.341-6.18,13.341-9.888S87.828,191.4,81.451,190.239Z" transform="translate(-62.326 -76.651)"/><path class="c" d="M66.31,216.431s6.014-8.965,7.219-11.19c0,0,2.285-11.129,5.873-13.349,3.507-2.17,4.778.259,5.532,3.029S79.843,214.453,66.31,216.431Z" transform="translate(-62.613 -76.713)"/><path class="j" d="M73.777,207.3s1.441,3.3,3.27,3.819c0,0-1.54-10.8,1.162-16.526A33.234,33.234,0,0,0,73.777,207.3Z" transform="translate(-63.15 -76.968)"/><path class="k" d="M79.894,192.638s3.714-2.6,5.746,2.348a45.385,45.385,0,0,1-5.218,16.256s-2.314.659-3.206-.308C75.231,208.783,75.813,195.482,79.894,192.638Z" transform="translate(-63.318 -76.778)"/><g transform="translate(48.768 72.884)"><path class="l" d="M164.994,200.412c-1.767,10.435-11.109,17.39-24.5,17.39-11.659,0-21.537-4.346-24.145-13.916s-1.6-27.252,1.882-38.269a35.508,35.508,0,0,1,1.875-4.736l.007-.015a32.381,32.381,0,0,1,2.2-3.879.023.023,0,0,0,.007-.015c4.254-6.4,10.482-10.589,17.52-10.589a21.359,21.359,0,0,1,16.755,7.476,24.508,24.508,0,0,1,4.161,7,69.654,69.654,0,0,1,2.877,9.219.573.573,0,0,0,.015.092A78.014,78.014,0,0,1,164.994,200.412Z" transform="translate(-114.875 -146.383)"/><path class="m" d="M164.994,201.535c-1.767,10.435-11.109,17.39-24.5,17.39-11.659,0-21.537-4.346-24.145-13.916s-1.6-27.252,1.882-38.269A35.508,35.508,0,0,1,120.1,162l.007-.015s-7.054,23.387-1.415,38.283,31.91,14.582,40.8,4.682c8.461-9.418,4.552-31.544,4.154-33.663A78.014,78.014,0,0,1,164.994,201.535Z" transform="translate(-114.875 -147.506)"/><path class="c" d="M116.982,196.19c1.993-14,13.228-23.5,25.706-22.32,13.45,1.27,20.68,14.109,20.487,25.126s-8.246,19.617-22.677,19.617S115.117,209.288,116.982,196.19Z" transform="translate(-115.011 -148.353)"/><path class="n" d="M117.117,197.44c1.994-14,13.229-23.5,25.706-22.32,13.45,1.27,20.681,14.109,20.488,25.125s-8.246,19.618-22.678,19.618S115.252,210.537,117.117,197.44Z" transform="translate(-115.021 -148.443)"/><path class="j" d="M157.163,153.859c-2.854,4.475-18.562,7.08-27.639,6.251-7.9-.721-6.7-2.855-6.643-3.123a.023.023,0,0,0,.007-.015c4.254-6.4,10.482-10.589,17.52-10.589A21.359,21.359,0,0,1,157.163,153.859Z" transform="translate(-115.443 -146.383)"/><path class="o" d="M153.769,162.8c-.729.241-.765,6.129,0,7.077s1.992.656,2.4-.729S154.873,162.431,153.769,162.8Z" transform="translate(-117.632 -147.562)"/><path class="o" d="M155.222,172.112c-.609.145-.678,1.606-.4,2.116a.9.9,0,0,0,1.511-.219C156.507,173.389,155.835,171.966,155.222,172.112Z" transform="translate(-117.737 -148.233)"/><path class="p" d="M125.645,214.383s3.224,5.613,15.23,5.66,16.887-7.1,16.887-7.1a17.505,17.505,0,0,1-13.46,1.443C136.382,212.215,128.548,211,125.645,214.383Z" transform="translate(-115.649 -151.123)"/><path class="q" d="M122.269,188.694c2.371,3.783,12.129,1.768,23.124,2.841s12.871,4.65,15.19,3.926-1.345-17.277-17.773-18.4S121.68,187.753,122.269,188.694Z" transform="translate(-115.403 -148.585)"/></g><path class="r" d="M160.615,155.479a7.06,7.06,0,0,0-1.9-1.618s3.024,15.234,9.055,21.461C167.767,175.322,165.147,160.96,160.615,155.479Z" transform="translate(-69.26 -74.037)"/><path class="s" d="M167.926,77.915s5.805-5.009,12.908-5.878c0,0,2.175,1.063,4.688,8.891s-2.125,23.29-2.125,23.29Z" transform="translate(-69.923 -68.151)"/><path class="c" d="M181.389,72.037a25.092,25.092,0,0,0-5.749,16.09l2.223,1.4,6.476-13.4S182.189,71.919,181.389,72.037Z" transform="translate(-70.478 -68.151)"/><path class="t" d="M177.793,89.015s-1.529-8.48,4.053-14.713c0,0,6.305,2.972,8.914,13.988s-4.182,17.63-4.182,17.63Z" transform="translate(-70.619 -68.314)"/><path class="o" d="M174.261,74.617c-1.073.579-.987,1.735,1.233,1.446s3.429-2.03,3.188-2.367S175.465,73.967,174.261,74.617Z" transform="translate(-70.331 -68.263)"/><path class="u" d="M114.029,79.267s-5.8-5.009-12.908-5.878c0,0-2.174,1.063-4.688,8.891s2.126,23.29,2.126,23.29Z" transform="translate(-64.726 -68.248)"/><path class="v" d="M101.313,73.389a25.093,25.093,0,0,1,5.749,16.091l-2.223,1.4-6.475-13.4S100.513,73.271,101.313,73.389Z" transform="translate(-64.919 -68.248)"/><path class="w" d="M104.521,90.367s1.529-8.481-4.052-14.713c0,0-6.305,2.972-8.915,13.989a20.274,20.274,0,0,0,4.912,18.344Z" transform="translate(-64.389 -68.411)"/><path class="o" d="M108.72,75.969c1.072.579.987,1.736-1.234,1.446s-3.428-2.029-3.187-2.367S107.515,75.319,108.72,75.969Z" transform="translate(-65.343 -68.36)"/><path class="x" d="M97.657,132.5c8.891,20.511,75.441,14.116,83.393-2.734,8.7-18.429-11.3-63.975-43.191-61.849C110.917,69.718,86.227,106.137,97.657,132.5Z" transform="translate(-64.662 -67.849)"/><path class="y" d="M101.665,130.277c8.5,16.823,66.594,14.045,75.081-1.422,7.206-13.135-9.813-53.125-39-51.7S93.5,114.131,101.665,130.277Z" transform="translate(-64.998 -68.516)"/><path class="o" d="M151.32,71.985c-.607.725,6.451,3.789,7.393,3.36S153.35,69.564,151.32,71.985Z" transform="translate(-68.726 -68.102)"/><path class="z" d="M112.87,94.2c-.667,4.005,6.924,3.551,19.068,3.149,14.592-.484,29.254,12.08,37.786,3.063,1.407-1.486-12.564-20.995-29.428-20.557S113.45,90.723,112.87,94.2Z" transform="translate(-65.959 -68.713)"/><path class="z" d="M120.97,140.173c-.77,2.9,5.3,5.809,20.245,5.077,18.062-.884,21.9-4.669,21.009-5.717-.533-.629-5.944,2.779-20.777-.473C131.65,136.913,121.781,137.118,120.97,140.173Z" transform="translate(-66.54 -72.87)"/><path class="aa" d="M103.563,129.193a39.285,39.285,0,0,1,.113-9.862c.74-5.652,2.258-9.3,3.163-8.791s.764,6.048,1.3,11.5c.416,4.243,1.232,8.228,1.232,8.228S105.463,134.006,103.563,129.193Z" transform="translate(-65.275 -70.917)"/><path class="ab" d="M104.419,144.2s.9-.972,5.72-3.806c3.232-1.9,6.624-4.147,7.107-4.97.716-1.941-13.835-.8-13.835-.8l-5.532,2.653A18.946,18.946,0,0,0,104.419,144.2Z" transform="translate(-64.884 -72.63)"/><path class="ac" d="M91.592,98.743s3.754,2.416,1.292,8.011c0,0-17.538,9.552-16.522,19.96.846,8.686,25.078,4.481,25.078,4.481l.87,2.9s-20.584,4.028-27.687-.813c0,0-2.417-5.736,3.575-16.076A120.424,120.424,0,0,1,91.592,98.743Z" transform="translate(-63.176 -70.072)"/><path class="ad" d="M100.207,132.546c-2.208,2.5,2.479,5.231,6.33,5.65,4.323.471,12-1.24,11.537-5.593S105.383,126.69,100.207,132.546Z" transform="translate(-65.01 -72.229)"/><path class="ae" d="M100.566,133.025c-.131.712,15.3.883,15.662-1.844S101.58,127.517,100.566,133.025Z" transform="translate(-65.077 -72.249)"/><path class="q" d="M187.132,79.507s-2.045-2.534-4.831-1.86-2.972,9.453-1.3,9.671,2.374-4.857,3.652-5.654a6.379,6.379,0,0,1,3.51-.488Z" transform="translate(-70.786 -68.546)"/><path class="ab" d="M159.276,147.593s-9.539-9.622-12.591-19.235l23.852,15.708S162.432,146.911,159.276,147.593Z" transform="translate(-68.395 -72.202)"/><path class="af" d="M94.117,83.164a3.814,3.814,0,0,1,3.491-.823c2.416.394,3.808,5.353,5.045,4.855s.329-8.531-2.937-10.893C99.716,76.3,95.5,79.9,94.117,83.164Z" transform="translate(-64.613 -68.458)"/><path class="ag" d="M88.706,104.812s-8.386,9.739-7.854,10.416S89.234,105.8,88.706,104.812Z" transform="translate(-63.657 -70.509)"/><path class="ah" d="M113.482,108.1a39.246,39.246,0,0,1,15.24,1.145c1.122.342-2.344-3.715-7.619-4.448S113.13,106.278,113.482,108.1Z" transform="translate(-66.004 -70.497)"/><path class="ai" d="M133.35,125.772c1.319-3.989,6.33-3.812,7.355-.235,1.09,3.805-3.31,8.184-5.3,7.492S132.376,128.719,133.35,125.772Z" transform="translate(-67.409 -71.804)"/><path class="y" d="M147.511,118.19c-4.706-13.067,7.666-29.83,26.693-31.959,0,0,18.045,11.612,13.869,43.676C188.073,129.907,159.7,152.042,147.511,118.19Z" transform="translate(-68.382 -69.172)"/><path class="aj" d="M176.351,86.231s6.431.056,13.99,6.35,11.132,24.751-.122,37.327C190.22,129.907,195.257,104.14,176.351,86.231Z" transform="translate(-70.529 -69.172)"/><path class="ak" d="M159.384,114.712c.547,5.966,18.3,5.4,21.167,0,2.3-4.337-4.384-18.473-11.453-17.465S158.614,106.317,159.384,114.712Z" transform="translate(-69.301 -69.961)"/><path class="al" d="M171.464,86.494a27.448,27.448,0,1,0,27.448,27.448A27.449,27.449,0,0,0,171.464,86.494Zm0,50.3a22.855,22.855,0,1,1,22.855-22.855A22.855,22.855,0,0,1,171.464,136.8Z" transform="translate(-68.203 -69.191)"/><path class="am" d="M171.464,84.425a27.448,27.448,0,1,0,27.448,27.448A27.449,27.449,0,0,0,171.464,84.425Zm0,50.3a22.855,22.855,0,1,1,22.855-22.855A22.855,22.855,0,0,1,171.464,134.729Z" transform="translate(-68.203 -69.042)"/><path class="an" d="M203.264,159.275s-5.94,11.23-13.5,14.97-19.053-.761-22.775-3.722c-5.077-4.037-6.942-17.958-4.8-17.958,1.94,0,3.842,1.476,10,2.255h.019a59.72,59.72,0,0,0,6,.437,41.621,41.621,0,0,0,14.162-2.33,36.725,36.725,0,0,0,3.944-1.568C200.786,151.33,203.264,159.275,203.264,159.275Z" transform="translate(-69.447 -73.857)"/><path class="c" d="M198.216,151.867s-.546,8.259,2.63,9.394,5.07-1.949,5.07-1.949l1.582-3.357Z" transform="translate(-72.099 -73.894)"/><path class="ao" d="M187.688,140.529S199.015,152.955,206.751,158c0,0,4.806-.573,5.745-5.327l-16.53-19.088Z" transform="translate(-71.345 -72.578)"/><path class="ap" d="M207.962,147.432s-10.582-8.114-12.516-8.759a14.508,14.508,0,0,0-2.2,4.238c-.67,2.283,11.382,13.612,11.382,13.612s-11.206-9.09-16.329-15.324a68.851,68.851,0,0,0,8.292-6.88Z" transform="translate(-71.389 -72.631)"/><path class="aq" d="M194.159,148.067c-.148.659-4.77,1.94-6.032-.5a5.406,5.406,0,0,1-.316-.733,3.479,3.479,0,0,1,1.253-4.259l.019.018.065.065C189.806,143.261,194.289,147.455,194.159,148.067Z" transform="translate(-71.336 -73.225)"/><path class="ar" d="M208.6,147.143l-2.255-2.6s-7.582-3.769-9.114-10.515a.03.03,0,0,1-.009-.019s1.763-3.6,5.513-3.712c1.494-.046,2.84,1.921,3.87,4.576h.009C208.177,138.9,209.031,144.507,208.6,147.143Z" transform="translate(-72.031 -72.342)"/><path class="as" d="M203.264,159.275s-5.94,11.23-13.5,14.97-19.053-.761-22.775-3.722c-5.077-4.037-6.942-17.958-4.8-17.958,1.94,0,3.842,1.476,10,2.255-.381-.027-5.633-.39-6.561,1.1-.965,1.541,9.633,17.011,20.157,12.7s8.39-15.656,6.6-15.693h-.019a36.725,36.725,0,0,0,3.944-1.568C200.786,151.33,203.264,159.275,203.264,159.275Z" transform="translate(-69.447 -73.857)"/><path class="at" d="M194.178,148.074c-.148.659-4.77,1.94-6.032-.5a5.41,5.41,0,0,1-.316-.733c1.012,1.271,2.58,1.049,3.053-.353.455-1.354-1.318-3.387-1.717-3.824C189.825,143.267,194.308,147.461,194.178,148.074Z" transform="translate(-71.355 -73.232)"/><path class="au" d="M208.6,147.432l-2.255-2.6s-7.582-3.769-9.114-10.515c.186.361,3.834,6.032,7.733,6.556,2.872.386,1.734-5.331,1.641-5.711h.009C208.178,139.191,209.032,144.8,208.6,147.432Z" transform="translate(-72.031 -72.631)"/><path class="o" d="M78.469,199.181a7.4,7.4,0,0,0-1.033,4.751A6.939,6.939,0,0,0,78.469,199.181Z" transform="translate(-63.41 -77.297)"/><path class="o" d="M67.632,211.991a6.117,6.117,0,0,1,2.109-3.664S68.863,211.435,67.632,211.991Z" transform="translate(-62.708 -77.955)"/><path class="o" d="M92.452,177.076c-.291-.49,5.328-5.868,6.928-6.06s-.549.556-1.892,2.556S92.979,177.965,92.452,177.076Z" transform="translate(-64.492 -75.269)"/><path class="o" d="M101.541,169.627c-.582-.665,2.55-1.847,2.55-1.847S102.158,170.33,101.541,169.627Z" transform="translate(-65.142 -75.038)"/><path class="o" d="M173.592,159.147c-.217,1.29,6.347,1.29,6.23,0S173.81,157.858,173.592,159.147Z" transform="translate(-70.33 -74.348)"/><path class="o" d="M127.162,230.793c-.872.406.742,4.827,1.945,4.734S128.181,230.319,127.162,230.793Z" transform="translate(-66.972 -79.569)"/><ellipse class="av" cx="22.827" cy="22.018" rx="22.827" ry="22.018" transform="translate(80.427 21.651)"/><path class="aw" d="M151.779,107.905c.2,4.059,6.787,5.515,19.607-.806,10.179-5.018,20,.712,20.837-.856s-9.822-14.514-21.4-13.057S151.6,104.285,151.779,107.905Z" transform="translate(-68.761 -69.664)"/></g></g></svg>