<svg xmlns="http://www.w3.org/2000/svg" xmlns:xlink="http://www.w3.org/1999/xlink" width="288" height="162.895" viewBox="0 0 288 162.895"><defs><style>.a{fill:#5ed5ce;}.b{fill:#dbfdfc;}.c,.i{fill:#39bfb8;}.d{clip-path:url(#a);}.e{fill:none;stroke:#fff;stroke-miterlimit:10;stroke-width:2px;}.f,.g{fill:#fff;}.g{opacity:0.901;}.h{fill:#62bcb7;stroke:#62bcb7;}.h,.i{stroke-linecap:round;stroke-linejoin:round;stroke-width:4px;}.i{stroke:#39bfb8;}.j{clip-path:url(#b);}.k{clip-path:url(#c);}</style><clipPath id="a"><path class="a" d="M315.947,334.384a3.424,3.424,0,0,1,3.184-3.414V328.4a3.422,3.422,0,0,1,0-6.827v-1.428a2.864,2.864,0,0,0-2.342-2.844,15.629,15.629,0,0,1,0-30.813,2.865,2.865,0,0,0,2.342-2.844v-1.428a3.422,3.422,0,0,1,0-6.827V272.82a3.421,3.421,0,0,1,0-6.826v-.874a2.884,2.884,0,0,0-2.424-2.855c-5.176-.823-16.95-4.2-18.293-17.935a2.908,2.908,0,0,0-2.883-2.646H77.362a2.915,2.915,0,0,0-2.884,2.648c-1.386,13.376-13.217,16.956-18.351,17.883a2.886,2.886,0,0,0-2.36,2.845v.925a3.423,3.423,0,0,1,0,6.846v2.55a3.424,3.424,0,0,1,0,6.847v1.368a2.864,2.864,0,0,0,2.387,2.85,15.635,15.635,0,0,1,0,30.9,2.864,2.864,0,0,0-2.387,2.85v1.368a3.423,3.423,0,0,1,0,6.846v2.551a3.423,3.423,0,0,1,0,6.846v1.443a2.885,2.885,0,0,0,2.424,2.855c5.177.823,16.95,4.2,18.294,17.935a2.907,2.907,0,0,0,2.882,2.646h218.17a2.916,2.916,0,0,0,2.884-2.648c1.385-13.377,13.217-16.956,18.351-17.883a2.885,2.885,0,0,0,2.359-2.845V337.8A3.423,3.423,0,0,1,315.947,334.384Z" transform="translate(-53.767 -241.683)"/></clipPath><clipPath id="b"><path class="a" d="M307.589,243.516a9.231,9.231,0,0,1-9.221-9.22,2.155,2.155,0,0,0-4.31,0,9.23,9.23,0,0,1-9.22,9.22,2.155,2.155,0,1,0,0,4.31,9.23,9.23,0,0,1,9.22,9.22,2.155,2.155,0,1,0,4.31,0,9.231,9.231,0,0,1,9.221-9.22,2.155,2.155,0,0,0,0-4.31Z" transform="translate(-282.682 -232.142)"/></clipPath><clipPath id="c"><path class="a" d="M69.579,350.113a10.368,10.368,0,0,1-10.357-10.357,2.156,2.156,0,0,0-4.311,0,10.369,10.369,0,0,1-10.276,10.357h-.08a2.155,2.155,0,0,0,0,4.31A10.369,10.369,0,0,1,54.91,364.782a2.156,2.156,0,0,0,4.311,0A10.369,10.369,0,0,1,69.5,354.424h.079a2.155,2.155,0,1,0,0-4.31Z" transform="translate(-42.399 -337.601)"/></clipPath></defs><g transform="translate(-16 -410)"><circle class="b" cx="5.9" cy="5.9" r="5.9" transform="translate(166.274 420.504)"/><circle class="b" cx="2.823" cy="2.823" r="2.823" transform="translate(180.785 416.212)"/><circle class="b" cx="5.303" cy="5.303" r="5.303" transform="translate(105.99 558.394)"/><circle class="b" cx="2.677" cy="2.677" r="2.677" transform="translate(120.615 556.304)"/><path class="b" d="M45.069,326.553c-6.78,16.8,6.545,37.135,22.029,43.92,12.446,5.455,26.824,3.745,40.018.492s26.226-7.975,39.811-8.283c19.266-.437,37.447,7.985,55.95,13.371,21.486,6.255,44.434,8.473,66.351,3.954,11.835-2.44,23.439-6.923,32.847-14.507s16.458-18.494,17.883-30.493c2.49-20.96-11.895-40.663-11.841-61.771.024-9.258,2.84-18.6.933-27.658-2.58-12.261-13.754-20.247-25.04-23.924-19.189-6.252-38.226,2.252-55.176,10.838-21.908,11.1-45.892,18.976-70.65,19.106-16.394.087-32.147-4.977-47.846-9.061-14.9-3.877-33.936-9.047-48.773-2.42-9.373,4.186-14.195,14.451-13.995,24.369a27.8,27.8,0,0,0,4.3,14.578c4.317,6.618,14.311,9.454,15.149,18.292.454,4.8-2.521,9.282-6.042,12.57-5.1,4.76-11.482,7.963-14.84,14.33A24.821,24.821,0,0,0,45.069,326.553Z" transform="translate(-26.325 190.5)"/><path class="c" d="M315.947,334.384a3.424,3.424,0,0,1,3.184-3.414V328.4a3.422,3.422,0,0,1,0-6.827v-1.428a2.864,2.864,0,0,0-2.342-2.844,15.629,15.629,0,0,1,0-30.813,2.865,2.865,0,0,0,2.342-2.844v-1.428a3.422,3.422,0,0,1,0-6.827V272.82a3.421,3.421,0,0,1,0-6.826v-.874a2.884,2.884,0,0,0-2.424-2.855c-5.176-.823-16.95-4.2-18.293-17.935a2.908,2.908,0,0,0-2.883-2.646H77.362a2.915,2.915,0,0,0-2.884,2.648c-1.386,13.376-13.217,16.956-18.351,17.883a2.886,2.886,0,0,0-2.36,2.845v.925a3.423,3.423,0,0,1,0,6.846v2.55a3.424,3.424,0,0,1,0,6.847v1.368a2.864,2.864,0,0,0,2.387,2.85,15.635,15.635,0,0,1,0,30.9,2.864,2.864,0,0,0-2.387,2.85v1.368a3.423,3.423,0,0,1,0,6.846v2.551a3.423,3.423,0,0,1,0,6.846v1.443a2.885,2.885,0,0,0,2.424,2.855c5.177.823,16.95,4.2,18.294,17.935a2.907,2.907,0,0,0,2.882,2.646h218.17a2.916,2.916,0,0,0,2.884-2.648c1.385-13.377,13.217-16.956,18.351-17.883a2.885,2.885,0,0,0,2.359-2.845V337.8A3.423,3.423,0,0,1,315.947,334.384Z" transform="translate(-25.422 192.407)"/><g transform="translate(28.345 434.09)"><g class="d"><path class="a" d="M41.093,338.151s6.368,47.475,26.632,29.527,123.32-104.793,214.8-114.057-39.369-49.791-39.369-49.791L50.935,229.883Z" transform="translate(-54.857 -244.937)"/><path class="a" d="M207.027,239.512c-2.208.743-4.436,1.435-6.635,2.2-16.749,5.838-29.3,16.284-42.776,27.329a117.824,117.824,0,0,1-36.985,21.067c-19.318,6.668-38.873,6.429-58.96,4.7q-3.2-.275-6.4-.592c-1.707-.166-14.365-2.708-15.245-1.186L99.652,189.986c.571-.987,37.2,13.841,39.666,14.759l63.732,23.744c3.905,1.455,8.014,2.058,11.753,4,2.919,1.517.163,3.9-1.8,4.763C211.049,238.111,209.047,238.834,207.027,239.512Z" transform="translate(-54.948 -246.131)"/></g></g><rect class="e" width="211.924" height="101.319" rx="10" transform="translate(55.638 443.932)"/><rect class="f" width="213.001" height="48.738" transform="translate(55.066 488.223)"/><rect class="f" width="213.001" height="3.738" transform="translate(55.066 479.223)"/><path class="g" d="M6.946,7.158l-1.929-.53a.487.487,0,0,0-.441.1L3.045,8.014a.485.485,0,0,1-.8-.349l-.093-2a.485.485,0,0,0-.228-.39L.229,4.22a.485.485,0,0,1,.085-.866l1.872-.705a.484.484,0,0,0,.3-.338L2.967.369a.485.485,0,0,1,.85-.186L5.066,1.745a.486.486,0,0,0,.414.181l2-.143a.486.486,0,0,1,.44.751L6.816,4.2a.486.486,0,0,0-.044.449l.753,1.854A.485.485,0,0,1,6.946,7.158Z" transform="matrix(0.899, 0.438, -0.438, 0.899, 247.71, 457.492)"/><path class="g" d="M6.946,7.158l-1.929-.53a.487.487,0,0,0-.441.1L3.045,8.014a.485.485,0,0,1-.8-.349l-.093-2a.485.485,0,0,0-.228-.39L.229,4.22a.485.485,0,0,1,.085-.866l1.872-.705a.484.484,0,0,0,.3-.338L2.967.369a.485.485,0,0,1,.85-.186L5.066,1.745a.486.486,0,0,0,.414.181l2-.143a.486.486,0,0,1,.44.751L6.816,4.2a.486.486,0,0,0-.044.449l.753,1.854A.485.485,0,0,1,6.946,7.158Z" transform="matrix(1, -0.017, 0.017, 1, 67.925, 458.904)"/><g transform="translate(16 423.729)"><path class="h" d="M296.042,256.876h0A11.375,11.375,0,0,0,284.667,245.5h0a11.376,11.376,0,0,0,11.375-11.375h0A11.375,11.375,0,0,0,307.417,245.5h0A11.374,11.374,0,0,0,296.042,256.876Z" transform="translate(-21.573 -231.971)"/><path class="i" d="M56.9,364.61h0A12.511,12.511,0,0,0,44.383,352.1h0A12.512,12.512,0,0,0,56.9,339.586h0A12.513,12.513,0,0,0,69.408,352.1h0A12.512,12.512,0,0,0,56.9,364.61Z" transform="translate(-42.228 -222.906)"/><g transform="translate(260.939)"><g class="j"><path class="a" d="M287.714,253.124s7.544-20.476,34.485-12.932-34.485-28.019-34.485-28.019l-8.62,20.475,2.068,20.476Z" transform="translate(-282.99 -233.859)"/></g></g><g transform="translate(0 114.525)"><g class="k"><path class="a" d="M43.324,358.6s13.447-17.184,36.788-1.757-24.255-37.229-24.255-37.229L41.383,336.467l-4.3,20.125Z" transform="translate(-42.856 -339.147)"/></g></g></g><g transform="translate(0 18)"><path class="c" d="M-98.049-5.04a5.209,5.209,0,0,1,.322-1.785,4.935,4.935,0,0,1,.945-1.6,4.768,4.768,0,0,1,1.519-1.141A4.6,4.6,0,0,1-93.233-10a4.307,4.307,0,0,1,2.324.6,3.912,3.912,0,0,1,1.456,1.568L-90.685-7a2.812,2.812,0,0,0-.5-.756,2.456,2.456,0,0,0-.644-.49,2.77,2.77,0,0,0-.728-.259,3.646,3.646,0,0,0-.728-.077,2.863,2.863,0,0,0-1.372.315,3.045,3.045,0,0,0-.987.833,3.72,3.72,0,0,0-.6,1.162,4.264,4.264,0,0,0-.2,1.288A4.043,4.043,0,0,0-96.215-3.6a3.755,3.755,0,0,0,.665,1.162,3.271,3.271,0,0,0,1.015.8,2.785,2.785,0,0,0,1.288.3,3.251,3.251,0,0,0,.749-.091,2.8,2.8,0,0,0,.742-.294,2.973,2.973,0,0,0,.658-.511,2.552,2.552,0,0,0,.5-.742l1.3.742a3.039,3.039,0,0,1-.672.987,4.287,4.287,0,0,1-.98.721,5.024,5.024,0,0,1-1.155.448,4.87,4.87,0,0,1-1.2.154,4.119,4.119,0,0,1-1.918-.448,5.037,5.037,0,0,1-1.5-1.169,5.386,5.386,0,0,1-.98-1.638A5.2,5.2,0,0,1-98.049-5.04Zm13.3,5.18A3.8,3.8,0,0,1-86.31-.168a3.644,3.644,0,0,1-1.183-.826A3.64,3.64,0,0,1-88.249-2.2a4.009,4.009,0,0,1-.266-1.449A4.009,4.009,0,0,1-88.249-5.1a3.584,3.584,0,0,1,.763-1.211A3.726,3.726,0,0,1-86.3-7.14a3.768,3.768,0,0,1,1.547-.308A3.768,3.768,0,0,1-83.2-7.14a3.725,3.725,0,0,1,1.19.826A3.583,3.583,0,0,1-81.249-5.1a4.009,4.009,0,0,1,.266,1.449A4.009,4.009,0,0,1-81.249-2.2a3.583,3.583,0,0,1-.763,1.211,3.725,3.725,0,0,1-1.19.826A3.768,3.768,0,0,1-84.749.14Zm-2.184-3.78a2.77,2.77,0,0,0,.168.98,2.436,2.436,0,0,0,.462.777,2.161,2.161,0,0,0,.693.518,1.986,1.986,0,0,0,.861.189,1.986,1.986,0,0,0,.861-.189,2.115,2.115,0,0,0,.693-.525,2.523,2.523,0,0,0,.462-.784,2.77,2.77,0,0,0,.168-.98,2.787,2.787,0,0,0-.168-.973,2.505,2.505,0,0,0-.462-.791,2.115,2.115,0,0,0-.693-.525,1.986,1.986,0,0,0-.861-.189,1.9,1.9,0,0,0-.847.2,2.2,2.2,0,0,0-.693.532,2.612,2.612,0,0,0-.469.791A2.687,2.687,0,0,0-86.933-3.64ZM-68.411,0h-1.54V-4.1a2.634,2.634,0,0,0-.336-1.5,1.124,1.124,0,0,0-.98-.476,1.752,1.752,0,0,0-1.2.483,2.719,2.719,0,0,0-.777,1.253V0h-1.54V-4.1a2.629,2.629,0,0,0-.336-1.5,1.116,1.116,0,0,0-.966-.469,1.791,1.791,0,0,0-1.2.476,2.647,2.647,0,0,0-.784,1.246V0h-1.54V-7.322h1.4v1.47A3.094,3.094,0,0,1-77.07-7.035a3.146,3.146,0,0,1,1.617-.413,2.057,2.057,0,0,1,1.435.476,2.039,2.039,0,0,1,.651,1.19A3.352,3.352,0,0,1-72.2-7.021a3,3,0,0,1,1.6-.427,2.127,2.127,0,0,1,1.071.245,1.894,1.894,0,0,1,.679.651,2.684,2.684,0,0,1,.35.945,6.374,6.374,0,0,1,.1,1.141Zm5.936.14a2.87,2.87,0,0,1-1.554-.42,3.135,3.135,0,0,1-1.064-1.092V2.982h-1.54v-10.3h1.358v1.316a3.2,3.2,0,0,1,1.085-1.05,2.907,2.907,0,0,1,1.505-.392A3.113,3.113,0,0,1-61.3-7.14a3.52,3.52,0,0,1,1.092.826,3.812,3.812,0,0,1,.721,1.2,4.048,4.048,0,0,1,.259,1.442,4.56,4.56,0,0,1-.238,1.491,3.689,3.689,0,0,1-.672,1.2,3.28,3.28,0,0,1-1.029.812A2.858,2.858,0,0,1-62.475.14Zm-.5-1.316a1.879,1.879,0,0,0,.889-.21,2.209,2.209,0,0,0,.686-.56,2.558,2.558,0,0,0,.441-.8,2.823,2.823,0,0,0,.154-.924,2.593,2.593,0,0,0-.175-.952A2.557,2.557,0,0,0-61.46-5.4a2.213,2.213,0,0,0-.721-.532,2.125,2.125,0,0,0-.91-.2,1.874,1.874,0,0,0-.616.112,2.446,2.446,0,0,0-.6.308,2.4,2.4,0,0,0-.49.455,1.534,1.534,0,0,0-.294.567v1.918a2.836,2.836,0,0,0,.364.63,2.68,2.68,0,0,0,.5.5,2.413,2.413,0,0,0,.6.336A1.791,1.791,0,0,0-62.979-1.176Zm9.254-4.816a3.444,3.444,0,0,0-1.589.413,2.176,2.176,0,0,0-.987,1.1V0h-1.54V-7.322h1.428v1.638a3.349,3.349,0,0,1,.987-1.211,2.394,2.394,0,0,1,1.309-.5h.231a.827.827,0,0,1,.161.014ZM-50.757.14a2.726,2.726,0,0,1-.987-.175,2.386,2.386,0,0,1-.784-.483,2.252,2.252,0,0,1-.518-.728,2.192,2.192,0,0,1-.189-.91,1.962,1.962,0,0,1,.224-.938,2.192,2.192,0,0,1,.637-.728,3.092,3.092,0,0,1,.98-.476,4.4,4.4,0,0,1,1.253-.168,5.74,5.74,0,0,1,1.022.091,5.147,5.147,0,0,1,.91.245v-.5A1.7,1.7,0,0,0-48.671-5.9,1.817,1.817,0,0,0-50-6.356a3.207,3.207,0,0,0-1.155.217,5.843,5.843,0,0,0-1.169.623L-52.8-6.5a5.192,5.192,0,0,1,2.94-.952,3.353,3.353,0,0,1,2.352.77,2.85,2.85,0,0,1,.84,2.212V-1.82q0,.49.406.5V0q-.224.042-.385.056t-.315.014a.99.99,0,0,1-.693-.224.958.958,0,0,1-.3-.574L-48-1.19A3.265,3.265,0,0,1-49.21-.2,3.555,3.555,0,0,1-50.757.14Zm.42-1.134a2.768,2.768,0,0,0,1.057-.2,1.823,1.823,0,0,0,.777-.567.71.71,0,0,0,.294-.532v-.966a4.655,4.655,0,0,0-.833-.238,4.6,4.6,0,0,0-.861-.084,2.355,2.355,0,0,0-1.351.357,1.094,1.094,0,0,0-.525.945,1.193,1.193,0,0,0,.406.917A1.476,1.476,0,0,0-50.337-.994ZM-30.149,0h-1.54V-4.1a2.634,2.634,0,0,0-.336-1.5A1.124,1.124,0,0,0-33-6.076a1.752,1.752,0,0,0-1.2.483,2.719,2.719,0,0,0-.777,1.253V0h-1.54V-4.1a2.629,2.629,0,0,0-.336-1.5,1.116,1.116,0,0,0-.966-.469,1.791,1.791,0,0,0-1.2.476,2.647,2.647,0,0,0-.784,1.246V0h-1.54V-7.322h1.4v1.47a3.094,3.094,0,0,1,1.141-1.183,3.146,3.146,0,0,1,1.617-.413,2.057,2.057,0,0,1,1.435.476,2.039,2.039,0,0,1,.651,1.19,3.352,3.352,0,0,1,1.162-1.239,3,3,0,0,1,1.6-.427,2.127,2.127,0,0,1,1.071.245,1.894,1.894,0,0,1,.679.651,2.684,2.684,0,0,1,.35.945,6.374,6.374,0,0,1,.1,1.141Zm3.724.14a2.726,2.726,0,0,1-.987-.175A2.386,2.386,0,0,1-28.2-.518a2.252,2.252,0,0,1-.518-.728,2.192,2.192,0,0,1-.189-.91,1.962,1.962,0,0,1,.224-.938,2.192,2.192,0,0,1,.637-.728,3.092,3.092,0,0,1,.98-.476,4.4,4.4,0,0,1,1.253-.168,5.74,5.74,0,0,1,1.022.091,5.147,5.147,0,0,1,.91.245v-.5A1.7,1.7,0,0,0-24.339-5.9a1.817,1.817,0,0,0-1.33-.455,3.207,3.207,0,0,0-1.155.217,5.843,5.843,0,0,0-1.169.623l-.476-.98a5.192,5.192,0,0,1,2.94-.952,3.353,3.353,0,0,1,2.352.77,2.85,2.85,0,0,1,.84,2.212V-1.82q0,.49.406.5V0q-.224.042-.385.056t-.315.014a.99.99,0,0,1-.693-.224.958.958,0,0,1-.3-.574l-.042-.462A3.265,3.265,0,0,1-24.878-.2,3.555,3.555,0,0,1-26.425.14ZM-26-.994a2.768,2.768,0,0,0,1.057-.2,1.822,1.822,0,0,0,.777-.567.71.71,0,0,0,.294-.532v-.966A4.655,4.655,0,0,0-24.71-3.5a4.6,4.6,0,0,0-.861-.084,2.355,2.355,0,0,0-1.351.357,1.094,1.094,0,0,0-.525.945,1.193,1.193,0,0,0,.406.917A1.476,1.476,0,0,0-26-.994Zm.826-7.378-1.008-.308.8-1.54h1.47ZM-17.815.14a5.607,5.607,0,0,1-1.757-.287,4.455,4.455,0,0,1-1.5-.819l.616-.98a5.685,5.685,0,0,0,1.3.721,3.673,3.673,0,0,0,1.316.245,1.934,1.934,0,0,0,1.085-.266.856.856,0,0,0,.4-.756.7.7,0,0,0-.448-.672,8.964,8.964,0,0,0-1.4-.462q-.686-.182-1.176-.35a3.027,3.027,0,0,1-.8-.392,1.376,1.376,0,0,1-.448-.518,1.651,1.651,0,0,1-.14-.714,2.193,2.193,0,0,1,.217-.994,2.133,2.133,0,0,1,.6-.735,2.7,2.7,0,0,1,.9-.455,3.914,3.914,0,0,1,1.12-.154,4.6,4.6,0,0,1,1.54.252,4.008,4.008,0,0,1,1.274.728l-.658.924a3.432,3.432,0,0,0-2.17-.812,1.854,1.854,0,0,0-.987.245.844.844,0,0,0-.4.777.78.78,0,0,0,.084.378.713.713,0,0,0,.273.266,2.248,2.248,0,0,0,.49.2q.3.091.749.2.742.182,1.281.364a3.507,3.507,0,0,1,.889.427,1.583,1.583,0,0,1,.518.574,1.721,1.721,0,0,1,.168.791,1.981,1.981,0,0,1-.791,1.659A3.438,3.438,0,0,1-17.815.14Zm11.69,0a2.942,2.942,0,0,1-1.519-.4A2.946,2.946,0,0,1-8.715-1.33V0h-1.358V-10.22h1.54v4.284A3.371,3.371,0,0,1-7.448-7.042a2.837,2.837,0,0,1,1.533-.406,2.825,2.825,0,0,1,1.33.315,3.262,3.262,0,0,1,1.029.84A3.828,3.828,0,0,1-2.9-5.075a4.552,4.552,0,0,1,.231,1.449,4.03,4.03,0,0,1-.266,1.47,3.829,3.829,0,0,1-.728,1.2,3.367,3.367,0,0,1-1.1.8A3.218,3.218,0,0,1-6.125.14Zm-.406-1.316a2.1,2.1,0,0,0,.924-.2,2.3,2.3,0,0,0,.721-.539,2.47,2.47,0,0,0,.469-.777,2.593,2.593,0,0,0,.168-.931,2.812,2.812,0,0,0-.161-.945,2.562,2.562,0,0,0-.448-.8,2.255,2.255,0,0,0-.686-.553,1.85,1.85,0,0,0-.875-.21,1.92,1.92,0,0,0-1.267.462,3.076,3.076,0,0,0-.847,1.12v1.932a1.523,1.523,0,0,0,.294.581,2.4,2.4,0,0,0,.49.455,2.274,2.274,0,0,0,.6.3A1.986,1.986,0,0,0-6.531-1.176ZM.665.14A2.726,2.726,0,0,1-.322-.035a2.386,2.386,0,0,1-.784-.483,2.252,2.252,0,0,1-.518-.728,2.192,2.192,0,0,1-.189-.91,1.962,1.962,0,0,1,.224-.938,2.192,2.192,0,0,1,.637-.728A3.092,3.092,0,0,1,.028-4.3a4.4,4.4,0,0,1,1.253-.168A5.74,5.74,0,0,1,2.3-4.375a5.147,5.147,0,0,1,.91.245v-.5A1.7,1.7,0,0,0,2.751-5.9a1.817,1.817,0,0,0-1.33-.455,3.207,3.207,0,0,0-1.155.217A5.843,5.843,0,0,0-.9-5.516l-.476-.98a5.192,5.192,0,0,1,2.94-.952,3.353,3.353,0,0,1,2.352.77,2.85,2.85,0,0,1,.84,2.212V-1.82q0,.49.406.5V0q-.224.042-.385.056T4.459.07a.99.99,0,0,1-.693-.224.958.958,0,0,1-.3-.574L3.423-1.19A3.265,3.265,0,0,1,2.212-.2,3.555,3.555,0,0,1,.665.14Zm.42-1.134a2.768,2.768,0,0,0,1.057-.2,1.822,1.822,0,0,0,.777-.567A.71.71,0,0,0,3.213-2.3v-.966A4.655,4.655,0,0,0,2.38-3.5a4.6,4.6,0,0,0-.861-.084,2.355,2.355,0,0,0-1.351.357,1.094,1.094,0,0,0-.525.945,1.193,1.193,0,0,0,.406.917A1.476,1.476,0,0,0,1.085-.994Zm9.646-5a3.444,3.444,0,0,0-1.589.413,2.176,2.176,0,0,0-.987,1.1V0H6.615V-7.322H8.043v1.638A3.349,3.349,0,0,1,9.03-6.895a2.394,2.394,0,0,1,1.309-.5h.231a.827.827,0,0,1,.161.014ZM13.7.14a2.726,2.726,0,0,1-.987-.175,2.386,2.386,0,0,1-.784-.483,2.252,2.252,0,0,1-.518-.728,2.192,2.192,0,0,1-.189-.91,1.962,1.962,0,0,1,.224-.938,2.192,2.192,0,0,1,.637-.728,3.092,3.092,0,0,1,.98-.476,4.4,4.4,0,0,1,1.253-.168,5.74,5.74,0,0,1,1.022.091,5.147,5.147,0,0,1,.91.245v-.5A1.7,1.7,0,0,0,15.785-5.9a1.817,1.817,0,0,0-1.33-.455,3.207,3.207,0,0,0-1.155.217,5.843,5.843,0,0,0-1.169.623l-.476-.98a5.192,5.192,0,0,1,2.94-.952,3.353,3.353,0,0,1,2.352.77,2.85,2.85,0,0,1,.84,2.212V-1.82q0,.49.406.5V0q-.224.042-.385.056T17.493.07A.99.99,0,0,1,16.8-.154a.958.958,0,0,1-.3-.574l-.042-.462A3.265,3.265,0,0,1,15.246-.2,3.555,3.555,0,0,1,13.7.14Zm.42-1.134a2.768,2.768,0,0,0,1.057-.2,1.823,1.823,0,0,0,.777-.567.71.71,0,0,0,.294-.532v-.966a4.655,4.655,0,0,0-.833-.238,4.6,4.6,0,0,0-.861-.084,2.355,2.355,0,0,0-1.351.357,1.094,1.094,0,0,0-.525.945,1.193,1.193,0,0,0,.406.917A1.476,1.476,0,0,0,14.119-.994Zm9.548.616a7.719,7.719,0,0,1-.812.315,3.433,3.433,0,0,1-1.106.175,2.344,2.344,0,0,1-.686-.1A1.681,1.681,0,0,1,20.5-.28a1.335,1.335,0,0,1-.385-.511,1.873,1.873,0,0,1-.14-.763V-6.132h-.966v-1.19h.966V-9.73h1.54v2.408h1.6v1.19h-1.6v4.088a.761.761,0,0,0,.245.567A.831.831,0,0,0,22.3-1.3a1.716,1.716,0,0,0,.616-.112q.294-.112.434-.182ZM27.839.14a3.8,3.8,0,0,1-1.561-.308A3.644,3.644,0,0,1,25.1-.994,3.64,3.64,0,0,1,24.339-2.2a4.009,4.009,0,0,1-.266-1.449A4.009,4.009,0,0,1,24.339-5.1,3.584,3.584,0,0,1,25.1-6.314a3.726,3.726,0,0,1,1.19-.826,3.768,3.768,0,0,1,1.547-.308,3.768,3.768,0,0,1,1.547.308,3.726,3.726,0,0,1,1.19.826A3.584,3.584,0,0,1,31.339-5.1a4.009,4.009,0,0,1,.266,1.449A4.009,4.009,0,0,1,31.339-2.2a3.584,3.584,0,0,1-.763,1.211,3.726,3.726,0,0,1-1.19.826A3.768,3.768,0,0,1,27.839.14ZM25.655-3.64a2.77,2.77,0,0,0,.168.98,2.436,2.436,0,0,0,.462.777,2.161,2.161,0,0,0,.693.518,1.986,1.986,0,0,0,.861.189,1.986,1.986,0,0,0,.861-.189,2.116,2.116,0,0,0,.693-.525,2.523,2.523,0,0,0,.462-.784,2.77,2.77,0,0,0,.168-.98,2.787,2.787,0,0,0-.168-.973,2.505,2.505,0,0,0-.462-.791,2.116,2.116,0,0,0-.693-.525,1.986,1.986,0,0,0-.861-.189,1.9,1.9,0,0,0-.847.2A2.2,2.2,0,0,0,26.3-5.4a2.612,2.612,0,0,0-.469.791A2.687,2.687,0,0,0,25.655-3.64ZM38.381.14a2.726,2.726,0,0,1-.987-.175,2.386,2.386,0,0,1-.784-.483,2.252,2.252,0,0,1-.518-.728,2.192,2.192,0,0,1-.189-.91,1.962,1.962,0,0,1,.224-.938,2.192,2.192,0,0,1,.637-.728,3.092,3.092,0,0,1,.98-.476A4.4,4.4,0,0,1,39-4.466a5.74,5.74,0,0,1,1.022.091,5.147,5.147,0,0,1,.91.245v-.5A1.7,1.7,0,0,0,40.467-5.9a1.817,1.817,0,0,0-1.33-.455,3.207,3.207,0,0,0-1.155.217,5.843,5.843,0,0,0-1.169.623l-.476-.98a5.192,5.192,0,0,1,2.94-.952,3.353,3.353,0,0,1,2.352.77,2.85,2.85,0,0,1,.84,2.212V-1.82q0,.49.406.5V0q-.224.042-.385.056T42.175.07a.99.99,0,0,1-.693-.224.958.958,0,0,1-.3-.574l-.042-.462A3.265,3.265,0,0,1,39.928-.2,3.555,3.555,0,0,1,38.381.14ZM38.8-.994a2.768,2.768,0,0,0,1.057-.2,1.822,1.822,0,0,0,.777-.567.71.71,0,0,0,.294-.532v-.966A4.655,4.655,0,0,0,40.1-3.5a4.6,4.6,0,0,0-.861-.084,2.355,2.355,0,0,0-1.351.357,1.094,1.094,0,0,0-.525.945,1.193,1.193,0,0,0,.406.917A1.476,1.476,0,0,0,38.8-.994Zm8.274-4.06a4.907,4.907,0,0,1,.343-1.792,4.866,4.866,0,0,1,1-1.582,5.1,5.1,0,0,1,1.6-1.134A5.046,5.046,0,0,1,52.157-10a5.013,5.013,0,0,1,2.5.6,3.876,3.876,0,0,1,1.575,1.575L54.145-6.342a1.756,1.756,0,0,0-.371-.6,1.885,1.885,0,0,0-.511-.378,2.189,2.189,0,0,0-.581-.2,3.176,3.176,0,0,0-.581-.056,2.1,2.1,0,0,0-1.015.231,2.089,2.089,0,0,0-.7.6,2.6,2.6,0,0,0-.406.84,3.4,3.4,0,0,0-.133.931A3.209,3.209,0,0,0,50-3.976a2.593,2.593,0,0,0,.448.84,2.191,2.191,0,0,0,.721.581,2.086,2.086,0,0,0,.959.217A2.736,2.736,0,0,0,52.7-2.4a2.135,2.135,0,0,0,.567-.21,1.914,1.914,0,0,0,.49-.378,1.676,1.676,0,0,0,.343-.567l2.226,1.33a2.833,2.833,0,0,1-.679.98,4.31,4.31,0,0,1-1.036.728,5.492,5.492,0,0,1-1.246.448,5.732,5.732,0,0,1-1.3.154A4.606,4.606,0,0,1,50.05-.357a5.131,5.131,0,0,1-1.582-1.169,5.319,5.319,0,0,1-1.029-1.652A5.079,5.079,0,0,1,47.075-5.054ZM62.111-5.1a5.431,5.431,0,0,0-1.4.168,1.706,1.706,0,0,0-.938.56V0h-2.66V-7.364h2.436v1.4a3.108,3.108,0,0,1,.973-1.141,2.171,2.171,0,0,1,1.253-.4,2.341,2.341,0,0,1,.336.014ZM66.563.14a4.626,4.626,0,0,1-1.722-.3A3.646,3.646,0,0,1,63.574-.98,3.527,3.527,0,0,1,62.8-2.17a3.807,3.807,0,0,1-.266-1.414A4.4,4.4,0,0,1,62.79-5.1a3.5,3.5,0,0,1,.77-1.246,3.72,3.72,0,0,1,1.26-.847A4.469,4.469,0,0,1,66.563-7.5a4.482,4.482,0,0,1,1.736.315,3.758,3.758,0,0,1,1.267.84,3.467,3.467,0,0,1,.77,1.218A4.105,4.105,0,0,1,70.6-3.682q0,.21-.021.427t-.049.385H65.359a1.035,1.035,0,0,0,.434.847,1.518,1.518,0,0,0,.854.259,1.78,1.78,0,0,0,.819-.2.985.985,0,0,0,.511-.546l2.254.644A3.552,3.552,0,0,1,68.852-.42,4.368,4.368,0,0,1,66.563.14Zm1.176-4.606a1.367,1.367,0,0,0-.392-.84,1.146,1.146,0,0,0-.826-.308,1.146,1.146,0,0,0-.826.308,1.367,1.367,0,0,0-.392.84Zm-.364-3.318L65.7-8.232l.7-1.988h2.366ZM74.543.14A3.423,3.423,0,0,1,73.15-.14a3.2,3.2,0,0,1-1.1-.791,3.681,3.681,0,0,1-.721-1.218A4.466,4.466,0,0,1,71.071-3.7a4.668,4.668,0,0,1,.238-1.512,3.748,3.748,0,0,1,.665-1.211,3.059,3.059,0,0,1,1.015-.8,2.928,2.928,0,0,1,1.3-.287,2.706,2.706,0,0,1,1.309.322,2.237,2.237,0,0,1,.917.91V-10.22h2.66v7.28a.9.9,0,0,0,.112.525.535.535,0,0,0,.392.175V0a5.847,5.847,0,0,1-1.12.14Q77.2.14,76.993-.882l-.056-.266a2.3,2.3,0,0,1-1.022.98A3.14,3.14,0,0,1,74.543.14Zm.728-2.24a1.528,1.528,0,0,0,1.26-.756V-4.172a1.88,1.88,0,0,0-.574-.791,1.262,1.262,0,0,0-.8-.3,1.161,1.161,0,0,0-.539.126,1.259,1.259,0,0,0-.42.35,1.838,1.838,0,0,0-.28.518,1.859,1.859,0,0,0-.1.63,1.559,1.559,0,0,0,.4,1.12A1.39,1.39,0,0,0,75.271-2.1Zm5.5,2.1V-7.364h2.66V0Zm0-7.98v-2.24h2.66v2.24Zm9.17,7.574a8.182,8.182,0,0,1-1.2.4,5.1,5.1,0,0,1-1.253.161,3.2,3.2,0,0,1-.854-.112,1.853,1.853,0,0,1-.707-.364,1.737,1.737,0,0,1-.476-.658,2.551,2.551,0,0,1-.175-1.008V-5.362h-.91v-2h.91v-2.31h2.66v2.31h1.442v2H87.941v2.436a.69.69,0,0,0,.154.511.583.583,0,0,0,.42.147,1.872,1.872,0,0,0,.448-.063,3.08,3.08,0,0,0,.5-.175Zm4.3.546A4.469,4.469,0,0,1,92.5-.175a3.774,3.774,0,0,1-1.26-.84,3.467,3.467,0,0,1-.77-1.218,4.105,4.105,0,0,1-.259-1.449,4.105,4.105,0,0,1,.259-1.449,3.467,3.467,0,0,1,.77-1.218,3.774,3.774,0,0,1,1.26-.84A4.469,4.469,0,0,1,94.241-7.5a4.482,4.482,0,0,1,1.736.315,3.758,3.758,0,0,1,1.267.84,3.467,3.467,0,0,1,.77,1.218,4.105,4.105,0,0,1,.259,1.449,4.105,4.105,0,0,1-.259,1.449,3.467,3.467,0,0,1-.77,1.218,3.758,3.758,0,0,1-1.267.84A4.482,4.482,0,0,1,94.241.14Zm-1.3-3.822A1.716,1.716,0,0,0,93.3-2.52a1.184,1.184,0,0,0,.938.42,1.184,1.184,0,0,0,.938-.42,1.716,1.716,0,0,0,.364-1.162,1.716,1.716,0,0,0-.364-1.162,1.184,1.184,0,0,0-.938-.42,1.184,1.184,0,0,0-.938.42A1.716,1.716,0,0,0,92.939-3.682ZM-50.7,17.14a2.8,2.8,0,0,1-1.309-.308,3.244,3.244,0,0,1-1.022-.826A3.848,3.848,0,0,1-53.7,14.8a4.473,4.473,0,0,1-.238-1.463,4.127,4.127,0,0,1,.259-1.47,3.812,3.812,0,0,1,.721-1.2,3.342,3.342,0,0,1,1.092-.812,3.2,3.2,0,0,1,1.372-.294,2.866,2.866,0,0,1,1.512.406,3.224,3.224,0,0,1,1.078,1.05V9.678h1.358v8.414a.518.518,0,0,0,.1.371.57.57,0,0,0,.343.133v1.316q-.21.028-.427.042t-.4.014a1.155,1.155,0,0,1-.819-.322,1.05,1.05,0,0,1-.343-.8v-3.22A3.057,3.057,0,0,1-49.2,16.762,2.991,2.991,0,0,1-50.7,17.14Zm.56-1.316a1.909,1.909,0,0,0,1.211-.4,3.28,3.28,0,0,0,.847-1V12.492a1.657,1.657,0,0,0-.28-.63,2.347,2.347,0,0,0-.5-.511,2.638,2.638,0,0,0-.623-.35,1.78,1.78,0,0,0-.658-.133,1.921,1.921,0,0,0-.9.21,2.263,2.263,0,0,0-.7.56,2.686,2.686,0,0,0-.462.8,2.668,2.668,0,0,0-.168.931,2.689,2.689,0,0,0,.168.952,2.436,2.436,0,0,0,.462.777,2.227,2.227,0,0,0,.7.525A2.034,2.034,0,0,0-50.141,15.824Zm7.7,1.316a2.073,2.073,0,0,1-1.736-.749,3.573,3.573,0,0,1-.588-2.233V9.678h1.54V13.85q0,1.974,1.4,1.974a2.156,2.156,0,0,0,1.246-.406,2.6,2.6,0,0,0,.91-1.176V9.678h1.54v5.5a.607.607,0,0,0,.091.378.44.44,0,0,0,.329.126V17q-.238.042-.392.056t-.294.014a1.12,1.12,0,0,1-.714-.231.763.763,0,0,1-.308-.6l-.028-.728a3.267,3.267,0,0,1-1.274,1.211A3.638,3.638,0,0,1-42.441,17.14Zm9.59,0a3.894,3.894,0,0,1-1.554-.3,3.617,3.617,0,0,1-1.2-.819,3.692,3.692,0,0,1-.77-1.2,3.9,3.9,0,0,1-.273-1.456,3.955,3.955,0,0,1,.273-1.463,3.754,3.754,0,0,1,.77-1.218,3.566,3.566,0,0,1,1.2-.826,3.931,3.931,0,0,1,1.568-.3,3.768,3.768,0,0,1,1.547.308,3.7,3.7,0,0,1,1.183.819,3.5,3.5,0,0,1,.749,1.19A3.953,3.953,0,0,1-29.1,13.29q0,.168-.014.315t-.028.245h-5.866a2.507,2.507,0,0,0,.231.882,2.321,2.321,0,0,0,.49.679,2.134,2.134,0,0,0,.686.441,2.148,2.148,0,0,0,.805.154,2.448,2.448,0,0,0,.609-.077,2.147,2.147,0,0,0,.553-.224,1.96,1.96,0,0,0,.448-.357,1.666,1.666,0,0,0,.308-.462l1.316.378a3.051,3.051,0,0,1-1.253,1.351A3.883,3.883,0,0,1-32.851,17.14Zm2.226-4.354a2.463,2.463,0,0,0-.231-.854,2.2,2.2,0,0,0-.483-.665,2.155,2.155,0,0,0-.686-.427,2.239,2.239,0,0,0-.826-.154,2.185,2.185,0,0,0-.819.154,2.175,2.175,0,0,0-.679.427,2.1,2.1,0,0,0-.476.665,2.563,2.563,0,0,0-.224.854ZM-21.4,17.14a3.141,3.141,0,0,1-1.372-.3,3.429,3.429,0,0,1-1.092-.819,3.8,3.8,0,0,1-.721-1.211,4.225,4.225,0,0,1-.259-1.491,4.237,4.237,0,0,1,.245-1.449,3.836,3.836,0,0,1,.686-1.2,3.315,3.315,0,0,1,1.036-.819,2.858,2.858,0,0,1,1.309-.3,2.835,2.835,0,0,1,1.554.427,3.111,3.111,0,0,1,1.05,1.085V6.78h1.54v8.4a.607.607,0,0,0,.091.378.44.44,0,0,0,.329.126V17q-.238.042-.385.056t-.245.014a1.163,1.163,0,0,1-.756-.238.841.841,0,0,1-.322-.616l-.028-.546a2.921,2.921,0,0,1-1.106,1.078A3.126,3.126,0,0,1-21.4,17.14Zm.378-1.316a2.114,2.114,0,0,0,.672-.112,2.38,2.38,0,0,0,.616-.308,2.165,2.165,0,0,0,.483-.462,1.66,1.66,0,0,0,.287-.574V12.45a2.293,2.293,0,0,0-.357-.644,2.554,2.554,0,0,0-.525-.5,2.4,2.4,0,0,0-.623-.322,2.051,2.051,0,0,0-.665-.112,1.74,1.74,0,0,0-.847.21,2.185,2.185,0,0,0-.665.56,2.761,2.761,0,0,0-.441.8,2.712,2.712,0,0,0-.161.924,2.593,2.593,0,0,0,.175.952,2.486,2.486,0,0,0,.483.784,2.371,2.371,0,0,0,.707.532A1.926,1.926,0,0,0-21.021,15.824Zm8.876,1.316a3.894,3.894,0,0,1-1.554-.3,3.617,3.617,0,0,1-1.2-.819,3.692,3.692,0,0,1-.77-1.2,3.9,3.9,0,0,1-.273-1.456,3.955,3.955,0,0,1,.273-1.463,3.754,3.754,0,0,1,.77-1.218,3.566,3.566,0,0,1,1.2-.826,3.931,3.931,0,0,1,1.568-.3,3.768,3.768,0,0,1,1.547.308,3.7,3.7,0,0,1,1.183.819,3.5,3.5,0,0,1,.749,1.19,3.953,3.953,0,0,1,.259,1.421q0,.168-.014.315t-.028.245H-14.3a2.507,2.507,0,0,0,.231.882,2.321,2.321,0,0,0,.49.679,2.134,2.134,0,0,0,.686.441,2.148,2.148,0,0,0,.805.154,2.448,2.448,0,0,0,.609-.077,2.147,2.147,0,0,0,.553-.224,1.96,1.96,0,0,0,.448-.357,1.666,1.666,0,0,0,.308-.462l1.316.378a3.051,3.051,0,0,1-1.253,1.351A3.883,3.883,0,0,1-12.145,17.14Zm2.226-4.354a2.463,2.463,0,0,0-.231-.854,2.2,2.2,0,0,0-.483-.665,2.155,2.155,0,0,0-.686-.427,2.239,2.239,0,0,0-.826-.154,2.185,2.185,0,0,0-.819.154,2.175,2.175,0,0,0-.679.427,2.1,2.1,0,0,0-.476.665,2.563,2.563,0,0,0-.224.854Zm5.53-.84a4.907,4.907,0,0,1,.343-1.792,4.866,4.866,0,0,1,1-1.582,5.1,5.1,0,0,1,1.6-1.134A5.046,5.046,0,0,1,.693,7a5.013,5.013,0,0,1,2.5.6A3.876,3.876,0,0,1,4.767,9.174L2.681,10.658a1.756,1.756,0,0,0-.371-.6A1.885,1.885,0,0,0,1.8,9.678a2.189,2.189,0,0,0-.581-.2,3.176,3.176,0,0,0-.581-.056,2.1,2.1,0,0,0-1.015.231,2.089,2.089,0,0,0-.7.6,2.6,2.6,0,0,0-.406.84,3.4,3.4,0,0,0-.133.931,3.209,3.209,0,0,0,.154.994,2.593,2.593,0,0,0,.448.84,2.191,2.191,0,0,0,.721.581,2.086,2.086,0,0,0,.959.217,2.736,2.736,0,0,0,.574-.063,2.135,2.135,0,0,0,.567-.21,1.914,1.914,0,0,0,.49-.378,1.676,1.676,0,0,0,.343-.567l2.226,1.33a2.833,2.833,0,0,1-.679.98,4.31,4.31,0,0,1-1.036.728A5.493,5.493,0,0,1,1.9,16.93a5.732,5.732,0,0,1-1.3.154,4.606,4.606,0,0,1-2.023-.441A5.131,5.131,0,0,1-3,15.474a5.319,5.319,0,0,1-1.029-1.652A5.079,5.079,0,0,1-4.389,11.946ZM9.205,17.14a4.469,4.469,0,0,1-1.743-.315,3.774,3.774,0,0,1-1.26-.84,3.467,3.467,0,0,1-.77-1.218,4.183,4.183,0,0,1,0-2.9,3.467,3.467,0,0,1,.77-1.218,3.774,3.774,0,0,1,1.26-.84A4.469,4.469,0,0,1,9.205,9.5a4.482,4.482,0,0,1,1.736.315,3.758,3.758,0,0,1,1.267.84,3.467,3.467,0,0,1,.77,1.218,4.183,4.183,0,0,1,0,2.9,3.467,3.467,0,0,1-.77,1.218,3.758,3.758,0,0,1-1.267.84A4.482,4.482,0,0,1,9.205,17.14ZM7.9,13.318a1.716,1.716,0,0,0,.364,1.162,1.257,1.257,0,0,0,1.876,0,1.716,1.716,0,0,0,.364-1.162,1.716,1.716,0,0,0-.364-1.162,1.257,1.257,0,0,0-1.876,0A1.716,1.716,0,0,0,7.9,13.318ZM21.581,17h-2.66V12.856a1.085,1.085,0,0,0-.245-.791.778.778,0,0,0-.567-.245,1.187,1.187,0,0,0-.714.294,1.751,1.751,0,0,0-.56.756V17h-2.66V9.636h2.394v1.092a2.478,2.478,0,0,1,1.1-.917A4.085,4.085,0,0,1,19.341,9.5a2.262,2.262,0,0,1,1.2.273,1.908,1.908,0,0,1,.672.679,2.5,2.5,0,0,1,.3.868,5.65,5.65,0,0,1,.07.84Zm6.454-.406a8.182,8.182,0,0,1-1.2.4,5.1,5.1,0,0,1-1.253.161,3.2,3.2,0,0,1-.854-.112,1.853,1.853,0,0,1-.707-.364,1.737,1.737,0,0,1-.476-.658,2.551,2.551,0,0,1-.175-1.008V11.638h-.91v-2h.91V7.326h2.66v2.31h1.442v2H26.033v2.436a.69.69,0,0,0,.154.511.583.583,0,0,0,.42.147,1.872,1.872,0,0,0,.448-.063,3.08,3.08,0,0,0,.5-.175Zm2.926.546a2.837,2.837,0,0,1-1.022-.182,2.533,2.533,0,0,1-.819-.5,2.278,2.278,0,0,1-.539-.749,2.252,2.252,0,0,1-.2-.938,2.2,2.2,0,0,1,.238-1.022,2.452,2.452,0,0,1,.658-.8,3.037,3.037,0,0,1,1-.518,4.27,4.27,0,0,1,1.281-.182,3.451,3.451,0,0,1,1.484.28V12.31a.947.947,0,0,0-.3-.77,1.51,1.51,0,0,0-.973-.252,3.233,3.233,0,0,0-1.162.2,5.719,5.719,0,0,0-1.12.6l-.77-1.652A5.992,5.992,0,0,1,32.039,9.5a4.168,4.168,0,0,1,2.716.784,2.87,2.87,0,0,1,.952,2.352V14.06a.9.9,0,0,0,.112.525.535.535,0,0,0,.392.175V17q-.322.07-.609.1a4.271,4.271,0,0,1-.511.035,1.891,1.891,0,0,1-1.085-.259,1.208,1.208,0,0,1-.483-.763l-.056-.266a3.388,3.388,0,0,1-1.134.959A2.974,2.974,0,0,1,30.961,17.14Zm.8-1.9a1.673,1.673,0,0,0,.49-.077,1.792,1.792,0,0,0,.448-.2,1.147,1.147,0,0,0,.252-.245.456.456,0,0,0,.1-.273v-.546a3.791,3.791,0,0,0-.518-.14,2.6,2.6,0,0,0-.5-.056,1.329,1.329,0,0,0-.812.238.721.721,0,0,0-.322.6.617.617,0,0,0,.245.5A.966.966,0,0,0,31.759,15.236Zm8.5,1.9a3.423,3.423,0,0,1-1.393-.28,3.2,3.2,0,0,1-1.1-.791,3.681,3.681,0,0,1-.721-1.218,4.466,4.466,0,0,1-.259-1.547,4.668,4.668,0,0,1,.238-1.512,3.748,3.748,0,0,1,.665-1.211,3.059,3.059,0,0,1,1.015-.8,2.928,2.928,0,0,1,1.3-.287,2.706,2.706,0,0,1,1.309.322,2.237,2.237,0,0,1,.917.91V6.78h2.66v7.28a.9.9,0,0,0,.112.525.535.535,0,0,0,.392.175V17a5.848,5.848,0,0,1-1.12.14q-1.358,0-1.568-1.022l-.056-.266a2.3,2.3,0,0,1-1.022.98A3.14,3.14,0,0,1,40.257,17.14Zm.728-2.24a1.528,1.528,0,0,0,1.26-.756V12.828a1.88,1.88,0,0,0-.574-.791,1.262,1.262,0,0,0-.8-.3,1.161,1.161,0,0,0-.539.126,1.259,1.259,0,0,0-.42.35,1.838,1.838,0,0,0-.28.518,1.859,1.859,0,0,0-.105.63,1.559,1.559,0,0,0,.4,1.12A1.39,1.39,0,0,0,40.985,14.9Zm9.128,2.24a4.469,4.469,0,0,1-1.743-.315,3.774,3.774,0,0,1-1.26-.84,3.467,3.467,0,0,1-.77-1.218,4.183,4.183,0,0,1,0-2.9,3.467,3.467,0,0,1,.77-1.218,3.774,3.774,0,0,1,1.26-.84,4.96,4.96,0,0,1,3.479,0,3.758,3.758,0,0,1,1.267.84,3.467,3.467,0,0,1,.77,1.218,4.183,4.183,0,0,1,0,2.9,3.467,3.467,0,0,1-.77,1.218,3.758,3.758,0,0,1-1.267.84A4.482,4.482,0,0,1,50.113,17.14Zm-1.3-3.822a1.716,1.716,0,0,0,.364,1.162,1.257,1.257,0,0,0,1.876,0,1.716,1.716,0,0,0,.364-1.162,1.716,1.716,0,0,0-.364-1.162,1.257,1.257,0,0,0-1.876,0A1.716,1.716,0,0,0,48.811,13.318Z" transform="translate(162 490.069)"/></g><path class="f" d="M-73.444-9.956a3.241,3.241,0,0,0-.485-.361,5.887,5.887,0,0,0-.855-.447,7.364,7.364,0,0,0-1.092-.371,4.771,4.771,0,0,0-1.2-.152,2.684,2.684,0,0,0-1.615.4,1.32,1.32,0,0,0-.532,1.121,1.152,1.152,0,0,0,.2.693,1.725,1.725,0,0,0,.579.484,4.875,4.875,0,0,0,.96.38q.579.171,1.34.361.988.266,1.8.57a4.865,4.865,0,0,1,1.368.76,3.138,3.138,0,0,1,.865,1.092,3.622,3.622,0,0,1,.3,1.568A3.9,3.9,0,0,1-72.219-2a3.432,3.432,0,0,1-1.1,1.244,4.79,4.79,0,0,1-1.6.693,8.008,8.008,0,0,1-1.89.219,10.155,10.155,0,0,1-3-.456A9.269,9.269,0,0,1-82.469-1.6l1.159-2.261a3.661,3.661,0,0,0,.618.446,9.438,9.438,0,0,0,1.054.551,8.2,8.2,0,0,0,1.349.465,6.1,6.1,0,0,0,1.52.19q2.166,0,2.166-1.387a1.137,1.137,0,0,0-.247-.741,2.1,2.1,0,0,0-.7-.532,6.729,6.729,0,0,0-1.1-.418Q-77.3-5.472-78.1-5.7a12.276,12.276,0,0,1-1.682-.579,4.421,4.421,0,0,1-1.187-.741,2.777,2.777,0,0,1-.713-.988,3.422,3.422,0,0,1-.237-1.34,4.193,4.193,0,0,1,.38-1.824,3.687,3.687,0,0,1,1.055-1.33,4.777,4.777,0,0,1,1.567-.807A6.477,6.477,0,0,1-77-13.585a7.447,7.447,0,0,1,2.622.446,9.764,9.764,0,0,1,2.09,1.055Zm9.31,7.733a3.009,3.009,0,0,0,1.567-.38,3.065,3.065,0,0,0,1.026-.988,4.08,4.08,0,0,0,.551-1.4,8.076,8.076,0,0,0,.161-1.625V-13.49h2.6v6.878a9.834,9.834,0,0,1-.332,2.6A5.972,5.972,0,0,1-59.6-1.881,5.007,5.007,0,0,1-61.436-.437a6.2,6.2,0,0,1-2.679.532,6.133,6.133,0,0,1-2.745-.56,5.124,5.124,0,0,1-1.834-1.482,5.914,5.914,0,0,1-1.016-2.138,10.082,10.082,0,0,1-.313-2.527V-13.49H-67.4v6.878a8.173,8.173,0,0,0,.161,1.643,4.081,4.081,0,0,0,.551,1.4,3.006,3.006,0,0,0,1.017.978A2.978,2.978,0,0,0-64.134-2.223ZM-55.584,0V-13.49h5.719a3.829,3.829,0,0,1,1.72.39,4.448,4.448,0,0,1,1.358,1.026,4.842,4.842,0,0,1,.893,1.444,4.343,4.343,0,0,1,.323,1.624,4.682,4.682,0,0,1-.3,1.663,4.616,4.616,0,0,1-.855,1.435A4.2,4.2,0,0,1-48.06-4.9a3.848,3.848,0,0,1-1.71.38h-3.192V0Zm2.622-6.821h3.04a1.5,1.5,0,0,0,1.207-.589,2.437,2.437,0,0,0,.484-1.6,2.628,2.628,0,0,0-.152-.921,2.239,2.239,0,0,0-.4-.694,1.588,1.588,0,0,0-.58-.427,1.7,1.7,0,0,0-.674-.142h-2.926ZM-34.38-2.3V0h-9.367V-13.49h9.2v2.3h-6.574v3.249h5.681v2.128h-5.681V-2.3ZM-32.328,0V-13.49h5.966a3.829,3.829,0,0,1,1.719.39,4.448,4.448,0,0,1,1.359,1.026,4.842,4.842,0,0,1,.893,1.444,4.343,4.343,0,0,1,.323,1.624,4.486,4.486,0,0,1-.656,2.385A3.762,3.762,0,0,1-24.5-5.073L-21.422,0h-2.945l-2.755-4.522h-2.584V0Zm2.622-6.821h3.287a1.387,1.387,0,0,0,.675-.171,1.725,1.725,0,0,0,.542-.466,2.321,2.321,0,0,0,.361-.693,2.687,2.687,0,0,0,.133-.855,2.436,2.436,0,0,0-.152-.874,2.281,2.281,0,0,0-.409-.694,1.848,1.848,0,0,0-.589-.456,1.529,1.529,0,0,0-.674-.161h-3.173ZM-4.265-3.477a3.162,3.162,0,0,1-.342,1.5A3.152,3.152,0,0,1-5.548-.893a4.4,4.4,0,0,1-1.387.665A6.027,6.027,0,0,1-8.616,0h-6.517V-13.49h7.22a2.662,2.662,0,0,1,1.273.3,3.178,3.178,0,0,1,.969.789,3.614,3.614,0,0,1,.618,1.1,3.708,3.708,0,0,1,.218,1.245A3.673,3.673,0,0,1-5.329-8.2,3.009,3.009,0,0,1-6.773-6.916,3.468,3.468,0,0,1-4.94-5.69,3.542,3.542,0,0,1-4.265-3.477Zm-2.641-.494a1.976,1.976,0,0,0-.123-.693,1.926,1.926,0,0,0-.333-.58,1.549,1.549,0,0,0-.494-.39,1.382,1.382,0,0,0-.627-.142h-4.028v3.553h3.9a1.709,1.709,0,0,0,.674-.133A1.617,1.617,0,0,0-7.4-2.727a1.777,1.777,0,0,0,.361-.56A1.779,1.779,0,0,0-6.906-3.971Zm-5.605-7.277v3.4h3.5A1.556,1.556,0,0,0-7.885-8.3a1.675,1.675,0,0,0,.465-1.254,1.733,1.733,0,0,0-.427-1.235A1.388,1.388,0,0,0-8.9-11.248ZM7.154-2.3V0H-2.213V-13.49h9.2v2.3H.409v3.249H6.09v2.128H.409V-2.3Zm4.674-6.346V0H9.205V-13.49h2.033l7.03,8.854v-8.835H20.89V0H18.763ZM33.069-2.3V0H23.7V-13.49h9.2v2.3H26.325v3.249h5.681v2.128H26.325V-2.3ZM35.121,0V-13.49h9.063v2.3H37.743v3.477H43.1v2.128H37.743V0ZM46.028,0V-13.49H48.65V0Zm4.617-6.84a6.987,6.987,0,0,1,.446-2.441,6.638,6.638,0,0,1,1.3-2.156,6.59,6.59,0,0,1,2.09-1.539,6.455,6.455,0,0,1,2.812-.589,6.131,6.131,0,0,1,3.221.817,5.218,5.218,0,0,1,2.024,2.128L60.524-9.234a3.444,3.444,0,0,0-.646-.959,3.231,3.231,0,0,0-.817-.618,3.667,3.667,0,0,0-.912-.332,4.325,4.325,0,0,0-.931-.1,3.537,3.537,0,0,0-1.72.4,3.783,3.783,0,0,0-1.216,1.036,4.566,4.566,0,0,0-.732,1.444A5.466,5.466,0,0,0,53.3-6.764a5.238,5.238,0,0,0,.285,1.719A4.576,4.576,0,0,0,54.4-3.591a4.039,4.039,0,0,0,1.254,1.007,3.43,3.43,0,0,0,1.605.38,4.223,4.223,0,0,0,.95-.114,3.612,3.612,0,0,0,.94-.361,3.564,3.564,0,0,0,.826-.636,2.938,2.938,0,0,0,.608-.941l2.147,1.235a4.055,4.055,0,0,1-.922,1.339A5.929,5.929,0,0,1,60.458-.7a6.89,6.89,0,0,1-1.605.608A7.027,7.027,0,0,1,57.18.114a5.747,5.747,0,0,1-2.641-.608A6.877,6.877,0,0,1,52.478-2.08,7.362,7.362,0,0,1,51.129-4.3,6.938,6.938,0,0,1,50.644-6.84ZM64.5,0V-13.49h2.622V0ZM75.687.095A6.129,6.129,0,0,1,73-.484a6.6,6.6,0,0,1-2.071-1.539,7,7,0,0,1-1.34-2.194,6.984,6.984,0,0,1-.475-2.527,6.78,6.78,0,0,1,.5-2.584A7.131,7.131,0,0,1,71-11.514a6.617,6.617,0,0,1,2.1-1.511,6.232,6.232,0,0,1,2.641-.56,5.923,5.923,0,0,1,2.669.6,6.668,6.668,0,0,1,2.062,1.567,7.217,7.217,0,0,1,1.33,2.2,6.935,6.935,0,0,1,.475,2.508,6.822,6.822,0,0,1-.494,2.574,6.99,6.99,0,0,1-1.368,2.166,6.578,6.578,0,0,1-2.09,1.5A6.232,6.232,0,0,1,75.687.095Zm-3.914-6.84a5.428,5.428,0,0,0,.266,1.691,4.514,4.514,0,0,0,.77,1.444A3.826,3.826,0,0,0,74.043-2.6a3.553,3.553,0,0,0,1.662.38,3.523,3.523,0,0,0,1.682-.389,3.829,3.829,0,0,0,1.235-1.036,4.616,4.616,0,0,0,.76-1.454,5.4,5.4,0,0,0,.257-1.643,5.257,5.257,0,0,0-.275-1.691,4.662,4.662,0,0,0-.779-1.444,3.719,3.719,0,0,0-1.235-1,3.585,3.585,0,0,0-1.644-.371,3.58,3.58,0,0,0-1.691.389,3.749,3.749,0,0,0-1.235,1.026,4.608,4.608,0,0,0-.75,1.444A5.4,5.4,0,0,0,71.772-6.745Z" transform="translate(160 470)"/></g></svg>