<svg xmlns="http://www.w3.org/2000/svg" xmlns:xlink="http://www.w3.org/1999/xlink" width="171.831" height="142.515" viewBox="0 0 171.831 142.515"><defs><style>.a{fill:#ebebeb;}.b{fill:url(#a);}.c{fill:#efb7b9;}.d,.n,.r,.s{opacity:0.1;}.e{fill:#ed1d24;}.f{opacity:0.158;}.g{fill:#b07473;}.h{fill:#444053;}.i{opacity:0.52;}.j{fill:#67647e;}.k{fill:#e1e7ef;}.l{fill:url(#b);}.m{fill:#585268;}.o{fill:none;stroke:#535461;stroke-miterlimit:10;stroke-width:2px;}.p{fill:#6c63ff;}.q{fill:#a8a8a8;}.r{fill:#fff;}.s,.t{fill:#707070;}.t{opacity:0.3;}</style><linearGradient id="a" x1="0.5" y1="0.982" x2="0.5" y2="0.216" gradientUnits="objectBoundingBox"><stop offset="0" stop-color="gray" stop-opacity="0.251"/><stop offset="0.54" stop-color="gray" stop-opacity="0.122"/><stop offset="1" stop-color="gray" stop-opacity="0.102"/></linearGradient><linearGradient id="b" x1="-0.045" y1="-0.254" x2="0.967" y2="-0.254" xlink:href="#a"/></defs><g transform="translate(-66.99 -70.485)"><circle class="a" cx="71" cy="71" r="71" transform="translate(86 71)"/><g transform="translate(66.981 70.468)"><path class="b" d="M450.254,363.339c-.67-.058-3-1.939-4.356-2.493-.623-.255-1.013.284-1.254.94a17.08,17.08,0,0,0-2.409-1.413.689.689,0,0,0-.557-.011c-.87.377-1.057,2.653-1.057,2.653l.03.143a5.731,5.731,0,0,1-2.265.583,6.9,6.9,0,0,0-1.823.289c-.305.151-3.855,1.005-5.9,1.629a58.283,58.283,0,0,0-7.315,3.728l-5,1.124-.7-.135c-.223-.8-1.245-.8-2.441-.471-1.943-.357-3.882-.634-4.509-.35,1.791-.912,3.993-2.359,3.967-3.956-.035-2.178-4.346.877-5.978,2.112l-.14.106-.037-.138a10.6,10.6,0,0,1-3.728.4,5.6,5.6,0,0,0-3.9,1.251c-.228.119-2.551.9-2.73.932-.14.022-4.146.385-6.168.567-2.8-.252-6.834.188-7.056.606a20.611,20.611,0,0,1-3.328,2.236l-1.054.276s-.125.321-.27.732a2.856,2.856,0,0,1-.26-.5,8.487,8.487,0,0,1-.373-1.311h0c-.013-.059-.027-.119-.042-.178a.214.214,0,0,0-.011-.043l-.039-.149-.01-.037a5.217,5.217,0,0,0-.19-.567h0a3.014,3.014,0,0,0-.273-.532h0a1.881,1.881,0,0,0-.607-.6,3.277,3.277,0,0,0-1.359-.357,5.945,5.945,0,0,0-1.193-.051c-.342.032-.678.125-1.02.146a7.9,7.9,0,0,1-1.638-.207,2.287,2.287,0,0,0-1.606.223,3.394,3.394,0,0,0-.871,1.1A7.1,7.1,0,0,1,369,373.532c-.482.349-1.03.684-1.2,1.246a3.35,3.35,0,0,0,.175,1.661c.238,1.221-.146,2.56.281,3.694h0c.01.026.019.05.031.075.024.061.05.124.08.183h0a1.648,1.648,0,0,0,.09.161,1.212,1.212,0,0,0,.106.146.851.851,0,0,0,.127.125.77.77,0,0,0,.149.1,1.1,1.1,0,0,0,.625.072l.116-.016.106-.019a3.258,3.258,0,0,0,.369-.088,1.43,1.43,0,0,0,.344-.153.776.776,0,0,0,.358-.557,1.879,1.879,0,0,0,.022-.3v-.071l.024.074h0a4.775,4.775,0,0,0,8.7.668l.182-.061a11.238,11.238,0,0,1,1.786-.414h0a3.686,3.686,0,0,0,.222.389c1.977,3.082,8.156,3.188,8.156,3.188s6.828-.265,7.356-.4a4.138,4.138,0,0,1,2.559.525c.455.422,2.458.6,3.108-.495s1.4-.882,1.4-.882a3.242,3.242,0,0,0,.344-.586l.435.021a21.694,21.694,0,0,1,3.391.34,8.975,8.975,0,0,0,4.478-.357c1.365-.575,5.622-3.013,5.622-3.013s2.647-.8,3.118-.964a9.29,9.29,0,0,0,1.7-1.336l2.538-.983a18.423,18.423,0,0,1,3.811-1.6,4.562,4.562,0,0,0,2.156-1.14l7.188-3.347a3.733,3.733,0,0,1,1.446.072c.642.2,4.827-.413,6.094-1.767,0,0,.047-.175.109-.461.058,0,.117-.011.18-.013.27.059.435.1.435.1a11.14,11.14,0,0,0,1.7,1.049c.853.41,1.767.634,2.088-.067a1.26,1.26,0,0,0,.1-.341c.826.586,3.6,2.393,3.683.241C454.972,365.7,450.923,363.4,450.254,363.339Z" transform="translate(-319.118 -307.441)"/><path class="c" d="M431.894,453.7a9.316,9.316,0,0,0-3.106.5,11.436,11.436,0,0,0-1.743.712c-2.66,1.34-.451-5.888-.451-5.888s.74,0,1.63-.076a6.755,6.755,0,0,0,2.811-.631C431.9,447.632,431.894,453.7,431.894,453.7Z" transform="translate(-367.8 -381.27)"/><path class="c" d="M625.647,390c.032,2.021-3.553,3.8-5.255,4.529-.53.226-.88.352-.88.352l-.371-2.326s.233-.188.609-.472C621.366,390.861,625.611,387.848,625.647,390Z" transform="translate(-530.142 -331.73)"/><path class="d" d="M620.391,409.346c-.53.227-.88.352-.88.352l-.371-2.326s.233-.188.609-.472Z" transform="translate(-530.142 -346.55)"/><path class="e" d="M513.31,409.921s7.029-.631,7.213-.662,2.475-.8,2.7-.917a5.53,5.53,0,0,1,3.842-1.235,10.449,10.449,0,0,0,3.678-.4l.827,3.148-16.695,1.894Z" transform="translate(-441.31 -346.39)"/><path class="f" d="M513.31,409.921s7.029-.631,7.213-.662,2.475-.8,2.7-.917a5.53,5.53,0,0,1,3.842-1.235,10.449,10.449,0,0,0,3.678-.4l.827,3.148-16.695,1.894Z" transform="translate(-441.31 -346.39)"/><path class="g" d="M819.05,364.045s.257-3.153,1.59-2.607,3.636,2.409,4.3,2.461,4.658,2.327,4.563,4.819-3.855-.4-3.855-.4-3.5-.859-4.629-.472S819.05,364.045,819.05,364.045Z" transform="translate(-697.943 -308.336)"/><path class="d" d="M829.533,368.754c-.092,2.491-3.855-.4-3.855-.4s-3.5-.859-4.629-.472c-.321.112-.642-.161-.9-.612a11.891,11.891,0,0,1-1.005-2.93c-.037-.161-.055-.255-.055-.255s.257-3.153,1.59-2.605,3.635,2.4,4.295,2.459S829.623,366.262,829.533,368.754Z" transform="translate(-697.977 -308.368)"/><path class="d" d="M822.572,378.734c-.114.292-.922.757-2.176,1.324a11.889,11.889,0,0,1-1.005-2.93c.236-.1.4-.218.43-.35C819.914,376.338,823.226,377.057,822.572,378.734Z" transform="translate(-698.228 -321.16)"/><path class="h" d="M665.15,385.17l7.686-1.741a57.019,57.019,0,0,1,7.228-3.677c2.024-.614,5.514-1.457,5.816-1.606a6.744,6.744,0,0,1,1.8-.286c.644-.04,2.281-.321,2.374-.76s3.405.278,2.751,1.955-24.011,8.974-24.011,8.974Z" transform="translate(-568.762 -321.431)"/><path class="i" d="M665.15,385.17l7.686-1.741a57.019,57.019,0,0,1,7.228-3.677c2.024-.614,5.514-1.457,5.816-1.606a6.744,6.744,0,0,1,1.8-.286c.644-.04,2.281-.321,2.374-.76s3.405.278,2.751,1.955-24.011,8.974-24.011,8.974Z" transform="translate(-568.762 -321.431)"/><path class="g" d="M852.005,371.626c-.092,2.493-3.855-.4-3.855-.4a20.074,20.074,0,0,0-3.908-.572,2.41,2.41,0,0,0-.721.1c-1.124.387-1.961-3.8-1.961-3.8s.016-.2.063-.495c.137-.867.532-2.52,1.529-2.112,1.333.548,3.635,2.409,4.295,2.459S852.095,369.14,852.005,371.626Z" transform="translate(-716.837 -310.778)"/><path class="d" d="M844.212,380.1a2.411,2.411,0,0,0-.721.1c-1.124.387-1.961-3.8-1.961-3.8s.016-.2.063-.495c.938-.2,1.723-.381,1.723-.381C845.038,375.605,844.472,378.906,844.212,380.1Z" transform="translate(-716.812 -320.218)"/><path class="h" d="M629.769,380.814c-1.251,1.338-5.382,1.942-6.012,1.746a3.677,3.677,0,0,0-1.421-.074l-7.09,3.3a4.528,4.528,0,0,1-2.127,1.124,18.319,18.319,0,0,0-3.76,1.574l-2.5.964a9.316,9.316,0,0,1-1.685,1.338c-.463.161-3.076.949-3.076.949s-4.2,2.409-5.544,2.973a8.888,8.888,0,0,1-4.417.35,21.215,21.215,0,0,0-3.342-.336c-.536-.027-.919-.042-.919-.042l-1.323-10.008s1.094-.243,2.475-.569a46.918,46.918,0,0,0,5.344-1.465c1.226-.577,7.758,1.124,8.956,1.148s7.31-1.927,7.31-1.927,7.636-4.308,9.181-4.309a36.01,36.01,0,0,0,4.8-.846c1.246-.172,4.359-.885,4.359-.885C631.075,375.916,629.769,380.814,629.769,380.814Z" transform="translate(-502.787 -320.462)"/><path class="d" d="M429.279,454.828a4.7,4.7,0,0,1-.492,2.954,11.433,11.433,0,0,0-1.743.712c-2.66,1.34-.451-5.888-.451-5.888s.74,0,1.63-.076A4.685,4.685,0,0,1,429.279,454.828Z" transform="translate(-367.8 -384.851)"/><path class="c" d="M397.882,446.29a4.711,4.711,0,0,1-9.088,2.329h0c-.029-.08-.055-.161-.08-.243a4.589,4.589,0,0,1-.138-.6,4.713,4.713,0,0,1,9.21-1.943A4.226,4.226,0,0,1,397.882,446.29Z" transform="translate(-336.562 -376.287)"/><path class="d" d="M588.665,433.658a4.579,4.579,0,0,1,.127,4.261c-.536-.027-.919-.042-.919-.042L586.55,427.87s1.094-.243,2.475-.569l.143-.011S587.25,430.9,588.665,433.658Z" transform="translate(-502.787 -363.665)"/><path class="e" d="M470.091,432.273a4.467,4.467,0,0,1-.161,4.743s-.737-.207-1.378.871-2.621.906-3.066.482a4.015,4.015,0,0,0-2.523-.519c-.52.138-7.255.4-7.255.4s-6.094-.1-8.045-3.143a3.731,3.731,0,0,1-.218-.382,22.358,22.358,0,0,1-1.589-3.524,3.83,3.83,0,0,1,.209-1.124c.2-.683.482-1.375.482-1.375l1.039-.273a20.341,20.341,0,0,0,3.281-2.2c.249-.474,5.429-.973,8.061-.445a49.066,49.066,0,0,0,7.608.461l4.067-.342S468.684,429.517,470.091,432.273Z" transform="translate(-384.688 -362.204)"/><path class="d" d="M559.61,491.856a12.212,12.212,0,0,0,1.767-.853C562.313,490.442,559.61,491.856,559.61,491.856Z" transform="translate(-480.174 -417.034)"/><path class="d" d="M467,435.052a5.418,5.418,0,0,0,6.28,2.5,14.9,14.9,0,0,1,7.483-.321,33.718,33.718,0,0,0,4.74-.536,29.942,29.942,0,0,1,3.383-1.054c.631-.128,1.511-.382,2.208-.6s4.422-1,4.422-1-1.177-2.631-.607-2.967c0,0-3.677.748-3.718.482s-4.162-.429-4.5-.161-4.015.533-4.337.654-6.007.62-6.007.62S467.819,429.2,467,435.052Z" transform="translate(-402.439 -366.838)"/><path class="c" d="M635,421.3s6.7-3.882,6.945-1.319-6.3,3.5-6.3,3.5Z" transform="translate(-543.455 -356.798)"/><path class="d" d="M467.5,431.932a5.424,5.424,0,0,0,6.28,2.5,14.912,14.912,0,0,1,7.485-.321A33.679,33.679,0,0,0,486,433.57a29.85,29.85,0,0,1,3.384-1.054c.63-.129,1.511-.382,2.209-.6s4.422-1,4.422-1-1.179-2.631-.609-2.967c0,0-3.675.748-3.718.482s-4.162-.429-4.5-.161-4.015.533-4.337.654-6,.618-6,.618S468.321,426.077,467.5,431.932Z" transform="translate(-402.858 -364.219)"/><path class="e" d="M466.67,433.072a5.419,5.419,0,0,0,6.28,2.5,14.907,14.907,0,0,1,7.485-.321,33.682,33.682,0,0,0,4.738-.536,29.873,29.873,0,0,1,3.384-1.055c.63-.127,1.511-.382,2.208-.6s4.422-1,4.422-1-1.179-2.633-.609-2.967c0,0-3.675.748-3.718.482s-4.162-.429-4.5-.161-4.007.533-4.337.655-6.006.615-6.006.615S467.491,427.217,466.67,433.072Z" transform="translate(-402.162 -365.176)"/><path class="d" d="M553.6,438.835c-.063-.172,1.017-.09,3.147-.5s5.715-1.394,5.715-1.394S554.075,440.133,553.6,438.835Z" transform="translate(-475.124 -371.765)"/><path class="d" d="M497.578,441.38s.1.289-.938.916" transform="translate(-427.318 -375.492)"/><path class="d" d="M512.1,444a1.15,1.15,0,0,1-.758,1.362" transform="translate(-439.657 -377.691)"/><path class="d" d="M457.87,450.011l.829.769s.89.482.985.739,1.9.21,1.9.21l2.088,1.317-.887-1.237a2.422,2.422,0,0,0,2.046-.435c1.017-.758,3.034-2.731,3.034-2.731l3.641-2.833.061-1.826-2.865-.464-6.669,6.756-1.511.214-1.606-.178Z" transform="translate(-394.775 -377.288)"/><path class="j" d="M456.73,449.223l.829.769s.888.482.985.739,1.9.21,1.9.21l2.088,1.317-.887-1.237a2.417,2.417,0,0,0,2.045-.435c1.018-.758,3.036-2.73,3.036-2.73l3.646-2.825.061-1.826-2.865-.464-6.677,6.756-1.511.214-1.606-.178Z" transform="translate(-393.818 -376.633)"/><path class="d" d="M451.58,458.625l-1.828.827a3.467,3.467,0,0,1-.217-.384,22.277,22.277,0,0,1-1.59-3.524,3.789,3.789,0,0,1,.21-1.124Z" transform="translate(-386.442 -386.437)"/><path class="k" d="M449.45,457.955l-1.828.826a3.732,3.732,0,0,1-.218-.382,22.357,22.357,0,0,1-1.589-3.524,3.828,3.828,0,0,1,.209-1.124Z" transform="translate(-384.655 -385.875)"/><path class="l" d="M397.718,445.822a.851.851,0,0,1-.283.238c-.284.13-.615,0-.927.014s-.626.185-.949.21a2.472,2.472,0,0,1-.675-.084,2.008,2.008,0,0,0-1.285.055.808.808,0,0,0-.411,1.081,1.228,1.228,0,0,1-1.174.41c-1.012-.143-1.86-1.014-2.891-.339-.448.3-.419.757-.41,1.2-.029-.08-.055-.161-.08-.243a4.6,4.6,0,0,1-.138-.6,4.713,4.713,0,0,1,9.21-1.944Z" transform="translate(-336.494 -376.278)"/><path class="m" d="M374.052,432.77a1.963,1.963,0,0,1-.7.238,1.324,1.324,0,0,1-.835-.037,1.1,1.1,0,0,1-.464-.517c-.594-1.179-.135-2.612-.387-3.908a3.421,3.421,0,0,1-.173-1.638c.165-.53.72-.885,1.187-1.229a7.042,7.042,0,0,0,1.767-1.892,3.339,3.339,0,0,1,.858-1.079,2.234,2.234,0,0,1,1.579-.22,7.778,7.778,0,0,0,1.616.2c.337-.019.668-.111,1.005-.143a5.676,5.676,0,0,1,1.177.051,3.238,3.238,0,0,1,1.34.35,3.1,3.1,0,0,1,1.158,2.088,3.913,3.913,0,0,0,.988,2.2.559.559,0,0,1,.222.276.482.482,0,0,1-.14.363l-.732.973a1.083,1.083,0,0,1-.381.363c-.283.132-.615,0-.927.013s-.625.188-.949.212a2.409,2.409,0,0,1-.675-.083,1.981,1.981,0,0,0-1.277.055.814.814,0,0,0-.411,1.081,1.227,1.227,0,0,1-1.174.41c-1.013-.141-1.862-1.013-2.891-.339C373.993,431.12,374.846,432.267,374.052,432.77Z" transform="translate(-322.22 -359.594)"/><g class="n" transform="translate(49.707 63.956)"><path d="M441.405,430.352a5.466,5.466,0,0,0,.62,1.778,8.337,8.337,0,0,1-.366-1.285,4.673,4.673,0,0,0-.559-1.5A6.33,6.33,0,0,1,441.405,430.352Z" transform="translate(-430.406 -429.35)"/><path d="M386.759,452.087l-.05-.047a.854.854,0,0,1-.12.2l-.732.973a1.1,1.1,0,0,1-.381.363c-.283.132-.615,0-.927.013s-.625.188-.949.212a2.41,2.41,0,0,1-.675-.083,2.007,2.007,0,0,0-1.285.055.808.808,0,0,0-.411,1.081,1.226,1.226,0,0,1-1.174.41c-1.012-.141-1.86-1.014-2.891-.339-.843.556.01,1.7-.785,2.205a1.945,1.945,0,0,1-.7.238,1.322,1.322,0,0,1-.835-.037.9.9,0,0,1-.321-.288,2.355,2.355,0,0,0,.111.255,1.1,1.1,0,0,0,.464.517,1.323,1.323,0,0,0,.835.037,1.962,1.962,0,0,0,.7-.238c.793-.5-.059-1.65.785-2.205,1.023-.675,1.871.2,2.891.339a1.227,1.227,0,0,0,1.174-.41.813.813,0,0,1,.411-1.081,1.981,1.981,0,0,1,1.277-.055,2.41,2.41,0,0,0,.675.084c.321-.024.625-.2.949-.212s.642.119.927-.013a1.083,1.083,0,0,0,.381-.363l.732-.973a.482.482,0,0,0,.14-.363.559.559,0,0,0-.217-.276Z" transform="translate(-374.52 -448.396)"/></g><path class="d" d="M684.39,439.1s1.254,2.249.988,2.621S684.39,439.1,684.39,439.1Z" transform="translate(-584.912 -373.578)"/><path class="d" d="M710.07,435s.79,1.383.63,1.658" transform="translate(-606.467 -370.136)"/><path class="d" d="M739.55,415.09s.914.642.575,1.06" transform="translate(-631.212 -353.424)"/><path class="d" d="M745.28,412.9s1.161,1.42.776,1.807" transform="translate(-636.022 -351.586)"/><path class="d" d="M844.7,388.67s.177,2.376.875,2.173S844.7,388.67,844.7,388.67Z" transform="translate(-719.473 -331.248)"/><path class="o" d="M805.47,698.989s.975-3.31-.183-5.747a5.218,5.218,0,0,1-.422-3.283,8.741,8.741,0,0,1,.464-1.539" transform="translate(-685.953 -582.853)"/><path class="e" d="M803.78,675.185a5.831,5.831,0,0,0,.736,1.582,5.837,5.837,0,0,0,.734-1.582.736.736,0,0,0-1.47,0Z" transform="translate(-685.126 -571.155)"/><path class="e" d="M795.6,686.92a5.841,5.841,0,0,0,1.478.928,5.84,5.84,0,0,0-.244-1.727.736.736,0,0,0-1.234.8Z" transform="translate(-678.156 -580.643)"/><path class="e" d="M794.594,709.557a5.812,5.812,0,0,0,1.744.056,5.818,5.818,0,0,0-1.083-1.368.736.736,0,0,0-.662,1.312Z" transform="translate(-677.101 -599.439)"/><path class="e" d="M799.325,727.857a5.8,5.8,0,0,0,1.709.35,5.894,5.894,0,0,0-.835-1.531.734.734,0,0,0-.874,1.181Z" transform="translate(-681.137 -614.844)"/><path class="e" d="M806.4,692.519a5.813,5.813,0,0,1-1.646.575,5.778,5.778,0,0,1,.623-1.629.734.734,0,1,1,1.023,1.054Z" transform="translate(-685.94 -585.235)"/><path class="e" d="M810.694,713.077a5.868,5.868,0,0,1-1.744.056,5.815,5.815,0,0,1,1.083-1.369.736.736,0,0,1,.662,1.312Z" transform="translate(-689.465 -602.394)"/><path class="p" d="M812.709,734.443a5.8,5.8,0,0,1-1.709.35,5.921,5.921,0,0,1,.835-1.532.736.736,0,1,1,.874,1.182Z" transform="translate(-691.186 -620.355)"/><path class="o" d="M953.632,677.982s.975-3.31-.183-5.747a5.231,5.231,0,0,1-.422-3.285,8.756,8.756,0,0,1,.464-1.54" transform="translate(-810.318 -565.217)"/><path class="e" d="M951.936,653.836a5.831,5.831,0,0,0,.736,1.582,5.838,5.838,0,0,0,.734-1.582.736.736,0,1,0-1.47,0Z" transform="translate(-809.484 -553.177)"/><path class="e" d="M943.757,665.93a.962.962,0,1,0,1.234-.8.736.736,0,1,0-1.234.8Z" transform="translate(-802.519 -563.024)"/><path class="e" d="M942.515,688.442a5.811,5.811,0,0,0,1.743.058,5.784,5.784,0,0,0-1.083-1.368.734.734,0,1,0-.66,1.311Z" transform="translate(-801.223 -581.697)"/><path class="p" d="M947.566,706.95a5.8,5.8,0,0,0,1.709.35,5.922,5.922,0,0,0-.835-1.532.736.736,0,0,0-.874,1.182Z" transform="translate(-805.586 -597.308)"/><path class="e" d="M954.576,671.529a5.814,5.814,0,0,1-1.646.575,5.83,5.83,0,0,1,.623-1.629.734.734,0,0,1,1.023,1.054Z" transform="translate(-810.319 -567.616)"/><path class="e" d="M958.884,692.008a5.811,5.811,0,0,1-1.744.056,5.826,5.826,0,0,1,1.083-1.367.734.734,0,1,1,.662,1.311Z" transform="translate(-813.853 -584.698)"/><path class="p" d="M960.869,713.547a5.8,5.8,0,0,1-1.709.35,5.9,5.9,0,0,1,.835-1.531.734.734,0,0,1,.874,1.181Z" transform="translate(-815.549 -602.832)"/><path class="o" d="M836.921,675.99s.975-3.31-.183-5.747a5.229,5.229,0,0,1-.422-3.285,8.748,8.748,0,0,1,.464-1.539" transform="translate(-712.353 -563.547)"/><path class="e" d="M835.23,652.2a5.831,5.831,0,0,0,.736,1.582,5.836,5.836,0,0,0,.734-1.582.736.736,0,0,0-1.47,0Z" transform="translate(-711.524 -551.857)"/><path class="e" d="M827.047,663.93a.962.962,0,1,0,1.234-.8.736.736,0,0,0-1.234.8Z" transform="translate(-704.555 -561.345)"/><path class="e" d="M825.886,686.492a5.8,5.8,0,0,0,1.743.056,5.816,5.816,0,0,0-1.083-1.368.734.734,0,0,0-.66,1.312Z" transform="translate(-703.341 -580.067)"/><path class="e" d="M830.775,704.867a5.8,5.8,0,0,0,1.709.35,5.894,5.894,0,0,0-.835-1.531.734.734,0,1,0-.874,1.181Z" transform="translate(-707.535 -595.546)"/><path class="e" d="M837.866,669.529a5.812,5.812,0,0,1-1.646.575,5.83,5.83,0,0,1,.623-1.629.734.734,0,0,1,1.023,1.054Z" transform="translate(-712.355 -565.937)"/><path class="e" d="M842.144,690.087a5.865,5.865,0,0,1-1.744.056,5.86,5.86,0,0,1,1.083-1.368.736.736,0,0,1,.662,1.312Z" transform="translate(-715.864 -583.096)"/><path class="p" d="M844.159,711.452a5.8,5.8,0,0,1-1.709.35,5.921,5.921,0,0,1,.835-1.532.736.736,0,1,1,.874,1.182Z" transform="translate(-717.584 -601.057)"/><path class="q" d="M946,705.659v.418l.048-.04q.838-.705,1.653-1.434l.048-.043a70.309,70.309,0,0,0,5.061-5.011c-1.714-2.981-5.728-3-6.449-2.975l-2.249.468A30.018,30.018,0,0,1,946,705.659Z" transform="translate(-890.867 -450.737) rotate(-8)"/><path class="r" d="M946,705.659v.418l.048-.04q.838-.705,1.653-1.434l.048-.043a70.309,70.309,0,0,0,5.061-5.011c-1.714-2.981-5.728-3-6.449-2.975h-.112S945.989,701.94,946,705.659Z" transform="translate(-901.716 -431.413) rotate(-9)"/><path class="q" d="M839.48,632.068l.135.89h0L840.99,642l.45,2.965.438,2.881q1.224-.612,2.421-1.266l.037-.019.18-.1.467-.259q1.415-.79,2.787-1.635l.562-.349q.713-.448,1.412-.911,1.394-.917,2.74-1.9l.321-.238.259-.191q1.812-1.34,3.524-2.777l.048-.04q.838-.705,1.653-1.434l-.8-4.136q-.241-1.256-.4-2.522-.087-.684-.145-1.372c-.011-.109-.021-.22-.029-.329-.276-3.448-1.124-10.612-3.5-12.3a1.8,1.8,0,0,0-1.606-.284,6.56,6.56,0,0,0-.7.238,13.8,13.8,0,0,0-4.557,3.373,23.814,23.814,0,0,0-4.5,6.784l-2.409,5.431-.008.018-.022.05Z" transform="translate(-802.79 -378.366) rotate(-9)"/><path class="r" d="M876,641.337l2.793-9.554s2.615,7.027,4.672,9.393l.259-.191-3.709-9.163s-1.214-5.222-.243-7.123c.771-1.51,3.3-6.585,4.313-8.622a1.8,1.8,0,0,0-1.606-.284,6.555,6.555,0,0,0-.7.238c-1.285,2.037-3.662,6.1-3.839,8.627a31.632,31.632,0,0,0,.283,6.609Z" transform="translate(-833.067 -373.57) rotate(-9)"/><path class="q" d="M796.65,733.051q1.751-.615,3.461-1.3,2.978-1.2,5.816-2.623,1.224-.612,2.421-1.266l.037-.019-.093-.589h0l-.1-.642-.333-2.13a63.892,63.892,0,0,0-3.182-10.063,6.3,6.3,0,0,0-.949-1.515c-.024-.027-.05-.051-.076-.075h0a1.81,1.81,0,0,0-1.124-.273,2.375,2.375,0,0,0-1.383.651c-.8.715-1.678,2.146-2.43,4.884A85.1,85.1,0,0,0,796.65,733.051Z" transform="translate(-779.997 -464.269) rotate(-9)"/><path class="r" d="M818.2,803.142q2.978-1.2,5.816-2.623,1.224-.612,2.421-1.266c-.008-.2-.027-.4-.056-.609h0s-.2-1.124-2.361-1.039a3.688,3.688,0,0,0-.442.035,6.135,6.135,0,0,0-5.022,4.04A6.477,6.477,0,0,0,818.2,803.142Z" transform="translate(-809.032 -531.953) rotate(-9)"/><path class="r" d="M826.43,715.981a2.415,2.415,0,0,0-1.82-2.78,2.366,2.366,0,0,1,1.383-.651,3.672,3.672,0,0,1,1.206,1.927l2.186,10.646S826.308,719.179,826.43,715.981Z" transform="translate(-803.178 -460.6) rotate(-9)"/><path class="q" d="M891.688,786.963l-.6.818.562-.349q.713-.448,1.412-.911l-.914-.191Z" transform="translate(-758.412 -665.036)"/><path class="r" d="M894.59,774.725q.713-.448,1.412-.911,1.394-.917,2.74-1.9a3,3,0,0,0-1.65-.724s-2.141.146-2.467,3.061C894.609,774.405,894.6,774.561,894.59,774.725Z" transform="translate(-868.895 -500.027) rotate(-9)"/><path class="d" d="M840.22,714.25l.048.148,4.5,13.64.374,1.134.467-.259a34.627,34.627,0,0,0-4.356-13.068c-.463-.787-.814-1.3-.964-1.5-.035-.051-.058-.082-.068-.093Z" transform="translate(-816.342 -459.96) rotate(-9)"/><path class="d" d="M944.751,705.7c.014.125.032.251.05.377q.838-.7,1.653-1.434l.048-.043-1.243-6.614L945,696.62A29.381,29.381,0,0,0,944.751,705.7Z" transform="translate(-900.491 -431.649) rotate(-9)"/><path class="s" d="M572.924,91h2.049a1.436,1.436,0,0,1,0-2.87h16.6a1.436,1.436,0,0,1,0,2.87h-2.049a1.434,1.434,0,0,1,0,2.869h2.869a1.436,1.436,0,0,1,0,2.87h-16.6a1.436,1.436,0,0,1,0-2.87h-2.869a1.434,1.434,0,0,1,0-2.869Z" transform="translate(-490.146 -78.98)"/><path class="s" d="M720.254,227.879H722.3a1.434,1.434,0,1,1,0-2.869h16.6a1.434,1.434,0,1,1,0,2.869h-2.049a1.434,1.434,0,0,1,0,2.869h2.873a1.436,1.436,0,0,1,0,2.87H723.123a1.436,1.436,0,0,1,0-2.87h-2.869a1.434,1.434,0,0,1,0-2.869Z" transform="translate(-613.812 -193.875)"/><path class="s" d="M574.449,663.179h.964a.679.679,0,0,1,0-1.359h7.87a.679.679,0,1,1,0,1.359h-.964a.679.679,0,0,1,0,1.359h1.357a.679.679,0,1,1,0,1.359h-7.869a.679.679,0,1,1,0-1.359h-1.359a.679.679,0,0,1,0-1.359Z" transform="translate(-492.059 -560.525)"/><path class="s" d="M440.265,736.5h.774a.543.543,0,0,1,0-1.084h6.274a.543.543,0,0,1,0,1.084h-.774a.543.543,0,0,1,0,1.084h1.084a.543.543,0,0,1,0,1.084h-6.28a.543.543,0,1,1,0-1.084h-1.084a.543.543,0,1,1,0-1.084Z" transform="translate(-379.512 -622.303)"/><path class="s" d="M274.629,609.269h.972a.679.679,0,1,1,0-1.359h7.859a.679.679,0,1,1,0,1.359H282.5a.679.679,0,1,1,0,1.359h1.359a.679.679,0,1,1,0,1.359h-7.867a.679.679,0,1,1,0-1.359h-1.359a.679.679,0,0,1,0-1.359Z" transform="translate(-240.396 -515.274)"/><path class="s" d="M701.449,741.5h.964a.679.679,0,0,1,0-1.359h7.87a.679.679,0,0,1,0,1.359h-.964a.679.679,0,1,1,0,1.359h1.359a.679.679,0,0,1,0,1.357H702.8a.679.679,0,1,1,0-1.357h-1.356a.679.679,0,0,1,0-1.359Z" transform="translate(-598.661 -626.265)"/><path class="t" d="M771.715,332.593a.456.456,0,0,0-.148-.589.2.2,0,0,1-.039-.034h0a.23.23,0,0,1,.225-.377h0a.218.218,0,0,1,.048.019.458.458,0,0,0,.591-.146.2.2,0,0,1,.034-.04h0a.23.23,0,0,1,.376.226h0a.3.3,0,0,1-.019.048.456.456,0,0,0,.148.589.266.266,0,0,1,.04.034h0a.23.23,0,0,1-.226.376h0a.16.16,0,0,1-.048-.019.459.459,0,0,0-.591.148.192.192,0,0,1-.032.04h0a.23.23,0,0,1-.377-.226h0A.3.3,0,0,1,771.715,332.593Z" transform="translate(-658.004 -283.149)"/><path class="t" d="M1088.392,163.913a.454.454,0,0,0-.148-.589.251.251,0,0,1-.038-.034h0a.23.23,0,0,1,.226-.377h0a.232.232,0,0,1,.047.019.456.456,0,0,0,.591-.148.254.254,0,0,1,.034-.039h0a.23.23,0,0,1,.376.226h0a.158.158,0,0,1-.019.047.459.459,0,0,0,.148.591.254.254,0,0,1,.04.034h0a.23.23,0,0,1-.226.376h0a.2.2,0,0,1-.048-.019.458.458,0,0,0-.589.148.409.409,0,0,1-.034.04h0a.23.23,0,0,1-.377-.226h0a.3.3,0,0,1,.019-.048Z" transform="translate(-923.817 -141.562)"/><path class="t" d="M1093.258,616.964a.456.456,0,0,0-.148-.589.189.189,0,0,1-.039-.034h0a.228.228,0,0,1,.225-.376h0a.164.164,0,0,1,.048.019.459.459,0,0,0,.591-.148.2.2,0,0,1,.032-.04h0a.23.23,0,0,1,.377.226h0a.31.31,0,0,1-.019.048.456.456,0,0,0,.148.589.19.19,0,0,1,.039.034h0a.228.228,0,0,1-.219.369h0a.16.16,0,0,1-.048-.018.458.458,0,0,0-.591.146.2.2,0,0,1-.034.04h0a.23.23,0,0,1-.376-.227h0A.294.294,0,0,1,1093.258,616.964Z" transform="translate(-927.9 -521.843)"/><path class="t" d="M113.088,62.855a.458.458,0,0,0-.148-.591.194.194,0,0,1-.039-.034h0a.228.228,0,0,1,.225-.376h0a.215.215,0,0,1,.048.019.458.458,0,0,0,.591-.148.264.264,0,0,1,.034-.04h0a.23.23,0,0,1,.376.226h0a.215.215,0,0,1-.019.048.458.458,0,0,0,.148.591.252.252,0,0,1,.04.032h0a.23.23,0,0,1-.226.377h0a.216.216,0,0,1-.048-.019.458.458,0,0,0-.591.148.186.186,0,0,1-.032.039h0a.23.23,0,0,1-.377-.225h0A.215.215,0,0,1,113.088,62.855Z" transform="translate(-105.164 -56.734)"/><path class="t" d="M65.345,32.493A.456.456,0,0,0,65.2,31.9a.194.194,0,0,1-.039-.034h0a.23.23,0,0,1,.225-.377h0a.215.215,0,0,1,.048.019.458.458,0,0,0,.591-.146.272.272,0,0,1,.032-.04h0a.23.23,0,0,1,.377.22h0a.238.238,0,0,1-.019.047.458.458,0,0,0,.148.6.194.194,0,0,1,.039.034h0a.228.228,0,0,1-.231.377h0a.161.161,0,0,1-.048-.019.459.459,0,0,0-.591.148.2.2,0,0,1-.034.04h0a.23.23,0,0,1-.376-.226h0A.3.3,0,0,1,65.345,32.493Z" transform="translate(-65.09 -31.25)"/><path class="t" d="M445.715,253.033a.456.456,0,0,0-.148-.589.2.2,0,0,1-.039-.034h0a.23.23,0,0,1,.225-.377h0a.216.216,0,0,1,.048.019.458.458,0,0,0,.591-.146.2.2,0,0,1,.032-.04h0a.23.23,0,0,1,.377.226h0a.238.238,0,0,1-.019.047.458.458,0,0,0,.148.591.2.2,0,0,1,.039.034h0a.228.228,0,0,1-.225.376h0a.161.161,0,0,1-.048-.019.459.459,0,0,0-.591.148.2.2,0,0,1-.034.04h0a.23.23,0,0,1-.376-.226h0A.3.3,0,0,1,445.715,253.033Z" transform="translate(-384.366 -216.366)"/><path class="t" d="M269.338,370.523a.456.456,0,0,0-.148-.589.2.2,0,0,1-.039-.034h0a.228.228,0,0,1,.225-.376h0a.16.16,0,0,1,.048.019.459.459,0,0,0,.591-.148.27.27,0,0,1,.032-.04h0a.23.23,0,0,1,.377.226h0a.3.3,0,0,1-.019.048.456.456,0,0,0,.148.589.194.194,0,0,1,.039.034h0a.228.228,0,0,1-.225.376h0a.161.161,0,0,1-.048-.019.459.459,0,0,0-.591.148.273.273,0,0,1-.032.04h0a.23.23,0,0,1-.377-.226h0A.3.3,0,0,1,269.338,370.523Z" transform="translate(-236.317 -314.985)"/><path class="t" d="M544.856,216.387a.456.456,0,0,0-.215-.569.2.2,0,0,1-.043-.029h0a.228.228,0,0,1,.18-.4h0a.175.175,0,0,1,.05.013.459.459,0,0,0,.57-.215.257.257,0,0,1,.029-.043h0a.23.23,0,0,1,.4.181h0a.294.294,0,0,1-.014.05.458.458,0,0,0,.217.569.243.243,0,0,1,.042.029h0a.23.23,0,0,1-.18.4h0a.252.252,0,0,1-.05-.013.456.456,0,0,0-.569.215.349.349,0,0,1-.029.043h0a.23.23,0,0,1-.4-.182h0A.192.192,0,0,1,544.856,216.387Z" transform="translate(-467.504 -185.528)"/><path class="t" d="M995.582,526.139a.633.633,0,0,0,.353-.766.343.343,0,0,1-.013-.071h0a.321.321,0,0,1,.57-.21h0a.3.3,0,0,1,.035.063.633.633,0,0,0,.766.353.34.34,0,0,1,.071-.014h0a.321.321,0,0,1,.21.572h0a.3.3,0,0,1-.063.035.642.642,0,0,0-.353.766.264.264,0,0,1,.014.071h0a.321.321,0,0,1-.572.21h0a.234.234,0,0,1-.034-.063.633.633,0,0,0-.766-.353.372.372,0,0,1-.071.014h0a.321.321,0,0,1-.21-.572h0A.332.332,0,0,1,995.582,526.139Z" transform="translate(-845.968 -445.658)"/><path class="t" d="M386.633,564.008a.643.643,0,0,0,.353-.766.263.263,0,0,1-.014-.069h0a.321.321,0,0,1,.572-.212h0a.347.347,0,0,1,.035.063.631.631,0,0,0,.766.353.251.251,0,0,1,.069-.013h0a.321.321,0,0,1,.21.57h0a.288.288,0,0,1-.061.035.633.633,0,0,0-.353.766.342.342,0,0,1,.013.071h0a.321.321,0,0,1-.57.21h0a.3.3,0,0,1-.035-.063.642.642,0,0,0-.766-.353.348.348,0,0,1-.071.015h0a.321.321,0,0,1-.21-.572h0A.3.3,0,0,1,386.633,564.008Z" transform="translate(-334.827 -477.443)"/><path class="t" d="M576.984,573.718a.633.633,0,0,0,.353-.766.367.367,0,0,1-.014-.071h0a.321.321,0,0,1,.572-.21h0a.3.3,0,0,1,.035.063.633.633,0,0,0,.766.352.347.347,0,0,1,.071-.013h0a.321.321,0,0,1,.21.57h0a.3.3,0,0,1-.063.035.633.633,0,0,0-.353.766.367.367,0,0,1,.014.071h0a.321.321,0,0,1-.572.21h0a.3.3,0,0,1-.035-.063.643.643,0,0,0-.766-.353.262.262,0,0,1-.071.015h0a.321.321,0,0,1-.21-.57h0A.3.3,0,0,1,576.984,573.718Z" transform="translate(-494.605 -485.594)"/><circle class="s" cx="2.65" cy="2.65" r="2.65" transform="translate(16.932 13.954)"/><circle class="s" cx="2.65" cy="2.65" r="2.65" transform="translate(149.085 16.604)"/><circle class="s" cx="1.446" cy="1.446" r="1.446" transform="translate(30.664 2.001)"/><circle class="s" cx="1.446" cy="1.446" r="1.446" transform="translate(168.949 44.068)"/><circle class="s" cx="1.446" cy="1.446" r="1.446" transform="translate(20.786 118.067)"/><circle class="s" cx="1.446" cy="1.446" r="1.446" transform="translate(26.328 124.577)"/><circle class="s" cx="1.446" cy="1.446" r="1.446" transform="translate(15.486 128.501)"/></g></g></svg>