<svg xmlns="http://www.w3.org/2000/svg" xmlns:xlink="http://www.w3.org/1999/xlink" width="288" height="162.895" viewBox="0 0 288 162.895"><defs><style>.a,.h{fill:none;}.b{fill:#ffe1e6;}.c{fill:#ffe9f0;}.d,.l,.m{fill:#e8393f;}.e{clip-path:url(#a);}.f{fill:#ef4b57;}.g{fill:url(#b);}.h{stroke:#fff;stroke-miterlimit:10;stroke-width:2px;}.i,.j,.k{fill:#fff;}.j{font-size:19px;font-family:Raleway-Bold, Raleway;font-weight:700;}.k{font-size:13px;}.k,.l{font-family:Raleway-ExtraBold, Raleway;font-weight:800;}.l{font-size:27px;}.m{stroke:#e8393f;stroke-linecap:round;stroke-linejoin:round;stroke-width:4px;}.n{clip-path:url(#c);}.o{fill:url(#d);}.p{clip-path:url(#e);}.q{fill:url(#f);}</style><clipPath id="a"><path class="a" d="M315.947,151.384a3.424,3.424,0,0,1,3.184-3.414V145.4a3.422,3.422,0,0,1,0-6.827v-1.428a2.864,2.864,0,0,0-2.342-2.844,15.629,15.629,0,0,1,0-30.813,2.865,2.865,0,0,0,2.342-2.844V99.217a3.422,3.422,0,0,1,0-6.827V89.82a3.421,3.421,0,0,1,0-6.826v-.874a2.884,2.884,0,0,0-2.424-2.855c-5.176-.823-16.95-4.2-18.293-17.935a2.908,2.908,0,0,0-2.883-2.646H77.362a2.915,2.915,0,0,0-2.884,2.648C73.092,74.706,61.26,78.287,56.127,79.213a2.886,2.886,0,0,0-2.36,2.845v.925a3.423,3.423,0,0,1,0,6.846v2.55a3.424,3.424,0,0,1,0,6.847v1.368a2.864,2.864,0,0,0,2.387,2.85,15.635,15.635,0,0,1,0,30.9,2.864,2.864,0,0,0-2.387,2.85v1.368a3.423,3.423,0,0,1,0,6.846v2.551a3.423,3.423,0,0,1,0,6.846v1.443a2.885,2.885,0,0,0,2.424,2.855c5.177.823,16.95,4.2,18.294,17.935a2.907,2.907,0,0,0,2.882,2.646h218.17a2.916,2.916,0,0,0,2.884-2.648c1.385-13.377,13.217-16.956,18.351-17.883a2.885,2.885,0,0,0,2.359-2.845V154.8A3.423,3.423,0,0,1,315.947,151.384Z" transform="translate(-53.767 -58.683)"/></clipPath><linearGradient id="b" x1="0.015" y1="0.565" x2="0.584" y2="0.443" gradientUnits="objectBoundingBox"><stop offset="0.219" stop-color="#f47383"/><stop offset="1" stop-color="#ef4b57"/></linearGradient><clipPath id="c"><path class="a" d="M307.589,60.516a9.231,9.231,0,0,1-9.221-9.22,2.155,2.155,0,0,0-4.31,0,9.23,9.23,0,0,1-9.22,9.22,2.155,2.155,0,1,0,0,4.31,9.23,9.23,0,0,1,9.22,9.22,2.155,2.155,0,1,0,4.31,0,9.231,9.231,0,0,1,9.221-9.22,2.155,2.155,0,0,0,0-4.31Z" transform="translate(-282.682 -49.142)"/></clipPath><linearGradient id="d" x1="0.021" y1="0.843" x2="0.221" y2="0.669" xlink:href="#b"/><clipPath id="e"><path class="a" d="M69.579,167.113a10.368,10.368,0,0,1-10.357-10.357,2.156,2.156,0,0,0-4.311,0,10.369,10.369,0,0,1-10.276,10.357h-.08a2.155,2.155,0,0,0,0,4.31A10.369,10.369,0,0,1,54.91,181.782a2.156,2.156,0,0,0,4.311,0A10.369,10.369,0,0,1,69.5,171.424h.079a2.155,2.155,0,1,0,0-4.31Z" transform="translate(-42.399 -154.601)"/></clipPath><linearGradient id="f" x1="0.1" y1="0.847" x2="0.401" y2="0.669" xlink:href="#b"/></defs><g transform="translate(-42.399 -36.5)"><circle class="b" cx="5.9" cy="5.9" r="5.9" transform="translate(192.673 47.005)"/><circle class="b" cx="2.823" cy="2.823" r="2.823" transform="translate(207.184 42.712)"/><circle class="b" cx="5.303" cy="5.303" r="5.303" transform="translate(132.389 184.893)"/><circle class="b" cx="2.677" cy="2.677" r="2.677" transform="translate(147.014 182.804)"/><g transform="translate(42.399 36.5)"><g transform="translate(0.932)"><path class="c" d="M45.069,143.553c-6.78,16.8,6.545,37.135,22.029,43.92,12.446,5.455,26.824,3.745,40.018.492s26.226-7.975,39.811-8.283c19.266-.437,37.447,7.985,55.95,13.371,21.486,6.255,44.434,8.473,66.351,3.954,11.835-2.44,23.439-6.923,32.847-14.507s16.458-18.494,17.883-30.493c2.49-20.96-11.895-40.663-11.841-61.771.024-9.258,2.84-18.6.933-27.658-2.58-12.261-13.754-20.247-25.04-23.924-19.189-6.252-38.226,2.252-55.176,10.838-21.908,11.1-45.892,18.976-70.65,19.106-16.394.087-32.147-4.977-47.846-9.061-14.9-3.877-33.936-9.047-48.773-2.42C52.192,61.3,47.371,71.569,47.57,81.487a27.8,27.8,0,0,0,4.3,14.578c4.317,6.618,14.311,9.454,15.149,18.292.454,4.8-2.521,9.282-6.042,12.57-5.1,4.76-11.482,7.963-14.84,14.33A24.82,24.82,0,0,0,45.069,143.553Z" transform="translate(-43.257 -36.5)"/><g transform="translate(11.413 24.09)"><path class="d" d="M315.947,151.384a3.424,3.424,0,0,1,3.184-3.414V145.4a3.422,3.422,0,0,1,0-6.827v-1.428a2.864,2.864,0,0,0-2.342-2.844,15.629,15.629,0,0,1,0-30.813,2.865,2.865,0,0,0,2.342-2.844V99.217a3.422,3.422,0,0,1,0-6.827V89.82a3.421,3.421,0,0,1,0-6.826v-.874a2.884,2.884,0,0,0-2.424-2.855c-5.176-.823-16.95-4.2-18.293-17.935a2.908,2.908,0,0,0-2.883-2.646H77.362a2.915,2.915,0,0,0-2.884,2.648C73.092,74.706,61.26,78.287,56.127,79.213a2.886,2.886,0,0,0-2.36,2.845v.925a3.423,3.423,0,0,1,0,6.846v2.55a3.424,3.424,0,0,1,0,6.847v1.368a2.864,2.864,0,0,0,2.387,2.85,15.635,15.635,0,0,1,0,30.9,2.864,2.864,0,0,0-2.387,2.85v1.368a3.423,3.423,0,0,1,0,6.846v2.551a3.423,3.423,0,0,1,0,6.846v1.443a2.885,2.885,0,0,0,2.424,2.855c5.177.823,16.95,4.2,18.294,17.935a2.907,2.907,0,0,0,2.882,2.646h218.17a2.916,2.916,0,0,0,2.884-2.648c1.385-13.377,13.217-16.956,18.351-17.883a2.885,2.885,0,0,0,2.359-2.845V154.8A3.423,3.423,0,0,1,315.947,151.384Z" transform="translate(-53.767 -58.683)"/><g class="e"><path class="f" d="M41.093,155.151s6.368,47.475,26.632,29.527,123.32-104.793,214.8-114.057S243.153,20.83,243.153,20.83L50.935,46.883Z" transform="translate(-54.857 -61.937)"/><path class="g" d="M207.027,56.512c-2.208.743-4.436,1.435-6.635,2.2-16.749,5.838-29.3,16.284-42.776,27.329a117.824,117.824,0,0,1-36.985,21.067c-19.318,6.668-38.873,6.429-58.96,4.7q-3.2-.275-6.4-.592c-1.707-.166-14.365-2.708-15.245-1.186L99.652,6.986c.571-.987,37.2,13.841,39.666,14.759L203.05,45.489c3.905,1.455,8.014,2.058,11.753,4,2.919,1.517.163,3.9-1.8,4.763C211.049,55.111,209.047,55.833,207.027,56.512Z" transform="translate(-54.948 -63.131)"/></g><rect class="h" width="211.924" height="101.319" rx="10" transform="translate(27.155 9.842)"/><rect class="i" width="213.001" height="34.738" transform="translate(26.721 43.133)"/><text class="j" transform="translate(133.655 33.979)"><tspan x="-83.78" y="0">REGALO ESPECIAL</tspan></text><text class="k" transform="translate(132.655 97.341)"><tspan x="-98.196" y="0">PAGO INMEDIATO DE CONTADO</tspan></text><text class="l" transform="translate(66.943 70.226)"><tspan x="0" y="0">20% DCTO</tspan></text></g></g><g transform="translate(0 13.729)"><path class="m" d="M296.042,73.876h0A11.375,11.375,0,0,0,284.667,62.5h0a11.376,11.376,0,0,0,11.375-11.375h0A11.375,11.375,0,0,0,307.417,62.5h0A11.374,11.374,0,0,0,296.042,73.876Z" transform="translate(-21.573 -48.971)"/><path class="m" d="M56.9,181.61h0A12.511,12.511,0,0,0,44.383,169.1h0A12.512,12.512,0,0,0,56.9,156.586h0A12.513,12.513,0,0,0,69.408,169.1h0A12.512,12.512,0,0,0,56.9,181.61Z" transform="translate(-42.228 -39.906)"/><g transform="translate(260.939)"><g class="n"><path class="o" d="M287.714,70.124s7.544-20.476,34.485-12.932-34.485-28.019-34.485-28.019l-8.62,20.475,2.068,20.476Z" transform="translate(-282.99 -50.859)"/></g></g><g transform="translate(0 114.525)"><g class="p"><path class="q" d="M43.324,175.6s13.447-17.184,36.788-1.757-24.255-37.229-24.255-37.229L41.383,153.467l-4.3,20.125Z" transform="translate(-42.856 -156.147)"/></g></g></g></g></g></svg>