<svg xmlns="http://www.w3.org/2000/svg" xmlns:xlink="http://www.w3.org/1999/xlink" width="180.873" height="174.414" viewBox="0 0 180.873 174.414"><defs><style>.a{fill:#e6fffe;}.b{fill:url(#a);}.c{opacity:0.5;}.ai,.ar,.aw,.c,.f,.j,.m,.t,.v{mix-blend-mode:multiply;}.ai,.ak,.al,.ap,.aq,.ar,.aw,.c,.f,.j,.m,.t,.v,.w,.x{isolation:isolate;}.c,.n{fill:url(#b);}.d{fill:url(#c);}.e{fill:url(#d);}.f{opacity:0.501;fill:url(#e);}.g{fill:url(#f);}.h{fill:url(#g);}.i{fill:#fff;}.j{opacity:0.497;fill:url(#h);}.k{fill:url(#i);}.l,.v{fill:url(#j);}.m{opacity:0.497;fill:url(#k);}.o{fill:url(#n);}.p{fill:url(#o);}.q{fill:url(#p);}.r{fill:url(#q);}.s{fill:url(#r);}.t{opacity:0.3;fill:url(#s);}.u{fill:url(#u);}.ai,.ak,.ar,.aw,.v{opacity:0.5;}.ap,.aq,.w,.x{opacity:0.72;}.ak,.al,.ap,.aq,.w,.x{mix-blend-mode:screen;}.w{fill:url(#w);}.x{fill:url(#x);}.y{fill:url(#y);}.z{fill:url(#z);}.aa{fill:url(#aa);}.ab{fill:url(#ab);}.ac{fill:#2f95cd;}.ad{fill:url(#ac);}.ae{fill:url(#ad);}.af{fill:url(#ae);}.ag{fill:url(#af);}.ah{fill:url(#ag);}.ai{fill:url(#ah);}.aj{fill:url(#ai);}.ak{fill:url(#aj);}.al{opacity:0.2;fill:url(#al);}.am{fill:url(#an);}.an{fill:url(#ao);}.ao{fill:url(#ap);}.ap{fill:url(#aq);}.aq{fill:url(#ar);}.ar{fill:url(#as);}.as{fill:url(#at);}.at{fill:url(#au);}.au{fill:#029a9f;opacity:0.4;}.av{fill:#e8393f;}.aw{fill:url(#av);}.ax{fill:url(#aw);}.ay{fill:url(#ax);}</style><linearGradient id="a" x1="0.419" y1="0.984" x2="0.546" y2="0.048" gradientUnits="objectBoundingBox"><stop offset="0" stop-color="#39bfb8"/><stop offset="1" stop-color="#5deae2"/></linearGradient><linearGradient id="b" x1="0.5" y1="1" x2="0.5" y2="0" xlink:href="#a"/><linearGradient id="c" x1="0.822" y1="1.002" x2="0.993" y2="-0.012" xlink:href="#a"/><linearGradient id="d" x1="0.969" y1="1.142" x2="0.969" y2="-0.165" gradientUnits="objectBoundingBox"><stop offset="0" stop-color="#39bfb8"/><stop offset="1" stop-color="#3da4ab"/></linearGradient><linearGradient id="e" x1="0.964" y1="1.016" x2="0.964" y2="-0.052" xlink:href="#a"/><linearGradient id="f" x1="-0.093" y1="1.029" x2="0.124" y2="-0.035" xlink:href="#a"/><linearGradient id="g" x1="0.067" y1="1.265" x2="0.067" y2="-0.02" gradientUnits="objectBoundingBox"><stop offset="0" stop-color="#3da4ab"/><stop offset="1" stop-color="#39bfb8"/></linearGradient><linearGradient id="h" x1="0.071" y1="1.058" x2="0.071" y2="-0.005" xlink:href="#a"/><linearGradient id="i" x1="0.399" y1="1.015" x2="0.646" y2="-0.022" xlink:href="#a"/><linearGradient id="j" x1="0.5" y1="1" x2="0.5" y2="0" xlink:href="#d"/><linearGradient id="k" x1="0.5" y1="1" x2="0.5" gradientUnits="objectBoundingBox"><stop offset="0" stop-color="#3da4ab"/><stop offset="1" stop-color="#5deae2"/></linearGradient><linearGradient id="n" x1="0.5" y1="1" x2="0.5" gradientUnits="objectBoundingBox"><stop offset="0" stop-color="#45ffcd"/><stop offset="1" stop-color="#22e0ff"/></linearGradient><linearGradient id="o" x1="-5.495" y1="1" x2="-5.495" y2="0" xlink:href="#a"/><linearGradient id="p" x1="-11.605" y1="1" x2="-11.605" y2="0" xlink:href="#d"/><linearGradient id="q" x1="-6.549" y1="1" x2="-6.549" y2="0" xlink:href="#n"/><linearGradient id="r" x1="0.429" y1="0.998" x2="0.603" y2="0.007" xlink:href="#a"/><linearGradient id="s" x1="0.5" y1="1" x2="0.5" gradientUnits="objectBoundingBox"><stop offset="0" stop-color="#9d68c2"/><stop offset="1" stop-color="#ccedff"/></linearGradient><radialGradient id="u" cx="0.517" cy="0.845" r="0.763" gradientTransform="translate(0.017) scale(0.966 1)" xlink:href="#n"/><linearGradient id="w" x1="0.5" y1="1" x2="0.5" gradientUnits="objectBoundingBox"><stop offset="0" stop-color="#d4e2ff"/><stop offset="1"/></linearGradient><linearGradient id="x" y1="0.5" x2="1" y2="0.5" gradientUnits="objectBoundingBox"><stop offset="0"/><stop offset="1" stop-color="#d4e2ff"/></linearGradient><linearGradient id="y" x1="0.46" y1="1.014" x2="0.571" y2="0.005" xlink:href="#a"/><linearGradient id="z" x1="0.5" y1="1" x2="0.5" gradientUnits="objectBoundingBox"><stop offset="0" stop-color="#0665bd"/><stop offset="1" stop-color="#1a1f77"/></linearGradient><linearGradient id="aa" x1="1.353" y1="1.121" x2="1.353" y2="0.071" xlink:href="#n"/><linearGradient id="ab" x1="5.867" y1="1.16" x2="5.867" y2="0.101" xlink:href="#n"/><linearGradient id="ac" x1="0.397" y1="1.014" x2="0.588" y2="-0.014" xlink:href="#a"/><linearGradient id="ad" x1="0.572" y1="0.976" x2="0.413" y2="0.027" xlink:href="#d"/><linearGradient id="ae" x1="0.599" y1="0.984" x2="0.432" y2="0.002" gradientUnits="objectBoundingBox"><stop offset="0" stop-color="#34a59f"/><stop offset="1" stop-color="#3da4ab"/></linearGradient><linearGradient id="af" x1="0.458" y1="1" x2="0.522" y2="0.063" gradientUnits="objectBoundingBox"><stop offset="0" stop-color="#3ca8a3"/><stop offset="1" stop-color="#46c6bf"/></linearGradient><linearGradient id="ag" x1="0.525" y1="1.004" x2="0.472" y2="-0.045" xlink:href="#d"/><linearGradient id="ah" x1="0.5" y1="1" x2="0.5" y2="0" xlink:href="#d"/><linearGradient id="ai" x1="0.5" y1="1" x2="0.5" gradientUnits="objectBoundingBox"><stop offset="0" stop-color="#5deae2"/><stop offset="1" stop-color="#7dffcf"/></linearGradient><linearGradient id="aj" y1="0.5" x2="1" y2="0.5" gradientUnits="objectBoundingBox"><stop offset="0"/><stop offset="1" stop-color="#6a9bff"/></linearGradient><linearGradient id="al" x1="-0.162" y1="-0.405" x2="-0.162" y2="-1.403" gradientUnits="objectBoundingBox"><stop offset="0"/><stop offset="1" stop-color="#00e3ff"/></linearGradient><linearGradient id="an" x1="0.479" y1="1.014" x2="0.646" y2="0.003" gradientUnits="objectBoundingBox"><stop offset="0" stop-color="#646464"/><stop offset="1" stop-color="#2b2b2b"/></linearGradient><linearGradient id="ao" x1="-0.661" y1="-9.279" x2="-0.661" y2="-10.381" gradientUnits="objectBoundingBox"><stop offset="0" stop-color="#484547"/><stop offset="1" stop-color="#7e7c7d"/></linearGradient><linearGradient id="ap" x1="0.5" y1="1" x2="0.5" gradientUnits="objectBoundingBox"><stop offset="0" stop-color="#535353"/><stop offset="1" stop-color="#696969"/></linearGradient><linearGradient id="aq" x1="0" y1="0.5" x2="1" y2="0.5" xlink:href="#x"/><linearGradient id="ar" x1="0" y1="0.5" x2="1" y2="0.5" xlink:href="#w"/><linearGradient id="as" x1="0.705" y1="1.007" x2="0.434" y2="0.021" xlink:href="#d"/><linearGradient id="at" x1="0.31" y1="0.999" x2="0.624" y2="-0.006" xlink:href="#a"/><linearGradient id="au" x1="0.5" y1="1" x2="0.5" gradientUnits="objectBoundingBox"><stop offset="0" stop-color="#f4f4f4"/><stop offset="1" stop-color="#fff"/></linearGradient><linearGradient id="av" y1="0.5" x2="1" y2="0.5" gradientUnits="objectBoundingBox"><stop offset="0" stop-color="#755cbb"/><stop offset="1" stop-color="#ccedff"/></linearGradient><linearGradient id="aw" x1="-0.284" y1="2.131" x2="-0.218" y2="0.654" xlink:href="#a"/><linearGradient id="ax" x1="0.522" y1="0.97" x2="0.437" y2="0.015" xlink:href="#a"/></defs><g transform="translate(-529.121 -56.252)"><g transform="translate(529.121 55.908)"><path class="a" d="M701.947,205.351c-3.137,6.227-6.731,9.947-10.631,11.889-5.991,3.011-12.722,1.855-19.681-.747-.212-.072-.417-.15-.629-.229-.943-.37-1.895-.754-2.854-1.164-10.922-4.647-22.2-11.645-31.948-10.7-4.458.432-9.317,2.28-14.531,4.718-4.663,2.186-9.624,4.851-14.838,7.407-.928.456-1.863.9-2.807,1.353-2.406,1.132-4.867,2.217-7.384,3.208-14.1,5.551-29.8,8-46.683-2.327-11.779-7.21-35.415-48.169-8.382-88.64,30.037-44.985,110.248-44.277,133.46-31.491C716.124,121.255,714.977,179.506,701.947,205.351Z" transform="translate(-529.121 -57.994)"/></g><g transform="translate(559.133 56.252)"><path class="b" d="M679.1,167.207s0,7.678-3.086,12.47c-1.753,2.73-4.823,4.3-8.36,4.762a20.336,20.336,0,0,1-8.538-.807c-6.654-2.047-11.019-12.407-13.369-22.6s3.3-13.276,4.095-12.989c1.473.535,5.157,5.328,9.391,9.654a36.39,36.39,0,0,0,6.669,5.623A27.61,27.61,0,0,0,679.1,167.207Z" transform="translate(-566.017 -61.715)"/><path class="c" d="M667.656,184.439a20.336,20.336,0,0,1-8.538-.807c-6.654-2.047-11.019-12.407-13.369-22.6s3.3-13.276,4.095-12.989c1.473.535,5.157,5.328,9.391,9.654a32.77,32.77,0,0,0-1.955,17.224C658.754,184.819,667.656,184.439,667.656,184.439Z" transform="translate(-566.017 -61.715)"/><path class="d" d="M628.817,214.758c.019,6.624-2.286,22.335-6.943,21.531-1.006-.171-2.208-1.2-3.5-2.791-3.928-4.843-8.713-14.88-11.413-21.762-1.471-3.751-2.331-6.569-2.091-7.09,1.452-3.236,22.209,6.085,23.56,7.29C628.681,212.168,628.816,213.216,628.817,214.758Z" transform="translate(-563.623 -65.033)"/><path class="e" d="M604.865,204.639c-1.588,3.044,17.28,12.289,23.791,7.883C628.656,212.522,606.975,200.593,604.865,204.639Z" transform="translate(-563.62 -65.023)"/><path class="f" d="M614.16,214.663c-.738,1.325,3.042,16.174,7.714,21.626-1.006-.171-2.208-1.2-3.5-2.791-1.047-2.533-2.6-6.294-4.1-10.054a48.308,48.308,0,0,0-7.311-11.708c-1.471-3.751-2.331-6.569-2.091-7.09,1.452-3.236,22.209,6.085,23.56,7.29.253.231.388,1.279.388,2.821C628.817,214.758,614.9,213.346,614.16,214.663Z" transform="translate(-563.623 -65.033)"/><path class="g" d="M652.8,207.357c-.163.586-.345,1.194-.531,1.824-2.86,9.59-7.844,23.548-11.594,28.319-.9,1.146-1.722,1.762-2.429,1.666a1.653,1.653,0,0,1-.554-.173,4.918,4.918,0,0,1-1.828-1.85v-.008c-3.652-5.677-6.281-21.588-5.747-26.128a2.089,2.089,0,0,1,.349-1.122c3.069-3.034,23.229-11.863,24.027-10.308C654.708,200,654.017,203.082,652.8,207.357Z" transform="translate(-565.119 -64.762)"/><path class="h" d="M630.126,211.015c-.775,1.286,19.119,1.19,24.373-11.425C654.5,199.591,637.419,198.912,630.126,211.015Z" transform="translate(-565.122 -64.773)"/><path class="i" d="M640.593,218.372c-.831.119-2.009,6.409-.744,6.968S642.512,218.1,640.593,218.372Z" transform="translate(-565.667 -65.887)"/><path class="j" d="M652.8,207.357s-11.1,1.47-14.347,6.117-4.2,16.734-2.587,23.661c-3.652-5.677-6.281-21.588-5.747-26.128a2.089,2.089,0,0,1,.349-1.122c3.069-3.034,23.229-11.863,24.027-10.308C654.708,200,654.017,203.082,652.8,207.357Z" transform="translate(-565.119 -64.762)"/><path class="k" d="M607.068,150.922c-.023,5.67-.815,13.866-3.389,20.488-4.257,10.966-10.654,24.768-10.848,25.2l-.009.008c-3.908,2.381-8.584,2.257-11.562,1.822a20.229,20.229,0,0,1-2.986-.643,89.913,89.913,0,0,1,8.228-26.793A109.451,109.451,0,0,1,598.2,152.3a.486.486,0,0,0,.055-.07c.039-.062.093-.124.139-.186.031-.039.055-.07.078-.1a.374.374,0,0,0,.07-.093l.1-.124c.008-.008.016-.016.016-.024l.015-.015c3.87-4.909,7.01-7.887,7.669-7.523C606.735,144.385,607.084,147.068,607.068,150.922Z" transform="translate(-562.048 -61.485)"/><path class="l" d="M578.337,200.2s5.034-8.3,10.225-7.225,4.261,6.539,4.261,6.539A14.327,14.327,0,0,1,578.337,200.2Z" transform="translate(-562.052 -64.375)"/><path class="m" d="M607.068,151.35c-.023,5.67-.815,13.866-3.389,20.488-4.257,10.966-10.654,24.768-10.848,25.2l-.009.008-11.562,1.822a20.226,20.226,0,0,1-2.986-.643,89.912,89.912,0,0,1,8.228-26.793,109.451,109.451,0,0,1,11.694-18.7c-2.179,2.877-11.3,15.4-13.749,26.04-2.792,12.1,8.468,7.445,13.075,0s9.406-27.421,9.406-27.421Z" transform="translate(-562.048 -61.912)"/><path class="i" d="M595.5,171.216c-.917-.344,3.82-11.069,5.289-11.167S596.283,171.509,595.5,171.216Z" transform="translate(-563.063 -62.428)"/><path class="i" d="M594.933,173.133c-.722-.384-1.405,1.623-.745,1.917S595.751,173.567,594.933,173.133Z" transform="translate(-562.976 -63.202)"/><path class="n" d="M654.81,66.418s5.884-5.076,13.084-5.957c0,0,2.2,1.077,4.752,9.012s-2.155,23.607-2.155,23.607Z" transform="translate(-566.588 -56.522)"/><path class="l" d="M668.352,60.461a25.436,25.436,0,0,0-5.827,16.309l2.253,1.42,6.563-13.585S669.163,60.341,668.352,60.461Z" transform="translate(-567.045 -56.522)"/><path class="o" d="M664.68,77.639s-1.549-8.6,4.108-14.914c0,0,6.391,3.012,9.036,14.179s-4.24,17.87-4.24,17.87Z" transform="translate(-567.161 -56.656)"/><path class="i" d="M661.154,63.055c-1.087.587-1,1.759,1.251,1.466s3.475-2.057,3.23-2.4S662.374,62.4,661.154,63.055Z" transform="translate(-566.924 -56.614)"/><path class="p" d="M601.163,67.77s-5.883-5.076-13.083-5.957c0,0-2.205,1.077-4.752,9.012s2.155,23.607,2.155,23.607Z" transform="translate(-562.303 -56.602)"/><path class="q" d="M588.238,61.813a25.435,25.435,0,0,1,5.827,16.309l-2.253,1.42-6.563-13.585S587.427,61.693,588.238,61.813Z" transform="translate(-562.462 -56.602)"/><path class="r" d="M591.589,78.991s1.55-8.6-4.107-14.913c0,0-6.391,3.012-9.036,14.178a20.548,20.548,0,0,0,4.979,18.594Z" transform="translate(-562.025 -56.736)"/><path class="i" d="M595.664,64.407c1.087.587,1,1.759-1.251,1.466s-3.475-2.057-3.23-2.4S594.444,63.748,595.664,64.407Z" transform="translate(-562.812 -56.695)"/><path class="s" d="M652.56,189.571C650.769,200.148,641.3,207.2,627.722,207.2c-11.818,0-21.83-4.4-24.474-14.106s-1.621-27.621,1.908-38.788a36.2,36.2,0,0,1,1.9-4.8l.008-.016a32.884,32.884,0,0,1,2.233-3.931.024.024,0,0,0,.008-.016c4.312-6.491,10.624-10.732,17.758-10.732a21.648,21.648,0,0,1,16.983,7.576,24.812,24.812,0,0,1,4.218,7.1,70.431,70.431,0,0,1,2.916,9.345.6.6,0,0,0,.015.093A79.076,79.076,0,0,1,652.56,189.571Z" transform="translate(-563.441 -60.931)"/><path class="t" d="M652.56,190.5c-1.791,10.577-11.259,17.626-24.838,17.626-11.818,0-21.83-4.4-24.474-14.106s-1.621-27.621,1.908-38.788a36.2,36.2,0,0,1,1.9-4.8l.008-.016s-7.15,23.706-1.435,38.8,32.345,14.781,41.356,4.747c8.577-9.546,4.614-31.973,4.211-34.121A79.076,79.076,0,0,1,652.56,190.5Z" transform="translate(-563.441 -61.857)"/><path class="l" d="M603.869,184.919c2.021-14.2,13.409-23.817,26.056-22.624,13.633,1.287,20.961,14.3,20.766,25.468s-8.358,19.884-22.986,19.884S601.979,198.194,603.869,184.919Z" transform="translate(-563.554 -62.556)"/><path class="u" d="M604,186.168c2.021-14.195,13.408-23.817,26.055-22.624,13.633,1.287,20.962,14.3,20.767,25.468S642.469,208.9,627.84,208.9,602.114,199.444,604,186.168Z" transform="translate(-563.562 -62.63)"/><path class="v" d="M644.515,142.383c-2.893,4.537-18.814,7.177-28.016,6.337-8.011-.731-6.8-2.895-6.734-3.165a.024.024,0,0,0,.008-.016c4.312-6.491,10.624-10.732,17.758-10.732A21.649,21.649,0,0,1,644.515,142.383Z" transform="translate(-563.91 -60.931)"/><path class="i" d="M640.66,151.22c-.739.244-.775,6.211,0,7.173s2.019.666,2.434-.739S641.78,150.85,640.66,151.22Z" transform="translate(-565.715 -61.904)"/><path class="i" d="M642.114,160.536c-.616.147-.688,1.626-.4,2.145a.909.909,0,0,0,1.531-.222C643.416,161.831,642.735,160.389,642.114,160.536Z" transform="translate(-565.801 -62.457)"/><path class="w" d="M612.529,202.835s3.269,5.689,15.438,5.736,17.118-7.2,17.118-7.2a17.751,17.751,0,0,1-13.644,1.463C623.412,200.638,615.471,199.4,612.529,202.835Z" transform="translate(-564.08 -64.839)"/><path class="x" d="M609.155,177.277c2.4,3.835,12.293,1.793,23.438,2.88s13.046,4.713,15.4,3.979-1.363-17.512-18.015-18.651S608.557,176.323,609.155,177.277Z" transform="translate(-563.877 -62.746)"/><path class="y" d="M584.58,121.808c9.012,20.79,76.468,14.308,84.528-2.771,8.815-18.68-11.454-64.846-43.779-62.69C598.021,58.167,572.994,95.082,584.58,121.808Z" transform="translate(-562.25 -56.273)"/><path class="z" d="M588.579,119.425c8.62,17.052,67.5,14.236,76.1-1.442,7.3-13.313-9.947-53.847-39.528-52.4S580.306,103.058,588.579,119.425Z" transform="translate(-562.527 -56.823)"/><path class="aa" d="M655.63,100.659c-1.161,3.108-16.689,2.742-16.672,1.626.091-6.2,3.41-14.342,9.609-14.286C654.969,88.056,657.791,94.874,655.63,100.659Z" transform="translate(-565.647 -58.155)"/><path class="ab" d="M600.989,101.072c1.333,3.038,16.816,1.805,16.737.691-.438-6.189-4.208-14.129-10.394-13.727C600.944,88.453,598.507,95.419,600.989,101.072Z" transform="translate(-563.339 -58.156)"/><path class="ac" d="M619.089,114.1c-2.338.563,2.547,8.366,10.383,8.366,6.955,0,10.872-8.014,9.991-8.366s-5.054,1.8-10.854,1.8S620.068,113.862,619.089,114.1Z" transform="translate(-564.434 -59.701)"/><path class="ad" d="M578.036,200.86s3.105-4.4,7.591-4.984,6.1.656,6.956,3.805-5.5,14.619-13.408,23.264c-3.41.283-4.44-3.908-4.935-6.6C574.241,213.992,576.495,204.557,578.036,200.86Z" transform="translate(-561.809 -64.545)"/><path class="ae" d="M589.02,195.84s-8.421,11.689-11.09,18.422c-1.44,3.631-2.265,6.015-2.265,6.015s2.187,5.54,5.815.9c5.138-6.567,12.027-16.442,10.776-21.195C591.2,195.96,590.487,195.2,589.02,195.84Z" transform="translate(-561.894 -64.539)"/><path class="af" d="M674.376,167.386c-3.858,1.2-4.31,14.3-.637,15.966s8.816-9.794,6.906-15.008C680.645,168.344,677.216,166.5,674.376,167.386Z" transform="translate(-567.561 -62.849)"/><path class="ag" d="M674.822,168.977a7.568,7.568,0,0,0-1.567,7.139c1.176,4.419,7.053,7.4,14.4,7.3s12.048-5.4,13.077-8.622c0,0-1.323-2.711-8.523-4.379-4.894-1.134-11.46-2.006-11.46-2.006A12.963,12.963,0,0,0,674.822,168.977Z" transform="translate(-567.664 -62.917)"/><path class="ah" d="M673.522,176.938a32.04,32.04,0,0,0,14.11.737c7.641-1.372,5.312-6.832,5.312-6.832a33.82,33.82,0,0,0-7.173-2.569c-3.429-.688-10.861,0-10.861,0A7.116,7.116,0,0,0,673.522,176.938Z" transform="translate(-567.643 -62.898)"/><path class="ai" d="M678.57,181.834s.683-5.446.055-8.058c0,0,2.163,5.674,2.456,9.049Z" transform="translate(-567.997 -63.243)"/><path class="aj" d="M678.572,171.916s4.274-2.852,12.817-3.417a88.707,88.707,0,0,1,13.152,19.539l-20.973.562S681.494,177.511,678.572,171.916Z" transform="translate(-567.997 -62.93)"/><path class="i" d="M638.206,60.418c-.616.735,6.538,3.841,7.494,3.405S640.262,57.963,638.206,60.418Z" transform="translate(-565.601 -56.482)"/><path class="ak" d="M599.755,82.821c-.677,4.061,7.018,3.6,19.326,3.192,14.791-.49,29.652,12.244,38.3,3.105,1.425-1.506-12.736-21.28-29.828-20.837S600.342,79.3,599.755,82.821Z" transform="translate(-563.32 -56.985)"/><path class="ak" d="M607.855,128.632c-.781,2.943,5.377,5.888,20.52,5.147,18.308-.9,22.2-4.733,21.3-5.795-.54-.638-6.024,2.816-21.06-.48C618.68,125.327,608.677,125.535,607.855,128.632Z" transform="translate(-563.799 -60.412)"/><path class="al" d="M590.45,117.871a39.871,39.871,0,0,1,.115-10c.75-5.729,2.289-9.43,3.206-8.91s.774,6.13,1.316,11.659c.42,4.3,1.247,8.341,1.247,8.341S592.377,122.749,590.45,117.871Z" transform="translate(-562.756 -58.803)"/><path class="v" d="M591.392,132.761s.911-.984,5.8-3.857c3.276-1.926,6.715-4.2,7.2-5.038.726-1.967-14.023-.806-14.023-.806l-5.608,2.689A19.2,19.2,0,0,0,591.392,132.761Z" transform="translate(-562.433 -60.214)"/><path class="am" d="M578.714,87.166s3.805,2.45,1.309,8.121c0,0-17.775,9.682-16.747,20.231.858,8.8,25.419,4.541,25.419,4.541l.881,2.939s-20.865,4.083-28.064-.824c0,0-2.449-5.814,3.624-16.3A122.1,122.1,0,0,1,578.714,87.166Z" transform="translate(-561.025 -58.106)"/><path class="an" d="M587.1,121.022c-2.239,2.531,2.512,5.3,6.415,5.727,4.382.476,12.164-1.258,11.694-5.67S592.346,115.086,587.1,121.022Z" transform="translate(-562.538 -59.884)"/><path class="ao" d="M587.45,121.5c-.133.722,15.508.895,15.875-1.869S588.478,115.921,587.45,121.5Z" transform="translate(-562.592 -59.901)"/><path class="ap" d="M674.115,67.958s-2.073-2.568-4.9-1.886-3.012,9.583-1.322,9.8,2.406-4.922,3.7-5.73a6.466,6.466,0,0,1,3.558-.495Z" transform="translate(-567.3 -56.848)"/><path class="aq" d="M581,71.682a3.869,3.869,0,0,1,3.539-.835c2.449.4,3.86,5.426,5.114,4.922s.334-8.647-2.977-11.041C586.676,64.727,582.407,68.371,581,71.682Z" transform="translate(-562.21 -56.775)"/><path class="ar" d="M582.318,206.807s1.175,6.234,4.945,7.164l.6-14.968S583.447,204.882,582.318,206.807Z" transform="translate(-562.288 -64.739)"/><path class="as" d="M586.228,202.383c-.563,1.443.525,10.868,1.553,11.935s3.4-.737,4.058-2.647,3.62-12.316-.187-15.651C591.652,196.019,588.579,196.359,586.228,202.383Z" transform="translate(-562.511 -64.562)"/><path class="i" d="M588.022,204.13c-.419.077-.887,3.307-.54,3.886s1.043.513,1.373-.217S588.656,204.014,588.022,204.13Z" transform="translate(-562.587 -65.043)"/><path class="at" d="M575.7,93.236s-8.5,9.872-7.961,10.557S576.234,94.233,575.7,93.236Z" transform="translate(-561.422 -58.466)"/><path class="au" d="M694.842,178.761c-.215.082-.421.155-.618.217-1.548.493-2.544.343-3.164-1.22l-2.762-6.983-3.883.047,3.162,8.029c2.111,5.338,5.75,4.765,8.72,3.61Z" transform="translate(-568.344 -63.065)"/><path class="au" d="M699.254,177.622l-3.756,1.545,1.456,3.7,4.343-2.006Z" transform="translate(-569.001 -63.471)"/><g transform="translate(117.863 108.738)"><path class="i" d="M690.2,176.563c.638-.235.62-.981.411-1.546-.147-.4-.586-1.288-1.487-1.02a.093.093,0,0,0-.042.034.061.061,0,0,0,0,.055l.247.671a.066.066,0,0,0,.08.043c.319-.081.493.167.58.4.122.331.08.54-.121.614s-.3-.072-.467-.4c-.041-.086-.09-.167-.139-.25-.2-.394-.572-1.129-1.356-.839a1.026,1.026,0,0,0-.475,1.4,1.618,1.618,0,0,0,.688.847,1.012,1.012,0,0,1,.48.53c.006.016.017.021.031.034a.037.037,0,0,0,.043-.007.3.3,0,0,1,.086-.04l1.437-.531Zm-2.072-.84c-.11-.3-.076-.505.11-.6.238-.125.427.089.551.3a2.2,2.2,0,0,1,.113.206l0,.008a1.878,1.878,0,0,0,.249.4l-.347.128C688.48,176.292,688.225,175.973,688.132,175.723Zm1.785-2.348-1.526.563a1.255,1.255,0,0,1-1.867-.807l-.2-.548a.054.054,0,0,1,.03-.066l.63-.233a.057.057,0,0,1,.067.031l.22.6c.143.388.407.382.843.221l1.51-.558a.075.075,0,0,1,.088.04l.245.662A.075.075,0,0,1,689.917,173.375Zm1.921,7.815-1.986.733a.074.074,0,0,1-.088-.04l-.247-.671a.068.068,0,0,1,.039-.087h0l1.793-.661a.484.484,0,0,0,.344-.659.474.474,0,0,0-.684-.262l-1.8.665a.076.076,0,0,1-.088-.04l-.244-.662a.074.074,0,0,1,.04-.088l1.8-.665a.468.468,0,0,0,.35-.642.484.484,0,0,0-.69-.278l-1.8.665a.074.074,0,0,1-.088-.04l-.247-.671a.067.067,0,0,1,.038-.087h0l1.994-.736c.606-.224,1.131.179,1.408.929a1.383,1.383,0,0,1,.086.73.581.581,0,0,0,0,.2.4.4,0,0,0,.13.153,1.461,1.461,0,0,1,.409.611c.263.738.126,1.385-.472,1.606Zm1.144,2.9c.638-.236.62-.981.414-1.539-.146-.4-.585-1.288-1.486-1.02a.1.1,0,0,0-.043.034.065.065,0,0,0,0,.055l.247.671a.067.067,0,0,0,.081.043c.315-.088.493.167.579.4.122.331.08.54-.122.614s-.3-.072-.467-.4c-.04-.086-.089-.168-.138-.251-.2-.394-.573-1.129-1.355-.839a1.026,1.026,0,0,0-.476,1.4,1.614,1.614,0,0,0,.689.847,1.015,1.015,0,0,1,.48.53.063.063,0,0,0,.032.034.037.037,0,0,0,.043-.007.274.274,0,0,1,.086-.04l1.437-.531Zm-2.069-.832c-.11-.3-.076-.5.109-.6.239-.125.428.089.552.3a2.19,2.19,0,0,1,.113.206l.006.016a1.876,1.876,0,0,0,.249.4l-.347.128C691.261,183.826,691,183.5,690.913,183.257Zm3.7,2.8-.63.232a.054.054,0,0,1-.066-.03l-.221-.6c-.143-.388-.407-.382-.843-.221l-1.51.558a.074.074,0,0,1-.088-.041l-.245-.662a.074.074,0,0,1,.04-.088l1.526-.562a1.248,1.248,0,0,1,1.867.807l.2.548A.048.048,0,0,1,694.617,186.055Z" transform="translate(-686.319 -171.892)"/><path class="i" d="M693.635,175.089l-.444.165a.038.038,0,0,1-.044-.021l-.155-.42c-.1-.275-.292-.269-.591-.159l-1.066.394a.056.056,0,0,1-.067-.031l-.173-.468a.056.056,0,0,1,.031-.066l1.073-.4a.879.879,0,0,1,1.312.571l.143.388a.032.032,0,0,1-.014.042Zm-2.164-1.587a.048.048,0,0,1,.058.034l.173.468a.043.043,0,0,1,0,.039.062.062,0,0,1-.034.031c-.637.189-.943-.441-1.044-.716a1.14,1.14,0,0,1-.026-.816,1.077,1.077,0,0,1,.661-.52l.13-.048a.918.918,0,0,1,1.351.6c.1.282.281.96-.329,1.222-.016.007-.023.009-.038,0a.071.071,0,0,1-.028-.026l-.173-.468a.054.054,0,0,1,.023-.064c.212-.1.185-.316.126-.478s-.131-.254-.244-.286a1.028,1.028,0,0,0-.5.073l-.113.041a1.029,1.029,0,0,0-.424.267c-.065.1-.065.2,0,.375C691.124,173.382,691.247,173.567,691.471,173.5Zm3.948,6.444a.057.057,0,0,0,.03-.067l-.176-.476a.056.056,0,0,0-.066-.031l-2,.737a.054.054,0,0,0-.03.066l.173.468a.056.056,0,0,0,.066.031l2-.737ZM694.2,179.5l-.146.054a.879.879,0,0,1-1.311-.571l-.313-.849a.055.055,0,0,1,.03-.067l2-.736a.049.049,0,0,1,.065.026v0l.313.849A.887.887,0,0,1,694.2,179.5Zm-.217-.563c.307-.114.531-.251.427-.534l-.134-.363-1.228.453.133.363c.1.275.365.242.672.129Zm-.432-1.519-.339.125a.056.056,0,0,1-.046,0,.059.059,0,0,1-.028-.026l-.489-1.324a.6.6,0,0,0-.293.172.469.469,0,0,0,.016.417c.051.137.171.341.355.291a.048.048,0,0,1,.058.034l.173.468a.047.047,0,0,1,0,.039.04.04,0,0,1-.038.023c-.594.182-.9-.464-1-.722a1.142,1.142,0,0,1-.026-.817,1.075,1.075,0,0,1,.662-.519l.129-.047a.917.917,0,0,1,1.351.6c.1.283.281.961-.328,1.223C693.725,177.349,693.613,177.391,693.549,177.415Zm-.155-1.439a.632.632,0,0,0-.32.054l.3.808.137-.051c.218-.081.194-.32.135-.482-.057-.18-.137-.3-.25-.328Z" transform="translate(-686.569 -171.867)"/><path class="i" d="M695,187.643a.1.1,0,0,0,.137.05c.072-.027.09-.079.057-.168l-.054-.145-.388.143.015.04a.008.008,0,0,0,.01.006h0l.161-.059.027.072-.123.165.018.049.008,0h0Zm.121-.192.033.088c.021.056.006.09-.035.1s-.073,0-.094-.056L695,187.5Zm.2.009a.344.344,0,1,0-.2.442h0A.351.351,0,0,0,695.321,187.461Zm-.59.218a.284.284,0,0,1,.167-.364l.009,0a.289.289,0,0,1,.373.165.293.293,0,0,1-.549.2Z" transform="translate(-686.813 -172.779)"/></g><path class="av" d="M680.208,171.191a81.983,81.983,0,0,1,6.275,17.423l3.9-.1a170.225,170.225,0,0,0-8.27-18.5Z" transform="translate(-568.094 -63.019)"/><path class="aw" d="M680.208,171.245a17.992,17.992,0,0,0,7.8,4.768c4.408,1.077,6.988-3.151,6.988-3.151l-1.527-1.943Z" transform="translate(-568.094 -63.073)"/><path class="ax" d="M675.54,168.457c-1.1-3.4,14.194-3.355,16.229-2.045.906.583,2.444,2.6,1.811,3.829s-5.66,1.981-7.764,1.771S676.265,170.69,675.54,168.457Z" transform="translate(-567.814 -62.757)"/><path class="ay" d="M687.991,172.091s-.156-3.348,1.583-4.684a3.4,3.4,0,0,1,3.322-.635s2.28,1.7,1.426,3.528S689.125,172.565,687.991,172.091Z" transform="translate(-568.555 -62.816)"/></g></g></svg>