<svg xmlns="http://www.w3.org/2000/svg" width="36.492" height="23.641" viewBox="0 0 36.492 23.641">
    <defs>
        <clipPath id="clip-path">
            <path id="Trazado_2610" d="M35.312 23.641H1.18A1.177 1.177 0 0 1 0 22.461V1.18A1.177 1.177 0 0 1 1.18 0h34.132a1.177 1.177 0 0 1 1.18 1.18v21.28a1.177 1.177 0 0 1-1.18 1.181z" class="cls-1" data-name="Trazado 2610" transform="translate(169.346 905.974)"/>
        </clipPath>
        <style>
            .cls-1{fill:#00b5ad}.cls-4{fill:#fff}
        </style>
    </defs>
    <g id="Enmascarar_grupo_141" clip-path="url(#clip-path)" data-name="Enmascarar grupo 141" transform="translate(-169.346 -905.974)">
        <g id="Grupo_2504" data-name="Grupo 2504" transform="rotate(10.02 -5046.26 1421.844)">
            <path id="Trazado_67" d="M35.312 23.641H1.18A1.177 1.177 0 0 1 0 22.461V1.18A1.177 1.177 0 0 1 1.18 0h34.132a1.177 1.177 0 0 1 1.18 1.18v21.28a1.177 1.177 0 0 1-1.18 1.181z" class="cls-1" data-name="Trazado 67" transform="rotate(-10.02 36.143 3.15)"/>
            <g id="Grupo_105" data-name="Grupo 105" transform="rotate(-10.02 128.39 -4.908)">
                <path id="Trazado_69" fill="#e84a4a" d="M36.433 5.8a2.057 2.057 0 0 0 .059-.5l-.01-5.3L0 .05l.01 5.305c0 .169-.01.337-.01.5z" data-name="Trazado 69"/>
            </g>
            <g id="Grupo_110" data-name="Grupo 110" transform="rotate(-10.02 50.574 -14.349)">
                <g id="Grupo_108" data-name="Grupo 108">
                    <path id="Trazado_104" d="M9.838 1.777C9.838.467 8.491.018 7.325.018c-.808 0-2.711.2-2.819 1.993a.255.255 0 0 0 .036.108c.018.036.054.036.09.036h1.382a.123.123 0 0 0 .126-.126c.054-.628.628-.772 1.113-.772.682 0 1.023.215 1.023.628 0 .431-.341.5-1.023.592-.18.018-.359.054-.539.072-.844.09-2.406.269-2.406 1.885A1.96 1.96 0 0 0 6.5 6.211a3.041 3.041 0 0 0 1.975-.682 2.06 2.06 0 0 1 1.255-.52c.036 0 .054-.018.09-.036.018-.018.036-.054.018-.072a.5.5 0 0 1-.018-.18zm-2.872 3.2c-.61 0-.951-.2-1.005-.592-.072-.521.449-.718.9-.79a3.531 3.531 0 0 1 .431-.054h.018a3.461 3.461 0 0 0 .9-.18v.7c.012.66-.742.912-1.245.912zM3.914.2v3.121c0 1.311-.305 2.819-2.693 2.819H.108A.1.1 0 0 1 0 6.032V4.739a.1.1 0 0 1 .09-.09h1.238c.79 0 .951-.485.951-1.364V.2a.128.128 0 0 1 .145-.128h1.364A.123.123 0 0 1 3.914.2zm15.331 1.721v4.057a.128.128 0 0 1-.145.122h-1.363a.123.123 0 0 1-.126-.126V2.3a.921.921 0 0 0-.969-1.041c-.826 0-.916.682-.916 1.059V6a.152.152 0 0 1-.126.144h-1.364a.123.123 0 0 1-.126-.126V2.334c0-.377-.09-1.059-.916-1.059a.941.941 0 0 0-.969 1.059v3.68a.128.128 0 0 1-.144.126h-1.363a.135.135 0 0 1-.126-.126V1.957c0-1.239 1.077-1.9 2.6-1.9a2.619 2.619 0 0 1 1.364.323.862.862 0 0 0 .362.12.862.862 0 0 0 .359-.126 2.729 2.729 0 0 1 1.365-.32c1.526-.036 2.603.628 2.603 1.867zm5.978-.162C25.223.449 23.877 0 22.728 0c-.808 0-2.711.2-2.819 1.993a.132.132 0 0 0 .036.108c.018.036.054.036.09.036H21.4a.152.152 0 0 0 .144-.126c.054-.628.628-.772 1.1-.772.682 0 1.023.215 1.023.628 0 .431-.323.485-1.023.574-.18.018-.359.036-.539.072-.844.09-2.424.287-2.406 1.885a1.96 1.96 0 0 0 2.19 1.777 3.087 3.087 0 0 0 1.993-.682 1.965 1.965 0 0 1 1.275-.521.093.093 0 0 0 .072-.036.134.134 0 0 0 .018-.09.5.5 0 0 1-.018-.18zm-2.872 3.178c-.61 0-.951-.2-1.005-.592-.072-.521.449-.718.9-.79.144-.036.287-.036.449-.072h.018a3.314 3.314 0 0 0 .9-.18V4c-.006.686-.76.937-1.262.937zM29.837.126v1.292a.1.1 0 0 1-.108.09h-1.221c-.79 0-.951.485-.951 1.364V5.96a.128.128 0 0 1-.144.126h-1.364a.123.123 0 0 1-.126-.126V2.836c0-1.311.305-2.819 2.675-2.819h1.113c.072.019.126.055.126.109z" class="cls-4" data-name="Trazado 104" transform="translate(0 4.991)"/>
                    <path id="Trazado_105" d="M7.055.108v.9a.066.066 0 0 1-.072.072h-.861c-.574 0-.682.341-.682.969v2.17a.085.085 0 0 1-.09.09h-.97a.085.085 0 0 1-.09-.09v-2.19c0-.916.215-1.975 1.885-1.975h.79c.072-.018.09 0 .09.054zM2.783 2.944c.018-.054.054-.09.09-.09h.969a.072.072 0 0 1 .072.036.136.136 0 0 1 .036.072c-.072 1.275-1.418 1.4-1.975 1.4A2.072 2.072 0 0 1 .5 3.86 2.068 2.068 0 0 1 0 2.316v-.269A2.056 2.056 0 0 1 .485.5 2.072 2.072 0 0 1 1.957 0c.574 0 1.9.126 1.993 1.4a.072.072 0 0 1-.036.072c-.018.018-.036.018-.072.018h-.97a.1.1 0 0 1-.09-.09C2.729.951 2.334.862 2.011.862a.8.8 0 0 0-.682.233 2.08 2.08 0 0 0-.2.951v.234a1.95 1.95 0 0 0 .2.934c.126.18.323.251.682.251.323.018.718-.072.772-.521zM16.965.108a.085.085 0 0 0-.09-.09h-.969a.1.1 0 0 0-.108.09v4.075a.085.085 0 0 0 .09.09h.969a.085.085 0 0 0 .09-.09zm-1.616 1.885V2.3c0 .916-.215 1.975-1.885 1.993h-1.723a.114.114 0 0 1-.108-.09V.126c0-.054.036-.09.108-.09h1.723c1.67-.018 1.885 1.041 1.885 1.957zm-1.149.036C14.2 1.4 14.093.9 13.536.9h-.754v2.511h.754c.557 0 .664-.5.664-1.113zM11.184 1.8v.7a.108.108 0 0 1-.018.072.136.136 0 0 1-.072.036h-2.71a1.124 1.124 0 0 0 .126.646c.126.18.395.233.754.233.287 0 .736-.072.772-.449a.1.1 0 0 1 .09-.09h.969a.136.136 0 0 1 .072.036c.018.018.018.036.018.072-.072 1.185-1.436 1.311-1.957 1.311a2.146 2.146 0 0 1-1.49-.5 2.056 2.056 0 0 1-.485-1.544v-.276A2.056 2.056 0 0 1 7.737.5 2.1 2.1 0 0 1 9.21 0c.574 0 1.9.126 1.975 1.4zm-2.693-.687a1.163 1.163 0 0 0-.108.61h1.634v-.287c0-.449-.449-.557-.772-.557a.974.974 0 0 0-.754.234z" class="cls-4" data-name="Trazado 105" transform="translate(2.28)"/>
                </g>
                <g id="Grupo_109" data-name="Grupo 109" transform="translate(30.286 5.063)">
                    <path id="Trazado_106" d="M0 .718A.709.709 0 0 1 .718 0a.7.7 0 0 1 .7.7.7.7 0 0 1-.7.7A.68.68 0 0 1 0 .718zm1.346 0a.629.629 0 1 0-1.256 0 .614.614 0 0 0 .628.628.636.636 0 0 0 .628-.628zM.413.323h.341a.341.341 0 0 1 .215.072.228.228 0 0 1 .072.162.213.213 0 0 1-.18.215l.2.287H.9L.718.808H.574v.251H.431zm.323.359A.128.128 0 0 0 .88.557C.88.485.826.449.736.449H.557v.233z" class="cls-4" data-name="Trazado 106"/>
                </g>
            </g>
        </g>
    </g>
</svg>
